<?xml version="1.0" standalone="no"?>
<!DOCTYPE svg PUBLIC "-//W3C//DTD SVG 20010904//EN"
 "http://www.w3.org/TR/2001/REC-SVG-20010904/DTD/svg10.dtd">
<svg version="1.0" xmlns="http://www.w3.org/2000/svg"
 width="267.000000pt" height="300.000000pt" viewBox="0 0 267.000000 300.000000"
 preserveAspectRatio="xMidYMid meet">
<metadata>
Created by potrace 1.10, written by Peter Selinger 2001-2011
</metadata>
<g transform="translate(0.000000,300.000000) scale(0.050000,-0.050000)"
fill="#000000" stroke="none">
<path d="M2560 5527 c-446 -44 -922 -155 -1094 -255 -123 -72 -115 -38 -146
-602 -52 -949 -63 -1249 -52 -1370 6 -71 12 -224 14 -340 2 -180 5 -199 21
-130 11 44 16 118 11 165 -5 47 -3 85 5 85 7 0 15 124 18 275 3 151 9 311 13
355 13 154 39 581 38 645 -1 36 6 65 15 65 10 0 17 37 17 81 0 47 -8 76 -19
69 -11 -6 -7 19 9 57 19 46 26 120 21 226 -5 109 -2 139 10 97 17 -59 17 -58
12 14 -3 42 4 72 16 70 12 -2 19 5 17 17 -2 11 14 22 35 24 44 3 49 -37 20
-165 -10 -44 -28 -152 -39 -240 -126 -993 -123 -957 -125 -1540 -1 -253 5
-523 12 -600 8 -77 36 -338 62 -580 26 -242 52 -570 59 -730 6 -159 16 -373
21 -475 12 -204 10 -207 -96 -134 l-75 50 0 255 c0 285 -53 1342 -77 1544
l-15 130 -16 -145 c-9 -80 -22 -145 -30 -145 -14 0 -8 -212 7 -254 5 -13 0
-26 -10 -30 -11 -3 -23 -53 -27 -111 -5 -68 0 -100 13 -92 11 7 16 0 11 -15
-5 -15 -20 -29 -33 -30 -46 -5 -48 -8 -23 -38 13 -16 19 -43 13 -60 -8 -19 0
-31 23 -32 27 -1 28 -3 4 -13 -16 -6 -37 -21 -45 -33 -8 -13 -15 -3 -15 23 0
25 -12 45 -27 45 -17 0 -28 22 -28 54 0 30 -10 58 -22 62 -16 5 -17 19 -2 45
15 30 14 36 -8 27 -15 -5 -33 4 -40 21 -6 17 -1 31 12 31 17 0 17 6 -1 24 -13
13 -24 53 -24 88 0 47 -11 66 -40 74 -35 9 -38 18 -20 65 19 48 18 52 -9 30
-31 -26 -33 -24 -40 49 -8 93 -39 200 -83 283 -26 48 -46 95 -44 103 3 8 -7
34 -20 59 -14 25 -18 45 -10 46 9 0 0 9 -19 21 -20 11 -30 29 -24 40 7 10 1
17 -12 13 -13 -3 -29 8 -34 23 -6 15 -2 22 8 16 10 -6 20 12 23 41 4 48 2 49
-33 18 -20 -18 -47 -33 -59 -33 -13 0 10 -32 51 -71 59 -55 66 -69 35 -65 -35
5 -41 -7 -46 -92 -5 -80 -1 -95 24 -86 25 10 27 3 11 -38 -14 -38 -12 -52 12
-61 23 -9 28 -28 18 -70 -8 -39 0 -79 25 -122 21 -36 40 -104 43 -151 4 -47
19 -110 34 -140 16 -30 29 -74 29 -99 0 -25 9 -45 20 -45 11 0 20 -23 20 -50
0 -28 8 -66 18 -85 34 -69 82 -236 82 -289 0 -29 12 -65 27 -80 15 -15 34 -63
42 -107 8 -43 23 -89 34 -102 22 -27 54 -186 70 -349 10 -99 19 -116 74 -148
35 -21 68 -42 73 -49 49 -59 534 -183 828 -211 65 -6 124 -15 130 -19 7 -4 98
-13 202 -20 105 -6 306 -22 449 -34 277 -24 800 -11 1001 24 66 12 152 25 191
29 82 10 211 60 229 90 7 11 19 17 27 12 7 -5 31 5 53 22 39 29 38 30 -10 16
-33 -9 -16 10 50 55 55 38 138 111 185 162 l85 92 0 230 0 231 -82 59 c-45 33
-99 65 -120 72 -54 17 -33 742 34 1194 10 64 23 80 95 112 46 21 105 59 131
84 l48 46 -12 522 c-14 551 -36 741 -156 1336 -80 398 -163 626 -245 676 -192
117 -1345 234 -1833 186z m370 -46 c-8 -13 13 -21 54 -20 36 1 111 -4 166 -10
55 -7 168 -16 250 -20 83 -4 258 -14 390 -21 232 -12 542 -56 565 -79 11 -10
-587 -19 -758 -12 -301 14 -1497 -181 -1497 -244 0 -22 15 -35 40 -35 22 0 40
-11 40 -25 0 -14 20 -34 45 -45 25 -11 45 -29 45 -40 0 -11 8 -31 16 -45 10
-15 7 -25 -6 -25 -12 0 -17 -9 -10 -20 7 -11 3 -20 -7 -20 -13 0 -14 -23 -2
-63 11 -38 10 -76 -2 -98 -25 -47 -24 -133 1 -149 11 -7 21 -46 21 -86 2 -59
5 -66 18 -34 17 40 17 40 31 0 8 -22 26 -67 40 -100 14 -33 53 -128 86 -211
32 -82 87 -194 122 -248 34 -55 62 -107 62 -117 0 -10 20 -43 45 -74 102 -127
120 -152 138 -191 11 -22 45 -58 77 -79 32 -21 61 -53 66 -70 4 -17 31 -33 60
-35 42 -4 50 3 42 30 -10 31 -8 31 19 -2 34 -41 113 -89 273 -165 61 -29 117
-57 125 -62 8 -4 15 6 15 23 0 17 -16 31 -35 31 -40 0 -225 120 -315 204 -33
31 -66 56 -73 56 -17 0 -292 323 -344 404 -93 146 -177 296 -275 491 -100 200
-124 231 -145 180 -5 -14 -7 10 -5 54 3 43 -3 122 -13 176 -12 69 -10 106 6
126 13 16 19 41 13 56 -6 16 0 40 13 53 18 20 17 22 -7 9 -21 -11 -19 -3 6 25
33 38 101 63 204 75 59 7 99 19 110 34 11 15 105 34 245 51 52 6 90 18 85 26
-25 40 63 38 119 -3 38 -28 51 -32 34 -11 -25 30 -22 34 23 34 29 0 57 9 64
20 7 11 37 20 66 19 30 0 119 3 198 8 126 8 142 5 131 -24 -11 -29 -8 -29 23
2 39 40 240 50 263 14 9 -14 21 -14 39 1 14 12 47 16 73 10 26 -6 70 -15 97
-18 28 -4 75 -17 106 -29 31 -13 69 -23 85 -23 30 0 89 -98 89 -149 0 -17 9
-31 19 -31 11 0 15 -13 9 -28 -6 -16 3 -50 19 -75 34 -53 49 -235 24 -276 -12
-18 -10 -22 6 -13 15 9 24 -2 25 -32 4 -113 -7 -268 -25 -363 -11 -57 -23
-143 -28 -192 -5 -48 -25 -120 -46 -160 -38 -72 -104 -276 -114 -351 -9 -61
-11 -63 -28 -20 -13 32 -19 20 -31 -55 -11 -75 -23 -95 -53 -95 -31 0 -35 -7
-19 -36 15 -28 10 -42 -22 -62 -37 -23 -40 -22 -29 7 7 19 4 28 -7 21 -11 -7
-20 -25 -20 -40 0 -15 -19 -33 -43 -41 -25 -8 -33 -19 -21 -27 13 -7 15 -24 5
-40 -13 -22 -20 -20 -35 6 -11 21 -31 29 -52 21 -19 -7 -29 -21 -23 -31 6 -10
2 -18 -8 -18 -11 0 -24 20 -29 45 -6 32 -9 26 -11 -21 -2 -37 -11 -61 -22 -55
-10 6 -24 3 -31 -9 -56 -91 253 2 373 112 90 82 192 254 223 378 6 22 30 108
54 190 50 173 99 453 100 570 1 130 34 153 53 38 62 -360 -33 -1035 -166
-1190 -15 -17 -27 -40 -27 -51 0 -10 -36 -54 -80 -97 -75 -73 -106 -150 -60
-150 11 0 20 18 20 40 0 27 13 40 40 40 22 0 56 19 75 42 19 23 53 49 75 59
36 15 36 17 4 18 -34 1 -34 4 -5 33 17 17 27 38 22 46 -5 8 9 27 30 43 21 15
39 48 39 72 0 44 33 81 53 61 47 -48 -21 -496 -71 -465 -7 4 -32 -28 -56 -71
-23 -43 -34 -83 -24 -89 61 -38 -170 -116 -481 -161 -473 -69 -2096 -27 -2389
62 -108 33 -142 27 -69 -12 87 -46 94 -61 106 -226 5 -56 18 -151 30 -212 13
-60 26 -177 31 -260 7 -145 26 -370 30 -370 19 0 6 -366 -14 -404 -44 -84 -1
-100 126 -45 53 22 114 35 145 29 993 -196 2646 -36 2487 240 -7 11 4 8 22 -7
19 -16 34 -41 34 -56 0 -15 22 -36 50 -47 173 -66 -226 -230 -710 -291 -373
-47 -803 -74 -1230 -77 -110 -1 -207 -11 -215 -22 -9 -13 -14 -13 -15 1 0 26
-140 36 -244 18 -42 -7 -76 -22 -76 -34 0 -12 6 -16 13 -9 7 8 25 4 40 -9 20
-16 27 -15 27 6 1 22 4 22 18 0 13 -21 33 -22 93 -5 43 11 82 14 88 5 11 -18
52 -24 146 -23 39 0 55 -9 56 -35 0 -33 1 -33 20 -1 24 41 401 41 414 0 6 -16
22 -14 53 7 25 16 51 23 58 16 7 -7 27 -1 44 13 17 14 30 16 30 5 0 -11 18
-25 40 -31 22 -6 40 -3 40 7 0 9 38 16 85 14 114 -4 299 23 329 48 18 15 22
10 16 -21 -5 -27 3 -42 21 -42 16 0 29 10 29 22 0 14 24 19 60 14 33 -5 60 -1
60 8 0 10 25 14 55 10 36 -5 66 6 91 34 20 23 30 29 22 12 -10 -20 -1 -18 28
8 34 30 49 33 72 14 22 -19 49 -19 111 -2 45 12 91 16 101 10 11 -7 20 -5 20
4 0 30 106 68 121 44 25 -40 -44 -178 -94 -191 -28 -7 -47 -26 -47 -48 0 -40
-66 -70 -103 -47 -13 8 -18 6 -10 -7 19 -30 -36 -68 -79 -53 -30 9 -32 8 -9
-9 23 -16 17 -23 -30 -33 -32 -7 -72 -18 -89 -23 -16 -5 -66 -15 -110 -21 -44
-6 -101 -19 -127 -29 -25 -9 -55 -12 -65 -6 -10 6 -18 4 -18 -5 0 -9 -25 -17
-55 -19 -30 -1 -154 -13 -275 -25 -231 -24 -828 -2 -1010 37 -49 11 -202 34
-338 51 -137 18 -295 47 -352 64 l-104 33 -11 401 c-7 221 -30 569 -52 772
-87 803 -89 854 -77 1501 13 655 28 854 95 1289 36 229 51 312 91 505 5 25 22
45 39 45 24 0 25 7 5 39 -14 22 -45 38 -75 37 -73 -2 -181 24 -181 44 0 24
141 69 197 62 30 -3 43 3 34 16 -7 12 -4 22 7 22 11 0 24 -8 30 -17 6 -10 76
3 156 28 188 59 572 146 726 165 209 25 394 27 380 5z m1380 -3271 c-13 -412
-13 -525 -1 -730 12 -204 -15 -321 -62 -273 -29 28 -43 993 -16 1099 10 42 7
52 -15 44 -28 -11 -35 -55 -46 -290 -8 -162 -8 -163 -30 -150 -29 18 -25 -4
12 -61 21 -31 29 -72 22 -114 -6 -36 -17 -103 -25 -149 -17 -102 2 -171 34
-125 16 22 17 20 6 -11 -14 -38 -20 -84 -26 -217 -2 -43 -11 -54 -34 -45 -18
6 -26 3 -19 -8 7 -11 -6 -20 -29 -20 -38 0 -41 13 -44 185 -6 338 -11 381 -38
364 -11 -7 -15 -29 -9 -49 14 -43 -28 -120 -65 -120 -14 0 -25 -12 -25 -27 0
-18 16 -24 50 -18 49 9 50 7 50 -113 0 -68 -9 -122 -20 -122 -11 0 -20 -10
-20 -21 0 -12 9 -16 20 -9 11 7 20 3 20 -9 0 -11 -14 -21 -31 -21 -16 0 -35
-13 -42 -30 -6 -16 -29 -30 -50 -30 -25 0 -35 -9 -27 -25 7 -14 -6 -4 -28 22
-23 26 -37 55 -31 65 6 10 2 18 -10 18 -11 0 -21 -13 -21 -30 0 -18 -19 -30
-48 -30 -26 0 -53 -14 -60 -31 -9 -24 -20 -26 -52 -9 -30 16 -40 15 -40 -3 0
-14 -13 -7 -29 14 -23 30 -30 32 -31 9 0 -25 -3 -26 -18 -2 -16 24 -24 23 -52
-5 -51 -51 -83 -37 -72 32 6 43 -45 7 -64 -45 -22 -59 -54 -81 -54 -38 0 13
-18 18 -40 12 -22 -6 -40 -4 -40 4 0 8 -30 10 -67 6 -69 -8 -68 -9 -75 106 -2
28 -10 55 -19 61 -9 5 -14 -24 -11 -67 15 -196 -233 -228 -279 -35 l-15 61
-12 -80 c-11 -76 -15 -80 -92 -85 -115 -9 -170 9 -170 55 0 57 -37 49 -52 -10
-13 -52 -37 -64 -57 -31 -7 11 -26 14 -42 8 -16 -6 -51 3 -78 21 -55 36 -79
41 -62 14 6 -10 -21 -17 -59 -16 -45 1 -73 13 -79 33 -8 27 -19 1053 -13 1206
3 68 37 72 53 6 13 -51 115 -102 156 -77 14 9 3 20 -27 29 -35 10 -21 13 44 9
52 -3 97 2 100 11 3 9 74 21 156 27 153 11 199 -3 225 -70 10 -25 12 -24 13 3
1 21 26 39 64 47 80 18 243 -6 226 -33 -7 -11 7 -8 30 6 23 15 42 36 43 47 0
11 9 4 21 -15 21 -37 78 -48 78 -15 0 26 174 26 190 0 17 -28 54 -3 39 26 -7
13 1 9 16 -10 16 -20 36 -27 47 -17 33 31 215 60 242 38 13 -11 33 -15 43 -9
11 7 24 1 30 -13 8 -19 15 -18 30 4 23 33 62 43 178 47 47 1 85 10 85 19 0 9
58 13 128 10 l128 -5 -6 -200z m-2385 125 c13 -84 20 -1235 8 -1235 -5 0 -25
-6 -45 -13 -24 -10 -30 -6 -20 10 8 13 1 29 -17 36 -20 7 -28 25 -21 48 8 24
-2 44 -29 58 -48 26 -54 61 -11 61 21 0 30 21 30 72 0 54 -7 70 -28 61 -22 -8
-25 1 -13 43 8 30 11 86 7 124 -4 39 -7 149 -7 245 -1 96 -9 175 -19 175 -10
0 -17 47 -16 105 2 58 -4 142 -11 187 l-14 83 98 2 c95 2 98 1 108 -62z"/>
<path d="M3967 2269 c-7 -17 -6 -66 1 -108 10 -67 6 -80 -28 -91 -46 -15 -54
-50 -11 -50 42 0 56 -33 41 -100 -10 -44 -25 -60 -56 -60 -25 0 -35 -7 -23
-18 10 -10 46 -13 79 -8 l60 9 4 229 c3 222 -25 306 -67 197z"/>
<path d="M3708 2008 c7 -17 12 -36 12 -41 0 -5 9 -4 20 3 40 25 19 -89 -24
-129 -50 -47 -26 -55 32 -11 67 50 40 208 -35 210 -10 0 -12 -14 -5 -32z"/>
<path d="M2431 1989 c-33 -34 -41 -122 -15 -164 22 -33 144 -57 144 -27 0 12
-13 22 -30 22 -48 0 -100 94 -70 130 13 16 32 25 41 19 9 -5 22 0 30 13 22 36
48 -21 51 -112 l2 -80 20 62 c39 121 -88 221 -173 137z"/>
<path d="M2852 2003 c-6 -10 2 -30 18 -43 41 -34 38 -87 -7 -127 -47 -43 -61
-42 -106 10 -49 56 -47 66 18 118 l55 43 -50 -7 c-74 -10 -114 -103 -71 -168
60 -91 231 -51 231 54 0 49 -72 146 -88 120z"/>
<path d="M3333 1968 c-63 -64 -69 -128 -13 -142 22 -6 40 -19 40 -29 0 -10 31
-16 68 -14 73 5 119 98 72 145 -13 13 -20 5 -20 -25 0 -72 -44 -105 -102 -76
-63 32 -69 74 -17 130 61 65 36 74 -28 11z"/>
<path d="M3004 1936 c-95 -95 59 -224 172 -145 43 30 62 109 26 109 -10 0 -16
-15 -15 -34 2 -18 -19 -45 -46 -59 -68 -34 -128 17 -116 98 9 64 10 62 -21 31z"/>
<path d="M2113 1747 c-22 -23 -15 -127 9 -127 16 0 17 -7 2 -26 -12 -14 -15
-37 -6 -51 12 -19 21 -18 42 6 21 26 20 38 -7 68 -45 49 -45 126 0 109 23 -9
29 -5 19 11 -16 26 -39 30 -59 10z"/>
<path d="M3744 1666 c-18 -7 -19 -17 -6 -34 23 -27 7 -112 -20 -112 -10 0 -18
-9 -18 -20 0 -11 13 -20 28 -20 16 0 33 -11 38 -25 6 -14 11 -7 12 15 1 22 8
78 14 125 12 83 5 93 -48 71z"/>
<path d="M3478 1646 c-1 -9 -1 -36 1 -60 4 -52 -67 -129 -106 -114 -45 17 -80
111 -49 131 19 12 17 16 -9 17 -26 0 -35 -16 -35 -60 0 -33 9 -60 20 -60 11 0
20 -13 20 -30 0 -44 125 -39 167 7 36 40 45 153 13 173 -11 7 -21 5 -22 -4z"/>
<path d="M2393 1627 c-18 -19 -17 -367 2 -367 8 0 15 86 15 190 0 105 -1 190
-2 190 -1 0 -7 -6 -15 -13z"/>
<path d="M3013 1607 c-26 -27 -12 -113 22 -139 55 -42 71 -32 26 16 -44 46
-52 76 -23 76 10 0 23 14 29 30 12 30 -28 42 -54 17z"/>
</g>
</svg>
