<?xml version="1.0" standalone="no"?>
<!DOCTYPE svg PUBLIC "-//W3C//DTD SVG 20010904//EN"
 "http://www.w3.org/TR/2001/REC-SVG-20010904/DTD/svg10.dtd">
<svg version="1.0" xmlns="http://www.w3.org/2000/svg"
 width="300.000000pt" height="373.000000pt" viewBox="0 0 300.000000 373.000000"
 preserveAspectRatio="xMidYMid meet">
<metadata>
Created by potrace 1.10, written by Peter Selinger 2001-2011
</metadata>
<g transform="translate(0.000000,373.000000) scale(0.100000,-0.100000)"
fill="#000000" stroke="none">
<path d="M1150 3723 c-25 -2 -56 -13 -70 -24 -20 -17 -21 -19 -5 -13 32 12
235 18 235 6 0 -6 -44 -10 -107 -11 -67 -1 -109 -5 -112 -12 -2 -6 -14 -22
-28 -37 -16 -18 -23 -21 -19 -9 3 9 9 25 12 35 10 29 -50 -67 -101 -163 -26
-49 -51 -92 -56 -95 -5 -3 -33 -60 -64 -125 -31 -66 -69 -147 -85 -180 -65
-135 -137 -303 -144 -335 -2 -8 -11 -31 -19 -50 -31 -70 -95 -258 -138 -405
-11 -38 -26 -90 -34 -115 -41 -135 -93 -344 -92 -370 0 -9 -7 -45 -16 -80 -9
-36 -26 -105 -37 -155 -12 -49 -28 -112 -36 -140 -7 -27 -23 -86 -35 -130 -40
-152 -51 -190 -85 -290 -38 -113 -43 -129 -51 -201 l-6 -51 46 -32 c25 -17 50
-31 55 -31 5 0 16 -7 23 -17 13 -15 246 -131 354 -175 28 -11 68 -29 90 -39
22 -10 92 -37 155 -60 63 -23 138 -51 165 -61 228 -89 421 -146 665 -195 131
-27 413 -26 480 2 73 30 79 40 145 244 27 82 24 94 -24 126 -36 23 -38 37 -11
99 10 25 17 46 14 46 -2 0 5 18 16 40 11 21 20 44 20 50 0 16 89 228 127 302
7 14 13 30 13 36 0 5 8 27 17 48 9 22 17 41 18 44 0 3 17 40 38 83 20 43 37
83 37 88 0 6 7 26 16 44 14 29 21 34 69 40 46 5 110 34 78 35 -6 0 -15 -4 -18
-10 -3 -5 -29 -10 -57 -10 -42 0 -49 3 -44 16 3 9 6 19 6 23 0 10 62 1 78 -12
9 -7 11 -5 6 9 -6 16 -5 17 7 7 19 -18 39 -16 39 5 0 9 12 49 26 87 43 119 71
207 93 295 12 47 28 108 36 135 8 28 23 91 34 140 10 50 27 124 36 166 9 42
18 90 20 107 2 17 9 58 15 91 10 56 21 191 36 467 9 146 3 172 -48 223 -23 22
-45 41 -49 41 -8 0 -71 39 -132 82 -35 24 -239 128 -287 146 -19 7 -49 19 -66
27 -17 7 -87 32 -155 54 -68 23 -145 48 -170 57 -26 8 -64 17 -85 20 -22 3
-56 9 -77 15 -107 29 -312 50 -507 53 -113 2 -225 2 -250 -1z m505 -23 c61 -6
124 -15 142 -21 18 -6 50 -12 72 -14 91 -9 461 -119 541 -160 30 -16 112 -50
120 -50 3 0 35 -17 72 -38 36 -20 69 -37 73 -37 6 0 16 -6 107 -68 25 -18 50
-32 55 -32 4 0 21 -11 37 -23 28 -23 29 -27 27 -93 -1 -38 -9 -114 -17 -169
-9 -55 -17 -125 -20 -155 -2 -30 -10 -91 -19 -135 -9 -44 -25 -127 -36 -185
-34 -177 -61 -295 -89 -395 -12 -44 -26 -93 -30 -110 -9 -37 -67 -213 -90
-275 -10 -25 -27 -74 -38 -110 -32 -102 -70 -198 -113 -287 -21 -46 -39 -87
-39 -93 0 -6 -16 -43 -36 -82 -20 -39 -38 -83 -41 -97 -2 -14 -8 -30 -12 -36
-8 -10 -125 -305 -126 -315 0 -3 -7 -24 -17 -45 -37 -91 -57 -144 -77 -205
-30 -94 -55 -162 -68 -185 -11 -19 -22 -20 -190 -20 -166 0 -357 10 -385 20
-7 2 -69 12 -137 20 -138 18 -155 23 -141 45 8 12 20 12 92 -3 46 -9 124 -21
173 -26 50 -6 126 -15 170 -21 44 -6 146 -10 227 -9 169 1 176 5 203 97 30
106 44 148 65 202 12 30 35 89 50 130 15 41 35 89 44 105 9 17 16 34 16 39 0
15 107 278 139 343 17 34 31 67 31 72 0 11 17 50 76 176 18 39 35 81 39 95 10
37 65 190 80 225 8 17 16 42 19 55 3 14 17 66 31 115 51 173 64 221 90 330 54
226 69 296 85 405 6 47 16 105 21 129 6 24 14 98 19 165 5 66 12 148 16 182 6
59 6 61 -22 80 -121 80 -347 199 -482 253 -106 42 -240 90 -287 101 -27 7 -72
19 -100 27 -175 48 -401 81 -645 93 l-145 8 180 -3 c99 -2 230 -8 290 -15z
m-130 -15 c114 -16 120 -18 112 -32 -4 -5 -44 -4 -94 3 -48 7 -121 13 -162 13
-64 1 -72 3 -61 16 16 19 67 19 205 0z m-202 -41 c34 -28 64 -37 103 -31 22 3
19 4 -13 6 -50 1 -70 21 -21 21 18 0 39 -4 47 -9 17 -11 43 -3 35 11 -3 5 -35
8 -70 7 -35 -1 -68 1 -72 6 -10 11 195 -2 233 -15 26 -9 22 -9 -23 -5 -40 3
-54 1 -59 -10 -3 -8 -9 -13 -13 -10 -9 5 -25 -35 -59 -140 -55 -176 -67 -208
-79 -212 -20 -8 -24 2 -12 31 6 17 14 25 22 20 10 -6 11 -4 1 7 -15 15 -29 4
-35 -26 -5 -25 -28 -23 -185 23 -49 14 -66 33 -43 47 6 3 10 16 10 29 0 12 4
26 9 31 5 6 21 39 36 75 15 36 33 72 41 80 10 10 44 17 102 21 l87 6 -92 1
c-81 2 -95 5 -121 27 -16 13 -32 21 -36 18 -10 -10 45 -54 58 -46 6 4 4 -2 -5
-13 -27 -31 -141 -235 -136 -241 3 -3 15 12 26 34 22 42 27 34 10 -16 -12 -34
-21 -36 -90 -18 l-47 12 17 32 c62 121 94 179 129 235 l22 36 98 -1 c87 0 100
-2 125 -23z m445 6 c46 -11 91 -20 100 -20 55 0 403 -111 426 -136 6 -6 18 -9
28 -6 9 2 32 -5 50 -16 18 -11 38 -21 43 -22 6 0 53 -21 104 -46 77 -37 92
-48 78 -56 -13 -7 -33 -1 -75 20 -31 16 -93 46 -137 67 -44 21 -87 43 -95 50
-8 6 -53 24 -100 38 -47 15 -128 41 -180 57 -52 17 -122 35 -155 40 -33 5 -76
14 -95 20 -19 5 -52 10 -73 10 -23 0 -36 4 -32 10 8 14 18 13 113 -10z m-108
-25 c7 -8 17 -15 22 -15 6 0 5 6 -2 15 -10 12 -6 13 27 9 21 -3 67 -12 103
-20 36 -8 79 -16 95 -18 17 -1 71 -17 120 -33 50 -17 129 -43 178 -58 48 -15
87 -30 87 -34 0 -10 83 -56 93 -53 5 1 6 -2 3 -7 -4 -5 2 -9 11 -9 10 1 38
-10 63 -23 43 -24 45 -26 33 -49 -13 -25 -16 -22 -14 15 0 12 -2 15 -5 7 -5
-10 -11 -9 -28 6 -11 10 -43 25 -71 32 -27 6 -72 19 -98 27 -26 8 -58 16 -70
18 -20 3 -43 9 -182 50 -27 9 -60 17 -72 19 -26 6 -121 32 -184 52 -26 9 -61
17 -79 19 -18 3 -35 7 -39 11 -3 4 13 4 37 1 35 -4 41 -3 32 8 -7 9 -23 12
-46 8 -28 -5 -34 -2 -34 12 0 14 -3 15 -15 5 -8 -6 -22 -10 -32 -7 -14 4 -14
5 4 6 12 0 25 6 28 11 9 14 21 12 35 -5z m-135 -5 c4 -6 11 -8 16 -4 5 3 16 1
23 -5 18 -15 8 -59 -15 -72 -17 -9 -18 -7 -9 16 5 14 7 25 4 25 -4 0 0 7 7 16
12 15 11 16 -7 10 -14 -4 -26 -1 -34 9 -8 9 -8 15 -2 15 6 0 14 -5 17 -10z
m-497 -47 c-8 -15 -56 -105 -106 -199 -50 -94 -97 -184 -103 -200 -9 -21 -13
-25 -16 -12 -5 19 47 127 130 271 31 53 66 115 78 138 11 23 23 39 26 36 3 -3
-1 -18 -9 -34z m483 26 c28 -14 19 -64 -26 -141 -20 -33 -41 -74 -48 -92 -15
-39 -16 -138 -1 -143 7 -2 10 5 7 20 -7 35 15 109 30 100 8 -4 7 -1 -1 10 -12
14 -10 23 10 59 38 71 69 108 112 133 l42 24 62 -18 c34 -11 62 -17 62 -15 0
2 12 -1 27 -7 23 -9 185 -53 233 -64 8 -2 51 -13 95 -25 44 -11 121 -32 170
-45 125 -33 139 -39 167 -75 l24 -31 28 26 c31 28 31 28 56 15 17 -9 17 -13 5
-47 -7 -21 -19 -57 -26 -80 -7 -24 -18 -43 -25 -43 -10 0 -10 7 1 34 8 18 16
44 19 57 2 13 7 38 10 54 5 19 0 13 -12 -16 -10 -25 -22 -59 -25 -75 -3 -16
-9 -37 -12 -46 -5 -13 4 -22 37 -39 24 -12 51 -28 61 -37 9 -8 27 -20 40 -26
18 -10 22 -20 22 -56 1 -53 -14 -88 -35 -82 -8 3 -46 23 -85 46 -38 22 -79 45
-90 51 -11 6 -20 19 -20 30 0 11 -4 23 -10 27 -6 5 -6 8 2 8 6 0 25 43 42 96
30 92 39 131 21 89 -7 -16 -9 -17 -9 -3 -1 9 -6 20 -13 24 -8 5 -9 0 -5 -17 6
-23 5 -23 -8 -4 -8 11 -18 25 -23 30 -5 6 -7 16 -4 23 9 28 -38 9 -78 -30 -46
-46 -63 -79 -48 -89 7 -4 7 -13 -1 -25 -10 -18 -10 -18 -11 -1 0 11 -5 15 -11
11 -7 -4 -9 -23 -6 -48 3 -22 2 -61 -2 -86 -5 -25 -9 -39 -10 -32 -1 8 -8 11
-20 7 -28 -9 -32 5 -20 71 15 79 56 170 99 218 19 22 28 37 20 34 -22 -7 -93
-116 -112 -173 -10 -27 -20 -70 -22 -94 -3 -24 -7 -45 -8 -47 -2 -1 -35 6 -73
17 -39 10 -94 24 -124 30 -29 6 -65 15 -80 21 -14 6 -35 12 -46 13 -11 2 -63
15 -115 29 -52 15 -126 33 -164 42 -38 8 -77 19 -87 24 -23 13 -39 13 -39 0 0
-5 7 -10 15 -10 14 0 48 -9 220 -55 28 -8 88 -23 135 -35 47 -12 105 -28 129
-36 25 -8 52 -14 60 -14 9 0 45 -8 81 -19 36 -11 92 -26 125 -35 33 -8 92 -23
130 -34 50 -14 72 -16 77 -8 4 6 8 7 8 1 0 -10 64 -31 165 -56 28 -7 51 -13
53 -14 2 -2 -6 -29 -17 -61 -11 -33 -31 -98 -46 -145 -19 -64 -31 -88 -45 -92
-10 -3 -21 0 -22 5 -6 17 -72 -17 -92 -46 -10 -15 -24 -50 -32 -77 -8 -27 -22
-55 -30 -61 -64 -54 -74 -72 -74 -133 0 -42 6 -66 18 -81 26 -32 67 -55 86
-48 27 10 18 -13 -14 -36 -22 -15 -29 -27 -25 -40 4 -12 0 -22 -11 -28 -9 -5
-14 -15 -10 -21 4 -6 12 -8 18 -5 6 4 8 2 4 -4 -3 -6 -1 -14 5 -18 8 -4 7 -9
-2 -15 -23 -14 -32 -10 -18 8 12 14 12 16 -1 11 -9 -3 -14 -16 -13 -31 1 -18
-4 -28 -18 -32 -11 -4 -19 -11 -17 -17 2 -5 8 -8 13 -6 6 2 9 6 7 11 -1 4 2 7
7 7 5 0 23 13 39 29 24 22 28 31 19 40 -9 10 -8 16 7 27 15 11 17 17 8 26 -9
9 -7 15 6 25 15 12 14 13 -13 7 -23 -4 -27 -3 -15 5 8 6 27 8 43 5 16 -3 27
-1 27 5 0 17 12 13 66 -22 45 -28 50 -35 43 -57 -4 -14 -17 -60 -30 -102 l-24
-77 -62 35 c-34 18 -65 34 -70 34 -9 0 -31 -78 -32 -110 0 -8 -40 -134 -89
-280 -125 -373 -133 -400 -127 -421 4 -11 13 -19 21 -19 18 0 18 -8 -5 -72
-10 -29 -27 -80 -37 -113 -10 -33 -19 -61 -20 -63 -1 -2 -11 1 -23 7 -19 11
-19 13 -4 49 14 35 32 92 53 172 6 22 5 37 -1 41 -6 4 -1 35 16 85 148 454
198 600 207 605 7 4 6 9 -1 14 -7 3 -9 15 -6 24 4 12 -3 21 -22 30 -23 10 -25
10 -14 -3 22 -26 22 -64 1 -123 -12 -32 -23 -67 -26 -78 -5 -26 -33 -111 -51
-155 -7 -19 -15 -44 -17 -55 -2 -11 -11 -38 -19 -60 -8 -22 -32 -93 -53 -158
-30 -95 -40 -117 -53 -112 -9 4 -31 9 -48 12 -31 5 -34 3 -53 -42 -11 -25 -20
-53 -20 -60 0 -7 -9 -35 -20 -61 -12 -26 -19 -55 -18 -63 2 -9 21 37 42 102
22 64 43 117 48 117 10 0 12 6 -18 -75 -23 -63 -54 -156 -54 -162 0 -2 8 -3
18 -2 9 0 12 3 6 5 -7 3 -3 27 13 72 14 37 31 85 38 107 10 34 16 39 36 37 13
-2 26 -6 28 -8 4 -4 -11 -62 -34 -124 -26 -73 -35 -104 -30 -108 5 -5 35 66
35 83 0 7 7 30 16 51 9 21 18 50 21 64 5 29 8 33 21 29 9 -4 -47 -196 -67
-230 -7 -13 -2 -20 25 -32 37 -18 41 -28 22 -49 -7 -7 -15 -24 -16 -38 -2 -14
-6 -27 -8 -29 -1 -2 -36 13 -76 33 -63 32 -74 34 -84 21 -16 -22 -26 -18 -19
8 4 18 4 19 -6 6 -13 -17 -51 -12 -132 17 -20 8 -45 14 -55 14 -9 0 -46 8 -82
19 -118 35 -183 53 -204 56 -25 4 -122 30 -186 50 -25 8 -59 17 -76 20 -17 2
-50 11 -73 20 -23 8 -45 14 -49 13 -4 -1 -34 6 -67 16 -33 10 -69 20 -80 21
-11 2 -60 15 -110 29 -105 31 -181 48 -212 50 -11 0 -19 4 -16 9 2 4 -2 8 -9
8 -37 4 -58 9 -112 26 -61 19 -73 39 -21 36 26 -2 32 3 41 30 6 18 14 40 19
50 5 13 0 20 -24 30 -17 7 -29 15 -27 18 3 3 13 32 22 64 9 33 22 80 29 105
14 50 6 70 -27 70 -11 0 -28 4 -38 10 -17 9 -17 13 10 92 15 46 60 184 100
308 84 264 109 332 120 325 5 -3 16 -2 24 1 15 6 15 9 2 30 -15 21 -14 23 5
29 14 5 19 13 16 26 -3 10 1 23 8 29 7 6 11 19 8 29 -3 10 0 22 6 25 6 4 11 2
11 -3 0 -6 6 -11 13 -11 8 0 36 -12 63 -26 48 -25 157 -63 201 -69 11 -2 30
-6 41 -9 23 -8 24 -4 78 164 20 63 51 160 70 214 19 55 33 100 31 101 -33 25
-133 75 -156 78 -16 3 -46 10 -65 17 -31 10 -36 16 -36 41 0 31 -40 79 -66 79
-7 0 -15 4 -19 9 -6 11 24 91 35 91 29 0 70 -15 70 -25 0 -18 28 -27 49 -15
18 9 37 92 25 111 -8 13 -31 11 -46 -5 -12 -11 -19 -11 -45 3 l-31 16 14 54
c8 30 17 57 19 59 2 3 24 -1 47 -7 24 -7 50 -13 58 -15 8 -2 22 -5 30 -8 20
-8 117 -33 224 -59 50 -11 96 -24 105 -27 9 -3 12 -1 7 6 -4 7 -16 12 -27 12
-10 0 -19 3 -19 6 0 3 16 53 36 112 19 59 37 115 39 125 11 53 40 117 52 117
2 0 13 -5 24 -11z m129 -8 c0 -10 -50 -25 -57 -17 -3 2 -2 9 2 15 8 13 55 15
55 2z m-544 -153 c-18 -26 -22 -17 -5 14 6 11 13 17 16 15 3 -3 -2 -16 -11
-29z m1597 -128 c118 -64 117 -63 111 -178 -3 -53 -10 -124 -16 -157 -5 -33
-15 -103 -23 -155 -7 -52 -18 -117 -24 -144 -7 -27 -13 -65 -16 -85 -4 -44
-40 -212 -55 -261 -6 -19 -13 -42 -15 -50 -66 -265 -76 -302 -90 -335 -7 -16
-23 -64 -35 -105 -30 -101 -49 -157 -70 -205 -10 -22 -27 -65 -38 -95 -11 -30
-37 -93 -58 -140 -68 -158 -125 -295 -134 -320 -4 -14 -22 -53 -39 -88 -17
-34 -31 -66 -31 -71 0 -9 -35 -96 -50 -123 -6 -10 -14 -34 -19 -55 -5 -21 -21
-69 -36 -108 -25 -67 -37 -103 -67 -205 -25 -87 -32 -90 -192 -90 -78 0 -197
7 -266 15 -69 8 -164 19 -211 24 -96 10 -169 29 -169 43 0 5 9 7 19 3 31 -10
62 -16 131 -25 36 -5 90 -14 120 -20 66 -13 436 -31 484 -23 26 4 37 13 50 39
9 19 16 41 16 48 0 7 7 28 16 46 9 17 17 60 19 94 2 53 1 57 -8 29 -5 -18 -14
-33 -18 -33 -7 0 6 41 34 110 4 8 4 -1 1 -20 -7 -41 -1 -38 14 8 6 19 7 30 2
27 -6 -4 -10 -1 -10 4 0 6 9 11 20 11 25 0 25 -2 1 -48 -10 -20 -21 -53 -24
-72 l-6 -35 14 30 c8 17 14 36 15 43 0 7 7 26 15 42 8 15 17 45 19 65 3 20 9
42 14 48 5 7 22 44 37 82 15 39 41 99 57 135 17 36 30 76 30 90 0 14 9 31 19
38 11 7 19 19 19 27 0 7 24 68 54 134 30 67 52 121 50 121 -2 0 8 24 22 52 36
71 65 158 57 171 -3 6 -1 7 5 3 7 -4 12 -3 12 2 0 5 -9 12 -20 15 -30 8 -25
29 6 25 29 -3 24 -13 99 227 20 66 43 139 51 161 8 23 16 50 19 61 2 12 10 42
19 67 9 26 16 56 16 66 0 11 16 80 35 154 39 152 42 174 19 183 -14 5 -14 8 5
22 20 15 28 45 45 168 2 15 11 74 20 130 17 109 21 217 6 158 -4 -16 -8 -52
-9 -78 0 -27 -6 -79 -12 -117 l-12 -69 -24 16 c-18 12 -23 22 -18 40 4 19 0
25 -20 33 -28 11 -29 14 -15 40 5 10 11 39 14 65 3 43 1 48 -27 65 -17 11 -35
16 -40 13 -6 -3 -7 -2 -4 4 6 10 -40 38 -56 34 -5 -1 -6 3 -2 9 3 5 2 10 -2
10 -7 0 33 144 44 159 1 2 28 -21 60 -52 31 -31 59 -54 62 -52 2 3 -18 25 -45
51 -42 39 -45 43 -18 30 17 -8 34 -13 37 -9 3 3 27 -8 52 -23 36 -23 45 -35
45 -57 0 -27 0 -27 -29 -13 -32 17 -41 13 -41 -18 0 -12 -6 -45 -14 -74 -11
-44 -11 -52 0 -52 9 0 14 11 14 29 0 15 3 49 6 74 l7 46 28 -14 c15 -8 29 -25
31 -37 2 -13 5 2 6 33 1 63 -1 67 -83 115 -62 36 -88 47 -80 34 9 -15 -11 -12
-24 4 -11 13 -7 19 17 25 2 1 35 -17 75 -39z m-1787 -15 c-23 -54 -20 -72 14
-90 17 -9 30 -13 30 -9 0 4 7 1 15 -6 27 -23 11 -31 -67 -34 l-76 -3 46 93
c46 92 68 121 38 49z m1523 -22 c9 -18 21 -31 28 -28 17 6 5 -22 -13 -29 -8
-3 -14 1 -14 8 0 7 -9 21 -20 31 -26 23 -65 12 -89 -25 -15 -24 -14 -24 13 3
16 15 38 27 50 27 19 -1 18 -2 -7 -18 -39 -23 -78 -103 -85 -174 -2 -32 -9
-58 -13 -58 -14 0 -10 60 7 120 9 30 16 66 16 80 0 46 56 103 97 97 8 -1 21
-17 30 -34z m242 20 c13 -15 12 -15 -8 -4 -24 12 -29 21 -14 21 5 0 15 -7 22
-17z m-252 -70 c7 -13 4 -20 -12 -28 -33 -16 -62 -82 -62 -142 0 -54 -2 -57
-29 -47 -36 14 -6 151 44 204 32 34 45 37 59 13z m426 0 c13 -12 16 -27 12
-57 -3 -23 -11 -99 -17 -171 -7 -71 -20 -173 -30 -225 -10 -52 -19 -111 -19
-130 -1 -19 -15 -90 -31 -157 -16 -68 -32 -138 -34 -156 -2 -18 -18 -82 -36
-142 -18 -61 -36 -123 -40 -140 -22 -87 -52 -190 -57 -198 -3 -5 -9 -23 -13
-41 -5 -17 -18 -56 -30 -86 -12 -30 -33 -90 -46 -133 -14 -43 -41 -110 -61
-149 -19 -39 -36 -76 -37 -82 -1 -6 -10 -28 -19 -50 -9 -21 -17 -41 -17 -43 0
-3 -13 -33 -30 -67 -32 -68 -110 -257 -110 -269 0 -4 -10 -29 -21 -55 -29 -63
-42 -96 -69 -167 -12 -33 -26 -69 -31 -80 -14 -33 -46 -125 -69 -202 -12 -40
-25 -73 -29 -73 -4 0 -13 6 -21 13 -8 6 -6 2 5 -11 16 -20 17 -25 5 -32 -24
-16 -394 -11 -485 5 -44 8 -97 15 -118 15 -50 0 -219 38 -232 52 -7 8 -4 9 10
3 62 -23 526 -75 667 -75 l97 0 25 33 c14 19 39 78 56 133 30 101 97 295 120
349 28 66 38 91 45 113 4 13 20 50 36 82 16 33 29 64 29 70 0 7 7 24 15 38 8
15 21 45 29 67 11 33 18 40 37 38 23 -3 23 -2 5 12 -18 14 -18 16 12 77 16 35
42 95 57 133 15 39 33 84 41 102 8 17 14 34 14 37 0 3 9 25 19 49 23 48 48
125 55 161 2 14 20 69 39 123 20 54 42 125 50 158 8 33 22 89 31 125 43 168
56 223 75 325 12 61 27 133 32 160 6 28 15 84 19 125 5 41 16 126 25 189 9 63
15 138 13 168 -3 57 1 63 27 36z m-1837 -66 c-11 -36 -28 -50 -28 -24 0 8 -4
7 -10 -3 -5 -8 -10 -10 -10 -5 0 6 11 22 25 37 29 31 31 40 10 32 -8 -4 -15
-2 -15 4 0 15 24 21 32 7 4 -6 2 -28 -4 -48z m1961 -80 c1 -45 -7 -165 -18
-266 -10 -102 -17 -193 -15 -204 3 -18 -16 -125 -53 -297 -9 -41 -18 -88 -19
-105 -2 -16 -11 -55 -19 -85 -9 -30 -22 -77 -30 -105 -8 -27 -16 -62 -19 -76
-2 -14 -14 -62 -26 -105 -21 -73 -30 -100 -65 -194 -7 -19 -21 -57 -30 -83
-13 -37 -20 -45 -30 -37 -10 8 -7 24 14 78 15 37 39 110 55 162 15 52 37 118
47 145 10 28 19 57 19 65 0 8 7 35 16 60 9 25 18 65 21 90 3 25 12 62 19 84 8
21 14 49 14 61 0 13 6 50 14 82 40 170 87 574 85 728 -2 67 -3 59 -9 -50 -9
-142 -32 -353 -56 -510 -15 -97 -20 -125 -63 -320 -11 -49 -22 -102 -25 -116
-6 -38 -36 -138 -52 -179 -8 -19 -17 -48 -19 -65 -3 -16 -11 -46 -19 -65 -7
-19 -24 -69 -37 -110 -31 -100 -46 -124 -68 -108 -14 11 -14 10 1 -7 16 -19
15 -20 -13 -22 -28 -2 -29 -1 -25 41 3 24 19 83 36 132 17 49 35 109 40 133 6
24 14 49 19 55 5 6 19 45 31 86 11 41 30 104 40 140 26 86 90 365 90 387 0 10
6 50 15 88 21 100 51 306 71 482 l17 153 22 -30 c18 -25 23 -45 24 -113z
m-522 101 c-3 -8 -6 -5 -6 6 -1 11 2 17 5 13 3 -3 4 -12 1 -19z m-33 -40 c-5
-18 -8 -46 -7 -61 0 -19 -3 -24 -8 -15 -8 13 -13 -3 -12 -39 1 -7 -3 -10 -9
-7 -5 3 -8 32 -6 64 2 32 6 56 9 54 4 -2 9 5 12 16 3 11 10 20 17 20 8 0 9
-10 4 -32z m19 -8 c-3 -12 -8 -19 -11 -16 -5 6 5 36 12 36 2 0 2 -9 -1 -20z
m-1660 -58 c-12 -19 -23 -39 -23 -44 0 -12 -34 -88 -77 -173 -58 -115 -61
-159 -11 -212 11 -12 18 -29 15 -37 -4 -9 0 -22 8 -30 8 -8 15 -19 15 -25 0
-15 -20 -14 -20 2 -1 6 -10 -9 -22 -36 -19 -44 -20 -49 -4 -66 16 -17 16 -19
0 -25 -10 -4 -14 -13 -11 -25 5 -19 -27 -46 -43 -36 -17 11 -11 27 8 21 11 -4
19 -1 20 6 0 7 3 24 6 38 5 21 4 20 -5 -3 -8 -21 -16 -26 -28 -22 -9 4 -21 9
-27 11 -11 5 -30 -31 -38 -71 -2 -11 -7 -28 -11 -37 -10 -26 22 -35 40 -12 8
11 15 14 15 7 0 -6 -5 -15 -10 -18 -6 -4 -10 -12 -8 -18 3 -21 -13 -77 -23
-77 -5 0 -17 4 -27 9 -9 5 -25 12 -35 15 -15 5 -16 9 -3 43 7 21 22 65 31 98
29 94 63 193 79 224 9 16 13 31 10 33 -2 3 3 22 11 42 9 21 15 42 13 48 -2 5
-14 -21 -27 -59 -12 -37 -29 -81 -36 -98 -8 -16 -23 -61 -35 -100 -11 -38 -32
-106 -45 -149 -25 -78 -23 -95 8 -96 5 0 7 -6 4 -12 -2 -7 -13 -12 -24 -10
-17 2 -24 -6 -36 -45 -27 -84 -98 -391 -102 -438 -1 -11 -5 -30 -9 -42 -5 -16
-3 -23 5 -23 8 0 7 -6 -4 -18 -9 -10 -21 -41 -26 -68 -5 -27 -14 -62 -20 -77
-6 -15 -13 -42 -16 -60 -3 -18 -11 -50 -17 -72 -6 -22 -11 -47 -12 -55 -2 -8
-8 -28 -15 -45 -7 -16 -17 -50 -23 -75 -6 -25 -17 -60 -24 -78 -8 -18 -14 -41
-14 -50 0 -10 -14 -56 -30 -102 -18 -48 -27 -87 -22 -92 17 -17 207 -116 357
-185 33 -15 53 -29 44 -31 -9 -2 -45 11 -79 27 -34 17 -68 28 -74 24 -6 -3 -8
-3 -4 2 10 10 -121 77 -136 68 -6 -3 -8 -2 -3 2 4 5 -5 15 -20 22 -16 7 -45
24 -66 38 -20 14 -37 22 -37 18 1 -17 135 -96 318 -187 106 -53 197 -96 203
-96 6 0 31 -9 56 -21 25 -11 56 -19 69 -16 13 2 21 0 18 -5 -3 -4 8 -22 25
-38 16 -17 28 -30 27 -30 -2 0 -46 16 -97 36 -52 20 -110 42 -130 49 -63 24
-342 162 -382 189 -21 14 -52 33 -70 42 -44 23 -48 32 -42 84 6 43 12 66 40
155 56 176 89 283 91 300 4 28 40 165 52 196 6 14 13 43 16 64 4 21 13 61 20
89 20 75 46 195 51 241 5 40 23 107 52 199 8 27 17 61 19 75 3 14 11 44 18 66
7 22 23 74 36 115 12 41 26 89 32 105 46 140 72 211 79 219 5 6 9 18 9 28 0
10 4 26 10 36 5 9 21 49 36 87 27 70 59 143 117 268 23 48 33 63 38 50 3 -10
-4 -31 -18 -51z m69 51 c-5 -10 -7 -24 -5 -30 3 -7 0 -13 -6 -13 -6 0 -11 9
-11 20 0 11 -4 20 -10 20 -5 0 -10 5 -10 10 0 6 11 10 25 10 21 0 24 -3 17
-17z m-25 -53 c3 -11 17 -23 32 -26 64 -16 98 -90 44 -96 -22 -2 -30 -10 -38
-42 -11 -40 -28 -56 -39 -37 -3 5 0 22 8 38 25 50 47 105 43 109 -4 4 -31 -48
-51 -97 -12 -32 -19 -37 -53 -41 -21 -3 -46 -8 -55 -12 -16 -7 3 45 75 202 13
27 27 28 34 2z m1540 -32 c-2 -13 -4 -5 -4 17 -1 22 1 32 4 23 2 -10 2 -28 0
-40z m69 -25 c-3 -8 -6 -19 -6 -24 0 -5 -9 -9 -20 -9 -18 0 -19 3 -10 20 6 11
8 24 5 29 -3 5 4 7 16 4 12 -4 18 -11 15 -20z m77 -34 c60 -32 73 -45 35 -34
-35 10 -108 49 -108 57 0 14 15 9 73 -23z m-1488 -76 c28 -10 50 -22 50 -28 0
-9 -6 -28 -49 -150 -10 -27 -20 -59 -21 -70 -2 -11 -19 -64 -38 -118 -20 -54
-36 -101 -37 -105 -1 -8 -21 -5 -56 8 l-23 9 21 48 c11 26 28 58 36 71 8 12
11 22 7 22 -4 0 0 11 8 23 9 13 27 51 40 83 14 32 37 85 51 116 l25 57 -62 19
c-34 11 -66 17 -71 14 -5 -3 -22 -32 -37 -66 -25 -51 -29 -55 -24 -26 5 29 4
32 -6 17 -6 -11 -9 -31 -7 -46 4 -27 3 -27 -24 -17 -21 8 -26 15 -22 32 8 29
-32 41 -46 13 -6 -10 -19 -19 -29 -19 -20 0 -35 -25 -25 -41 3 -5 11 -9 18 -9
8 0 11 -10 8 -30 -4 -25 -1 -30 16 -30 12 0 23 9 27 20 4 12 15 20 27 20 27 0
16 12 -14 15 -38 4 -39 5 -34 13 4 7 51 8 66 2 3 -1 8 -2 12 -1 8 1 -5 -47
-28 -99 -20 -45 -23 -46 -68 -25 -61 29 -82 100 -50 168 25 52 65 71 134 64
l59 -7 16 44 17 43 41 -8 c23 -5 65 -17 92 -26z m1637 -118 c-19 -58 -39 -105
-44 -105 -6 0 -7 8 -3 18 4 9 20 59 37 109 17 51 34 91 38 88 4 -2 -9 -52 -28
-110z m-1691 83 c44 -13 44 -14 3 -103 -13 -27 -50 -108 -82 -180 -50 -109
-63 -130 -85 -136 -15 -4 -25 -3 -22 1 3 5 -8 13 -25 17 -37 10 -36 6 -3 80
14 32 38 87 52 123 41 99 100 210 112 210 7 0 29 -5 50 -12z m169 -14 c22 -15
40 -29 40 -32 0 -3 -15 -51 -34 -107 -19 -55 -51 -155 -73 -222 -21 -68 -41
-123 -46 -123 -4 0 -25 12 -47 26 -33 22 -37 29 -30 47 4 12 25 76 45 142 21
66 44 135 51 153 8 18 14 38 14 45 0 14 31 97 37 97 2 0 21 -12 43 -26z m1552
-46 c-10 -10 -10 -8 -2 37 1 6 4 2 7 -9 3 -10 0 -23 -5 -28z m39 5 c3 -33 -2
-118 -7 -146 -5 -26 -7 -27 -23 -13 -10 9 -23 16 -29 16 -15 0 -15 6 -1 70 9
44 14 50 37 51 15 0 21 3 15 6 -15 6 -17 33 -3 33 6 0 11 -8 11 -17z m-1959
-25 c-5 -22 -19 -32 -26 -19 -9 14 3 38 18 38 8 0 11 -8 8 -19z m-42 -28 c0
-5 -9 -10 -21 -10 -11 0 -17 5 -14 10 3 6 13 10 21 10 8 0 14 -4 14 -10z m20
-34 c0 -15 -14 -35 -21 -30 -15 9 -10 34 6 34 8 0 15 -2 15 -4z m1901 -32 c-9
-33 3 -52 32 -46 9 2 17 -1 17 -7 0 -16 -21 -24 -33 -12 -21 21 -54 13 -61
-14 -4 -14 -11 -25 -17 -25 -6 0 -9 6 -6 13 19 45 33 67 43 67 6 0 14 14 18
32 3 17 8 29 11 26 3 -2 1 -18 -4 -34z m59 -105 c0 -13 -22 -22 -29 -12 -9 14
-52 36 -58 29 -5 -5 56 -46 70 -46 13 0 8 -44 -12 -106 -11 -32 -22 -76 -26
-96 -3 -21 -8 -38 -11 -38 -13 0 -102 65 -98 72 5 7 -76 48 -95 48 -16 0 -13
14 14 73 19 39 35 58 60 70 24 11 35 13 35 5 0 -6 3 -8 7 -5 3 4 12 2 19 -4
11 -9 15 -7 20 7 14 39 23 43 64 27 22 -9 40 -20 40 -24z m-1960 11 c5 0 0
-22 -12 -50 -20 -49 -38 -65 -38 -35 0 9 7 18 15 22 14 5 14 8 0 29 -18 27
-11 48 12 40 8 -3 19 -6 23 -6z m1780 0 c0 -5 -6 -10 -13 -10 -18 0 -60 -46
-64 -68 -4 -30 -33 -92 -42 -92 -5 0 4 30 19 68 19 48 36 73 60 90 37 25 40
26 40 12z m-1848 -117 c-22 -18 -25 -10 -10 22 11 24 13 25 19 8 4 -11 1 -23
-9 -30z m240 -69 c52 -21 73 -37 38 -31 -45 8 -145 39 -154 47 -14 14 69 2
116 -16z m1566 2 c35 -18 67 -63 76 -106 4 -21 3 -31 -3 -25 -5 6 -11 24 -14
40 -4 27 -4 26 -6 -8 -1 -25 4 -40 14 -43 8 -4 15 -10 15 -15 0 -11 -23 -7
-33 6 -4 6 -6 -1 -5 -15 2 -14 -2 -25 -9 -25 -7 0 -12 -3 -10 -6 1 -3 -4 -13
-11 -22 -10 -11 -27 -15 -65 -12 -68 4 -85 12 -102 46 -35 67 -9 145 60 179
48 24 58 24 93 6z m-1898 -36 c-9 -16 -8 -20 6 -20 9 0 18 -9 21 -21 4 -16 8
-17 14 -7 7 10 9 8 9 -6 0 -10 -5 -16 -12 -13 -49 18 -56 17 -61 -4 -3 -11
-10 -18 -16 -14 -8 4 -6 15 4 35 8 16 15 38 15 50 0 11 7 20 15 20 13 0 14 -4
5 -20z m2043 -106 c-2 -30 -38 -175 -49 -192 -3 -5 -79 42 -82 50 -2 4 -10 8
-18 8 -8 0 -14 5 -14 10 0 6 6 10 13 10 8 0 33 18 56 39 42 39 43 41 39 95
l-4 56 30 -19 c27 -15 31 -23 29 -57z m-87 -62 c-18 -16 -18 -16 -6 6 6 13 14
21 18 18 3 -4 -2 -14 -12 -24z m-2007 -31 c16 -10 6 -31 -15 -31 -8 0 -12 5
-9 10 3 6 1 10 -5 10 -6 0 -8 5 -5 10 8 12 16 12 34 1z m1915 -17 c6 -16 0
-34 -12 -34 -4 0 -7 11 -7 25 0 28 10 33 19 9z m-1949 -16 c14 -6 25 -17 25
-23 0 -14 -107 -342 -116 -357 -4 -6 -10 -6 -17 1 -6 6 -16 11 -21 11 -6 0 0
-7 12 -16 24 -16 23 -35 -4 -101 -10 -24 -18 -30 -34 -26 -14 4 -17 9 -11 22
5 9 12 39 16 66 7 60 30 164 55 260 11 39 22 82 25 97 8 44 24 78 34 78 6 0
22 -5 36 -12z m1890 -97 c-3 -6 -11 -8 -17 -5 -6 4 -5 9 3 15 16 10 23 4 14
-10z m60 -170 c28 -15 49 -34 48 -42 -10 -67 -19 -84 -45 -84 -15 -1 -25 2
-22 6 7 11 -46 40 -59 33 -7 -4 -9 -4 -5 1 4 4 4 13 0 19 -12 15 6 96 21 96 7
-1 35 -13 62 -29z m-42 -122 c26 -17 51 -28 56 -25 5 3 7 -3 4 -15 -4 -15 -12
-20 -29 -16 -13 2 -25 0 -27 -6 -1 -5 -22 0 -44 12 -40 20 -42 22 -32 51 6 16
14 30 18 30 4 0 28 -14 54 -31z m-44 -58 c19 -12 3 -33 -20 -26 -11 4 -19 2
-19 -4 0 -6 3 -10 8 -9 4 2 21 -2 37 -9 17 -6 38 -14 47 -17 15 -4 16 -9 6
-31 -6 -14 -16 -25 -21 -25 -5 0 -5 6 2 13 8 11 7 18 -7 29 -21 19 -82 40 -82
29 0 -5 12 -11 28 -14 15 -4 33 -11 41 -16 17 -11 6 -31 -18 -31 -12 0 -23
-16 -35 -51 -17 -45 -20 -49 -34 -35 -13 12 -13 19 -2 46 7 17 10 33 7 36 -3
3 -11 -12 -18 -35 -7 -23 -16 -41 -21 -41 -4 0 -1 16 7 36 8 20 17 47 19 61 7
38 39 103 50 103 6 0 17 -4 25 -9z m37 -36 c1 -8 -4 -11 -11 -8 -8 2 -11 11
-8 19 6 16 16 11 19 -11z m-2044 -67 c-15 -15 -26 -4 -18 18 5 13 9 15 18 6 9
-9 9 -15 0 -24z m-7 -24 c13 -9 30 -12 36 -8 8 5 9 3 4 -6 -5 -9 -1 -11 16 -6
13 3 19 3 13 0 -7 -3 -9 -14 -6 -26 5 -20 5 -20 19 3 14 24 14 24 8 -6 -16
-81 -51 -195 -61 -195 -12 0 -11 24 1 55 38 95 42 110 30 132 -11 21 -12 19
-23 -28 -7 -28 -10 -55 -6 -60 3 -5 0 -9 -5 -9 -6 0 -10 -3 -9 -7 1 -5 -2 -23
-6 -40 -8 -33 -16 -37 -63 -34 -20 2 -41 -29 -35 -51 1 -5 -3 -8 -8 -8 -6 0
-10 2 -10 4 0 13 50 205 59 229 6 16 11 39 11 53 0 28 3 29 35 8z m2041 0 l22
-6 -26 -58 c-25 -56 -26 -57 -45 -39 -19 17 -19 19 -2 63 19 49 19 49 51 40z
m157 -59 c-8 -25 -17 -45 -20 -45 -4 0 2 25 18 68 16 42 18 22 2 -23z m-2146
-37 c-3 -8 -6 -5 -6 6 -1 11 2 17 5 13 3 -3 4 -12 1 -19z m1925 -9 c21 -11 21
-20 -6 -82 -10 -22 -12 -36 -6 -32 5 3 1 -10 -11 -29 -11 -20 -22 -41 -23 -48
-5 -34 -50 -127 -63 -132 -32 -13 -32 -14 38 189 33 95 48 163 30 134 -5 -8
-12 -26 -15 -40 -2 -13 -21 -69 -40 -124 -20 -55 -36 -101 -36 -103 0 -1 -2
-13 -6 -27 -7 -27 -12 -29 -33 -16 -12 8 -11 17 6 63 11 29 30 85 42 123 50
155 50 155 77 145 14 -6 34 -15 46 -21z m21 -64 c-3 -9 -8 -14 -10 -11 -3 3
-2 9 2 15 9 16 15 13 8 -4z m142 -34 c-8 -17 -13 -31 -10 -31 2 0 -8 -26 -24
-57 -16 -32 -46 -101 -66 -153 -21 -52 -48 -116 -61 -142 -13 -26 -24 -51 -24
-56 0 -5 -11 -34 -25 -63 -22 -48 -25 -38 -5 16 4 11 8 23 9 28 0 4 12 30 26
57 14 27 26 53 26 57 0 5 7 23 15 42 8 18 14 39 14 45 0 7 4 16 9 21 5 6 23
44 40 85 50 117 84 190 89 186 2 -2 -4 -18 -13 -35z m-2190 -78 c-15 -42 -43
-62 -31 -22 4 13 9 31 11 39 2 8 4 16 4 18 1 1 7 2 15 2 11 0 12 -6 1 -37z
m100 -2 c-14 -57 -13 -62 1 -28 17 37 34 49 34 22 0 -8 -5 -26 -12 -40 -9 -21
-17 -25 -36 -20 -13 3 -38 9 -54 12 -28 6 -29 8 -23 42 9 50 10 50 54 39 29
-7 38 -14 36 -27z m-149 -36 c-3 -8 -1 -15 4 -15 6 0 10 -4 10 -10 0 -5 -8 -7
-17 -4 -10 3 -1 -4 20 -16 41 -23 41 -24 11 -122 -8 -25 -17 -59 -20 -75 -3
-15 -7 -32 -8 -38 -1 -5 -7 -20 -14 -32 -7 -12 -12 -31 -12 -42 0 -11 -4 -23
-10 -26 -5 -3 -10 -17 -10 -31 0 -16 -6 -24 -17 -24 -15 0 -16 -2 -3 -9 8 -6
18 -7 22 -5 4 3 8 0 8 -6 0 -6 4 -9 9 -6 5 4 12 0 14 -6 4 -10 6 -10 6 0 1 7
-6 15 -14 18 -8 4 -15 14 -15 23 1 30 37 125 49 129 7 2 25 -4 39 -15 38 -26
101 -55 242 -108 25 -9 64 -25 88 -36 23 -10 49 -19 56 -19 8 0 27 -6 43 -14
23 -12 296 -105 353 -121 8 -2 40 -11 70 -19 30 -8 69 -20 85 -26 17 -7 44
-16 60 -20 17 -4 89 -23 160 -42 140 -38 209 -54 380 -89 61 -13 111 -24 113
-25 1 0 -2 -12 -7 -26 -7 -19 -19 -27 -48 -31 -48 -8 -474 19 -528 33 -22 5
-71 14 -109 20 -37 6 -80 16 -95 24 -31 17 -173 71 -181 70 -3 -1 -30 8 -60
18 -34 13 -85 21 -135 22 -52 1 -79 6 -78 13 1 6 -6 9 -16 6 -9 -2 -24 3 -32
13 -13 16 -12 16 10 5 13 -7 21 -9 17 -3 -6 10 -112 64 -134 68 -8 1 -22 10
-33 20 -15 13 -22 15 -31 6 -8 -8 1 -16 37 -32 26 -11 45 -23 42 -27 -4 -3
-48 14 -99 37 -51 23 -109 50 -130 59 -20 9 -34 20 -31 25 4 5 1 6 -5 2 -13
-8 -120 47 -139 71 -6 8 -15 15 -20 15 -21 3 -43 11 -43 17 0 3 7 19 15 35 9
16 17 37 19 45 2 9 6 23 9 31 4 8 13 40 21 70 8 30 19 69 26 85 6 17 13 43 15
59 4 30 32 96 42 96 3 0 3 -7 -1 -15z m72 -26 c30 -10 31 -11 16 -35 -15 -23
-15 -24 4 -24 12 0 24 -4 27 -10 3 -5 15 -10 26 -10 10 0 19 -5 19 -11 0 -5
-4 -8 -9 -4 -6 3 -18 -17 -27 -44 -17 -46 -20 -48 -42 -40 -14 5 -33 7 -42 4
-17 -5 -16 0 5 62 l24 68 -25 22 c-38 35 -31 41 24 22z m119 -96 c-22 -81 -41
-133 -48 -133 -5 0 -9 3 -9 8 0 13 35 116 43 130 12 18 19 15 14 -5z m1755 -7
c18 -26 11 -30 -26 -16 -33 12 -36 45 -3 34 12 -4 25 -12 29 -18z m-1698 2
c-2 -3 0 -8 6 -10 5 -2 -1 -32 -14 -70 -13 -37 -21 -69 -18 -72 2 -3 -9 -4
-26 -3 -26 2 -29 5 -26 30 2 15 11 52 20 81 14 45 21 53 40 52 12 0 20 -4 18
-8z m-103 -49 c-6 -16 -10 -18 -10 -7 -1 22 12 55 16 42 2 -6 -1 -22 -6 -35z
m216 18 c23 -1 38 -6 35 -11 -3 -5 5 -7 16 -4 12 4 20 2 16 -3 -4 -8 16 -13
38 -10 3 0 32 -8 63 -19 31 -11 60 -19 63 -18 4 1 24 -4 44 -11 21 -7 42 -10
47 -7 5 4 11 1 13 -5 2 -7 22 -12 45 -13 23 0 39 -5 35 -10 -3 -5 5 -7 16 -4
14 4 20 2 15 -5 -4 -6 2 -8 15 -5 12 4 20 3 17 -2 -2 -4 7 -8 20 -9 14 -1 36
-3 49 -4 13 -1 22 -6 18 -11 -3 -5 5 -7 16 -4 12 4 20 3 17 -2 -3 -4 8 -10 23
-12 15 -3 64 -15 109 -27 46 -12 88 -19 94 -15 8 5 9 3 4 -6 -6 -10 -3 -12 13
-8 12 3 22 2 24 -3 2 -5 22 -10 44 -12 23 -1 39 -6 36 -11 -3 -5 5 -7 16 -4
12 4 20 3 17 -2 -6 -10 104 -32 118 -23 6 4 7 1 2 -7 -6 -10 -3 -12 13 -8 12
4 20 2 16 -3 -3 -5 3 -9 13 -9 10 0 46 -9 81 -19 53 -17 64 -17 69 -5 7 19 34
17 61 -6 l23 -19 -26 -83 c-15 -46 -30 -93 -35 -104 -7 -17 -4 -24 13 -33 17
-8 3 -10 -64 -7 -48 2 -95 9 -105 14 -11 6 -41 13 -69 16 -27 3 -79 14 -114
25 -35 11 -67 19 -70 19 -14 -3 -82 15 -87 23 -3 5 -17 9 -32 9 -15 0 -39 7
-54 14 -16 8 -40 17 -55 20 -62 11 -490 158 -546 187 -10 5 -23 7 -29 3 -7 -4
-8 -3 -4 4 4 7 1 12 -9 12 -8 0 -37 9 -63 21 -41 18 -153 70 -159 74 -3 2 22
81 39 127 10 27 38 41 49 26 3 -5 24 -9 46 -11z m1588 -16 c3 -5 -3 -24 -14
-43 -10 -18 -34 -72 -52 -120 -18 -49 -34 -86 -36 -84 -2 2 10 43 27 92 16 49
30 91 30 94 0 3 5 20 11 38 11 32 23 40 34 23z m-1828 -64 c3 -6 1 -7 -5 -3
-7 4 -12 1 -13 -6 0 -9 -2 -9 -5 -2 -6 14 -44 6 -44 -8 0 -5 6 -8 13 -6 27 5
87 -13 87 -27 0 -19 -26 -19 -76 -1 -22 7 -45 11 -51 9 -8 -3 -13 4 -13 16 0
14 5 19 15 15 8 -4 15 -1 15 5 0 6 -6 11 -12 11 -8 1 -5 6 5 15 20 14 70 4 84
-18z m-19 -71 c30 -11 42 -12 51 -3 12 12 63 18 56 7 -2 -3 25 -18 58 -33 34
-16 91 -42 127 -59 36 -17 76 -32 89 -35 13 -2 32 -8 43 -14 10 -5 24 -7 31
-3 6 4 9 3 4 -1 -6 -7 56 -38 98 -49 6 -1 27 -10 49 -19 21 -9 47 -17 58 -17
10 0 35 -9 56 -19 20 -10 39 -19 42 -18 10 0 125 -34 178 -54 29 -10 63 -19
75 -19 12 0 35 -7 50 -15 15 -8 46 -16 67 -19 21 -3 48 -10 60 -16 12 -6 40
-13 62 -16 23 -3 46 -7 50 -10 19 -12 198 -37 272 -38 30 -1 40 3 42 17 1 9
-4 17 -11 17 -19 0 -29 20 -18 31 6 6 20 6 38 -1 25 -10 26 -12 12 -28 -16
-17 -17 -21 -17 -47 0 -9 -10 -16 -27 -16 -24 -2 -25 -2 -5 -6 12 -2 22 -8 22
-13 0 -6 -9 -6 -23 -1 -13 5 -36 7 -53 5 -28 -3 -28 -3 -4 6 21 8 17 9 -22 7
-27 -1 -48 1 -48 4 0 4 -26 9 -59 13 -32 4 -100 18 -152 32 -52 14 -112 29
-134 33 -22 5 -80 21 -130 36 -49 15 -119 36 -155 46 -36 11 -73 22 -82 24
-10 2 -32 10 -50 18 -42 19 -199 70 -215 70 -7 0 -10 4 -7 9 3 4 -1 8 -8 8
-11 0 -93 33 -233 94 -16 7 -63 30 -104 50 -40 20 -76 35 -79 32 -3 -3 42 -28
99 -56 105 -50 121 -68 26 -29 -127 51 -227 97 -227 103 0 8 2 8 48 -8z m349
-152 c-6 -6 -76 16 -82 26 -3 5 15 2 40 -7 25 -8 44 -17 42 -19z m1537 -33
c-8 -25 -20 -53 -25 -63 -6 -11 -13 -31 -15 -45 -3 -14 -14 -44 -24 -66 -21
-42 -25 -55 -13 -44 3 4 12 -1 20 -11 8 -9 11 -10 7 -3 -4 9 6 5 25 -8 30 -22
32 -26 26 -65 -9 -54 -73 -226 -92 -248 -21 -24 -108 -47 -202 -55 -87 -6
-281 11 -381 34 -36 8 -78 17 -95 19 -16 2 -50 10 -75 18 -25 7 -81 24 -125
36 -44 13 -102 31 -130 41 -27 10 -78 28 -112 40 -57 20 -75 39 -36 39 9 0 13
-3 9 -7 -6 -6 82 -36 144 -48 107 -22 188 -35 265 -45 50 -7 113 -16 140 -20
28 -5 138 -9 246 -9 108 -1 198 -4 202 -7 3 -3 30 -17 59 -30 29 -13 44 -17
34 -9 -19 15 -19 15 2 15 12 0 27 9 34 20 7 11 19 20 27 20 11 0 12 3 4 11
-11 11 13 101 45 162 14 28 25 83 14 72 -8 -8 -25 -54 -53 -143 -12 -41 -27
-71 -33 -69 -42 16 -58 18 -52 8 4 -6 16 -11 26 -11 42 0 34 -43 -11 -59 -18
-6 -31 -6 -34 0 -4 5 -18 9 -31 9 l-26 0 31 26 c17 14 31 34 31 44 0 10 5 22
10 25 6 3 10 17 10 30 0 13 4 26 9 30 5 3 12 20 16 38 9 42 50 159 70 197 9
16 15 33 15 37 -1 5 6 24 14 43 8 19 20 50 26 68 19 48 22 34 4 -17z m-1488
14 c10 -8 15 -14 9 -14 -5 0 -19 6 -29 14 -11 8 -15 15 -10 15 6 0 19 -7 30
-15z m1258 -72 c-8 -21 -17 -45 -19 -53 -8 -35 -26 -71 -33 -66 -14 8 38 156
54 156 12 0 12 -6 -2 -37z m-1489 -33 c3 -6 -1 -7 -9 -4 -18 7 -21 14 -7 14 6
0 13 -4 16 -10z m123 -66 c6 3 8 -2 6 -11 -5 -17 10 -26 101 -58 20 -7 20 -7
0 -15 -28 -12 -43 -12 -25 1 11 7 5 8 -21 3 -24 -4 -39 -2 -44 7 -6 9 -1 10
21 5 23 -5 25 -4 11 4 -9 6 -35 12 -57 13 -25 1 -35 4 -27 10 8 6 4 7 -11 4
-12 -3 -20 -1 -16 4 6 11 -44 32 -57 24 -5 -4 -17 -1 -26 5 -15 9 -14 10 6 4
17 -4 21 -3 16 6 -5 9 0 11 21 6 16 -3 36 -2 44 4 10 6 20 4 32 -6 9 -9 21
-13 26 -10z m-83 -32 c-3 -3 -11 0 -18 7 -9 10 -8 11 6 5 10 -3 15 -9 12 -12z
m349 -51 c17 -6 54 -17 82 -25 84 -25 144 -54 151 -73 3 -10 14 -27 24 -38 12
-13 15 -25 10 -34 -7 -11 -15 -10 -41 9 -22 16 -28 26 -21 33 14 14 14 37 0
37 -6 0 -9 -7 -6 -15 9 -21 -12 -29 -31 -12 -20 18 -202 79 -252 84 -52 5 -59
10 -53 33 5 19 11 21 55 16 28 -3 64 -10 82 -15z m16 -71 l25 -11 -25 6 c-14
3 -43 8 -65 11 l-40 6 20 -20 c11 -11 31 -23 45 -26 19 -5 17 -2 -10 13 -19
11 -31 20 -25 21 19 0 175 -55 175 -63 0 -5 -9 -6 -20 -2 -10 3 -29 1 -40 -5
-11 -6 -30 -8 -42 -4 -21 6 -21 7 3 19 22 12 21 13 -24 13 -38 -1 -56 5 -89
29 -23 17 -44 35 -45 40 -4 11 117 -9 157 -27z m125 -47 c60 -31 103 -63 84
-63 -30 0 -94 29 -94 42 0 7 -20 23 -45 36 -25 12 -34 20 -20 16 14 -3 48 -17
75 -31z"/>
<path d="M1194 3579 c-3 -5 1 -9 9 -9 8 0 28 -7 45 -15 29 -15 132 -45 152
-45 6 0 10 4 10 10 0 5 -17 12 -37 15 -21 3 -56 11 -78 18 -22 7 -43 11 -47 9
-5 -1 -8 2 -8 7 0 12 -39 21 -46 10z"/>
<path d="M1790 3572 c8 -5 53 -17 100 -26 47 -10 112 -27 144 -37 33 -10 69
-19 80 -19 12 0 59 -14 106 -30 46 -16 86 -27 88 -26 3 4 -74 36 -98 41 -8 2
-35 11 -59 19 -24 9 -53 16 -65 16 -11 0 -41 7 -65 16 -24 8 -81 22 -125 30
-45 8 -90 17 -101 20 -15 4 -16 3 -5 -4z"/>
<path d="M2430 3321 c0 -5 5 -13 10 -16 6 -3 10 -2 10 4 0 5 -4 13 -10 16 -5
3 -10 2 -10 -4z"/>
<path d="M2247 3123 c-4 -3 -7 -11 -7 -17 0 -6 5 -5 12 2 6 6 9 14 7 17 -3 3
-9 2 -12 -2z"/>
<path d="M2506 3064 c-7 -18 0 -34 15 -34 5 0 9 11 9 25 0 28 -15 34 -24 9z"/>
<path d="M1230 2755 c0 -9 5 -15 11 -13 6 2 11 8 11 13 0 5 -5 11 -11 13 -6 2
-11 -4 -11 -13z"/>
<path d="M1397 2723 c-12 -11 -8 -23 8 -23 8 0 15 7 15 15 0 16 -12 20 -23 8z"/>
<path d="M1850 2590 c0 -5 9 -10 21 -10 11 0 17 5 14 10 -3 6 -13 10 -21 10
-8 0 -14 -4 -14 -10z"/>
<path d="M2026 2551 c-4 -7 -5 -15 -2 -18 9 -9 19 4 14 18 -4 11 -6 11 -12 0z"/>
<path d="M856 2315 c-5 -15 -363 -517 -419 -589 l-31 -39 122 6 122 6 1 -277
c1 -152 1 -280 0 -284 0 -5 105 -8 235 -8 l237 0 -5 284 -5 284 22 5 c17 3 21
0 18 -14 -3 -9 0 -20 6 -24 18 -11 51 5 51 25 0 17 7 19 69 17 l69 -3 -149
196 c-82 107 -189 248 -237 312 -48 64 -90 117 -93 117 -4 1 -9 -6 -13 -14z
m189 -290 c93 -121 179 -232 193 -247 l26 -28 -98 0 -98 0 4 -285 3 -285 -155
-1 c-85 -1 -170 -2 -187 -4 l-33 -3 0 127 c0 69 -3 197 -7 284 l-6 157 -89 0
c-48 0 -88 2 -88 4 0 3 27 42 60 88 185 255 276 384 284 400 5 10 13 17 17 16
4 -2 82 -102 174 -223z m152 -328 c0 -7 -8 -14 -18 -14 -12 -1 -16 3 -12 13 7
18 30 19 30 1z"/>
<path d="M2302 2149 c-9 -14 -10 -25 -4 -31 15 -15 35 1 29 22 -3 13 0 17 9
13 8 -3 14 0 14 6 0 19 -35 12 -48 -10z m18 -19 c0 -5 -4 -10 -10 -10 -5 0
-10 5 -10 10 0 6 5 10 10 10 6 0 10 -4 10 -10z"/>
<path d="M1190 2140 c-6 -12 -13 -34 -15 -50 -4 -29 6 -37 70 -60 21 -8 26
-13 16 -19 -18 -11 -10 -45 12 -49 22 -4 33 25 18 50 -7 11 -8 25 -3 36 5 9
12 33 15 53 5 35 4 37 -26 42 -18 4 -42 9 -54 13 -16 4 -24 0 -33 -16z m44
-43 c-4 -17 -13 -27 -25 -27 -22 0 -25 29 -8 62 10 18 13 19 26 6 9 -10 12
-24 7 -41z m60 24 c-5 -3 -10 -22 -12 -41 -2 -19 -8 -39 -14 -45 -7 -7 -9 -6
-5 1 4 7 0 15 -9 18 -10 4 -13 2 -8 -7 5 -8 4 -9 -4 -2 -9 8 -9 20 0 47 8 28
16 36 35 36 14 0 21 -3 17 -7z m-8 -137 c-5 -14 -9 -15 -19 -5 -9 9 -9 14 3
21 18 11 24 6 16 -16z"/>
<path d="M2287 2086 c-16 -12 -16 -15 -1 -27 13 -10 17 -10 25 2 11 17 12 39
2 39 -5 0 -16 -7 -26 -14z"/>
<path d="M1612 2023 c-22 -59 -23 -80 -3 -86 11 -2 25 0 32 7 9 8 10 8 6 0 -8
-14 17 -26 37 -18 20 8 39 58 32 82 -4 11 -19 22 -34 25 -15 3 -34 8 -43 12
-11 4 -19 -2 -27 -22z m84 -14 c12 -10 4 -66 -9 -61 -4 1 -14 2 -23 2 -13 0
-15 7 -11 38 l6 37 -11 -32 c-6 -17 -18 -33 -28 -36 -15 -4 -17 -1 -10 24 5
16 12 33 15 39 8 12 52 5 71 -11z"/>
<path d="M2285 2030 c11 -5 15 -9 8 -9 -7 -1 -10 -8 -7 -16 4 -8 2 -15 -4 -15
-6 0 -12 6 -14 12 -3 7 -7 3 -10 -9 -4 -16 -2 -20 8 -16 8 3 14 1 14 -5 0 -5
-9 -12 -21 -15 -24 -6 -17 -27 9 -27 15 0 15 2 2 10 -10 7 -11 10 -2 10 12 0
20 15 36 68 6 18 4 22 -16 21 -22 0 -22 -1 -3 -9z"/>
<path d="M2360 1960 c0 -15 -41 -49 -60 -50 -8 -1 -4 -6 9 -11 13 -5 24 -8 25
-7 1 2 11 17 23 35 14 19 19 34 13 38 -6 3 -10 1 -10 -5z"/>
<path d="M1537 1933 c-4 -3 -7 -15 -7 -25 0 -14 6 -19 23 -16 29 4 38 48 9 48
-10 0 -22 -3 -25 -7z m27 -18 c-4 -8 -10 -15 -15 -15 -5 0 -9 7 -9 15 0 8 7
15 15 15 9 0 12 -6 9 -15z"/>
<path d="M2238 1913 c10 -4 10 -8 1 -19 -7 -8 -10 -17 -7 -20 3 -2 13 7 22 21
16 24 16 25 -6 24 -13 0 -17 -3 -10 -6z"/>
<path d="M1440 1635 c-16 -19 -6 -45 19 -45 23 0 35 28 20 46 -15 18 -24 18
-39 -1z m36 -17 c4 -7 3 -8 -4 -4 -7 4 -12 2 -12 -4 0 -6 -5 -8 -10 -5 -11 7
-4 25 10 25 5 0 12 -5 16 -12z"/>
<path d="M1743 1500 l-40 -120 34 -21 c19 -12 46 -32 58 -45 23 -23 42 -29 73
-25 8 1 19 -2 25 -7 19 -15 67 -24 67 -12 0 5 -3 10 -7 11 -5 0 -18 2 -30 3
-13 2 -34 15 -47 29 -14 15 -33 27 -42 27 -10 0 -15 3 -12 6 3 3 25 0 47 -7
23 -7 37 -15 31 -19 -8 -5 -7 -9 4 -13 8 -3 18 -2 21 3 4 6 12 10 18 10 7 0 6
-4 -3 -10 -14 -9 -9 -12 56 -35 13 -4 26 28 69 165 25 80 25 85 9 97 -10 7
-22 13 -28 13 -6 0 0 -7 12 -16 16 -11 20 -20 13 -32 -5 -9 -21 -60 -36 -112
-15 -52 -29 -97 -31 -99 -2 -2 -10 1 -17 7 -8 7 -16 9 -20 6 -3 -3 -3 9 0 27
2 17 10 37 16 44 7 6 18 40 25 76 7 35 19 76 26 90 13 26 13 27 -18 35 -17 4
-38 8 -46 9 -8 1 -24 6 -35 12 -11 6 -42 11 -67 11 -26 0 -56 3 -66 6 -17 6
-24 -9 -59 -114z m127 93 c11 3 20 1 20 -5 0 -6 7 -8 15 -4 8 3 15 0 15 -6 0
-7 13 -9 35 -5 24 4 40 1 50 -9 18 -19 19 -9 -5 -77 -11 -32 -17 -63 -14 -69
4 -7 3 -8 -4 -4 -7 4 -13 1 -13 -8 -3 -40 -19 -76 -32 -76 -7 0 -39 9 -72 19
-33 10 -74 18 -92 17 -17 -1 -29 2 -27 6 3 5 -2 8 -10 8 -21 0 -22 -4 20 120
l37 108 29 -10 c16 -6 37 -8 48 -5z m-74 -247 c7 -8 19 -16 25 -18 7 -2 10 -9
8 -16 -3 -8 -16 -1 -37 18 -18 16 -28 30 -22 30 6 0 18 -6 26 -14z m74 -36 c0
-5 -7 -7 -15 -4 -8 4 -15 8 -15 10 0 2 7 4 15 4 8 0 15 -4 15 -10z"/>
<path d="M1825 1530 c3 -5 1 -10 -4 -10 -6 0 -10 -3 -9 -7 0 -5 -7 -25 -16
-47 -19 -43 -19 -41 11 -50 19 -6 25 -1 37 27 7 19 17 48 21 66 6 29 5 31 -20
31 -15 0 -24 -4 -20 -10z m27 -25 c-2 -14 -11 -25 -19 -25 -12 0 -13 -3 -5
-13 8 -10 6 -13 -9 -13 -21 0 -25 11 -8 21 5 4 14 18 19 31 12 32 29 31 22 -1z
m-22 -75 c0 -5 -4 -10 -10 -10 -5 0 -10 5 -10 10 0 6 5 10 10 10 6 0 10 -4 10
-10z"/>
<path d="M1899 1488 c-20 -53 -20 -87 2 -98 16 -9 19 -6 24 17 4 16 13 43 21
62 17 37 17 36 -12 45 -18 5 -24 1 -35 -26z m41 -3 c0 -9 -6 -18 -13 -21 -7
-2 -12 -17 -11 -34 1 -21 -3 -30 -13 -30 -12 0 -13 3 -4 14 9 10 9 16 1 21 -8
5 -6 13 5 25 9 10 14 24 10 29 -3 6 1 11 9 11 9 0 16 -7 16 -15z"/>
<path d="M1515 1541 c-7 -12 12 -24 25 -16 11 7 4 25 -10 25 -5 0 -11 -4 -15
-9z"/>
<path d="M1490 1450 c0 -11 5 -20 10 -20 6 0 10 9 10 20 0 11 -4 20 -10 20 -5
0 -10 -9 -10 -20z"/>
<path d="M2690 3256 c0 -2 7 -7 16 -10 8 -3 12 -2 9 4 -6 10 -25 14 -25 6z"/>
<path d="M2730 3236 c0 -2 8 -10 18 -17 15 -13 16 -12 3 4 -13 16 -21 21 -21
13z"/>
<path d="M895 2979 c-4 -6 -5 -12 -2 -15 2 -3 7 2 10 11 7 17 1 20 -8 4z"/>
<path d="M2398 2365 c-9 -19 -16 -23 -35 -19 -20 5 -23 2 -23 -20 0 -16 6 -26
14 -26 9 0 16 -12 18 -27 4 -34 33 -43 41 -12 4 16 11 20 27 16 26 -7 50 30
29 44 -8 5 -20 9 -27 9 -10 0 -10 5 -1 21 9 17 8 23 -2 30 -22 14 -29 11 -41
-16z m31 -17 c-11 -21 -29 -24 -29 -5 0 17 6 24 24 24 11 0 13 -5 5 -19z m-51
-26 c2 -7 -3 -12 -12 -12 -9 0 -16 7 -16 16 0 17 22 14 28 -4z m80 -20 c2 -6
-2 -12 -10 -12 -23 0 -58 12 -58 20 0 13 63 5 68 -8z m-55 -32 c-3 -11 -9 -17
-14 -14 -14 8 -10 34 5 34 9 0 12 -7 9 -20z"/>
<path d="M2308 1623 c0 -5 -2 -21 -3 -38 -2 -16 -5 -41 -9 -55 -5 -20 -3 -19
8 5 18 42 28 95 16 95 -6 0 -11 -3 -12 -7z"/>
<path d="M275 884 c-10 -25 -20 -61 -22 -80 -4 -30 -2 -34 18 -34 12 0 37 -9
55 -21 19 -11 34 -18 34 -15 0 4 11 -1 25 -10 14 -9 25 -12 25 -8 0 5 5 1 11
-8 5 -10 16 -15 24 -12 8 4 15 1 15 -7 0 -14 13 -4 16 14 2 7 10 39 18 72 8
33 13 61 11 63 -5 5 -35 -90 -35 -110 0 -21 -9 -22 -47 -7 -22 9 -149 68 -160
74 -1 0 6 30 17 65 23 76 20 90 -5 24z"/>
<path d="M720 570 c0 -6 7 -10 15 -10 8 0 15 2 15 4 0 2 -7 6 -15 10 -8 3 -15
1 -15 -4z"/>
<path d="M504 1021 c3 -4 20 -14 38 -20 18 -7 47 -19 63 -26 17 -7 46 -20 65
-28 19 -9 58 -25 85 -37 28 -12 57 -23 65 -25 8 -2 40 -13 70 -25 77 -30 151
-56 255 -90 50 -16 110 -36 135 -44 77 -26 190 -55 190 -49 0 3 6 1 13 -4 6
-6 35 -15 62 -22 28 -7 75 -18 105 -26 30 -8 96 -21 145 -30 50 -9 98 -17 108
-19 9 -2 17 -1 17 4 0 4 -28 11 -62 14 -34 4 -71 12 -82 18 -11 6 -45 14 -75
18 -71 9 -142 27 -206 51 -28 10 -64 19 -80 19 -17 1 -41 7 -55 15 -14 8 -34
14 -45 15 -11 0 -42 8 -70 19 -74 27 -148 52 -165 55 -8 1 -32 10 -54 19 -21
9 -45 17 -53 17 -7 0 -24 7 -37 15 -13 9 -34 18 -47 20 -22 4 -53 16 -134 50
-16 7 -70 30 -120 50 -49 20 -98 41 -107 46 -22 11 -31 12 -24 0z"/>
<path d="M570 607 c0 -3 15 -10 32 -16 18 -6 28 -7 23 -2 -12 10 -55 25 -55
18z"/>
<path d="M930 390 c-13 -9 -13 -10 0 -10 8 0 22 5 30 10 13 9 13 10 0 10 -8 0
-22 -5 -30 -10z"/>
<path d="M2992 2170 c0 -14 2 -19 5 -12 2 6 2 18 0 25 -3 6 -5 1 -5 -13z"/>
</g>
</svg>
