<svg version="1.0" xmlns="http://www.w3.org/2000/svg" width="900" height="900" preserveAspectRatio="xMidYMid meet" style=""><rect id="backgroundrect" width="100%" height="100%" x="0" y="0" fill="none" stroke="none"/>
<metadata>
Created by potrace 1.10, written by Peter Selinger 2001-2011
</metadata>

<g class="currentLayer" style=""><title>Layer 1</title><path fill="none" fill-opacity="1" stroke="none" stroke-opacity="1" stroke-width="8" stroke-dasharray="none" stroke-linejoin="miter" stroke-linecap="butt" stroke-dashoffset="" fill-rule="nonzero" opacity="1" marker-start="" marker-mid="" marker-end="" d="M237,401.5 C237,302.88121546961327 329.6353591160221,223 444,223 C558.3646408839779,223 651,302.88121546961327 651,401.5 C651,500.11878453038673 558.3646408839779,580 444,580 C329.6353591160221,580 237,500.11878453038673 237,401.5 Z" id="svg_1"/><path fill="none" style="color: rgb(0, 0, 0);" stroke-width="8" stroke-dashoffset="" fill-rule="nonzero" marker-start="" marker-mid="" marker-end="" id="svg_3" d="M154.00976562325377,367.0788899172567 L288.3341389360012,232.75585937674623 L478.3061675739482,232.75585937674623 L612.6299610532296,367.0788899172567 L612.6299610532296,557.0520782221356 L478.3061675739482,691.3791675969078 L288.3341389360012,691.3791675969078 L154.00976562325377,557.0520782221356 L154.00976562325377,367.0788899172567 z"/><path fill="none" fill-opacity="1" stroke="#000000" stroke-opacity="1" stroke-width="8" stroke-dasharray="none" stroke-linejoin="miter" stroke-linecap="butt" stroke-dashoffset="" fill-rule="nonzero" opacity="1" marker-start="" marker-mid="" marker-end="" d="M211,515 C211,370.8011049723757 322.878453038674,254 461,254 C599.121546961326,254 711,370.8011049723757 711,515 C711,659.1988950276243 599.121546961326,776 461,776 C322.878453038674,776 211,659.1988950276243 211,515 Z" id="svg_2"/><path fill="none" fill-opacity="1" stroke="#000000" stroke-opacity="1" stroke-width="8" stroke-dasharray="none" stroke-linejoin="miter" stroke-linecap="butt" stroke-dashoffset="" fill-rule="nonzero" opacity="1" marker-start="" marker-mid="" marker-end="" d="M244.4285717010498,516.6970443725586 C244.4285717010498,399.2937240600586 344.00041007995605,304.1970443725586 466.9285717010498,304.1970443725586 C589.8567333221436,304.1970443725586 689.4285717010498,399.2937240600586 689.4285717010498,516.6970443725586 C689.4285717010498,634.1003646850586 589.8567333221436,729.1970443725586 466.9285717010498,729.1970443725586 C344.00041007995605,729.1970443725586 244.4285717010498,634.1003646850586 244.4285717010498,516.6970443725586 z" id="svg_4" class="selected"/><rect fill="none" stroke="#000000" style="color: rgb(0, 0, 0);" stroke-width="8" stroke-dashoffset="" fill-rule="nonzero" id="svg_6" x="253" y="460" width="427" height="105"/><rect fill="none" stroke="#000000" style="color: rgb(0, 0, 0);" stroke-width="8" stroke-dashoffset="" fill-rule="nonzero" id="svg_8" x="256" y="460.97044336795807" width="120" height="103" class=""/><path fill="none" fill-opacity="1" stroke="#000000" stroke-opacity="1" stroke-width="8" stroke-dasharray="none" stroke-linejoin="miter" stroke-linecap="butt" stroke-dashoffset="" fill-rule="nonzero" opacity="1" marker-start="" marker-mid="" marker-end="" d="M309,492 C309,490.3425414364641 310.5662983425414,489 312.5,489 C314.4337016574586,489 316,490.3425414364641 316,492 C316,493.6574585635359 314.4337016574586,495 312.5,495 C310.5662983425414,495 309,493.6574585635359 309,492 Z" id="svg_10"/><path fill="none" fill-opacity="1" stroke="#000000" stroke-opacity="1" stroke-width="8" stroke-dasharray="none" stroke-linejoin="miter" stroke-linecap="butt" stroke-dashoffset="" fill-rule="nonzero" opacity="1" marker-start="" marker-mid="" marker-end="" d="M566.4482758045197,514.1182265281677 C566.4482758045197,493.67624044418335 584.1250946521759,477.1182265281677 605.9482758045197,477.1182265281677 C627.7714569568634,477.1182265281677 645.4482758045197,493.67624044418335 645.4482758045197,514.1182265281677 C645.4482758045197,534.5602431297302 627.7714569568634,551.1182265281677 605.9482758045197,551.1182265281677 C584.1250946521759,551.1182265281677 566.4482758045197,534.5602431297302 566.4482758045197,514.1182265281677 z" id="svg_12" class=""/></g></svg>