<?xml version="1.0" standalone="no"?>
<!DOCTYPE svg PUBLIC "-//W3C//DTD SVG 20010904//EN"
 "http://www.w3.org/TR/2001/REC-SVG-20010904/DTD/svg10.dtd">
<svg version="1.0" xmlns="http://www.w3.org/2000/svg"
 width="282.000000pt" height="210.000000pt" viewBox="0 0 282.000000 210.000000"
 preserveAspectRatio="xMidYMid meet">
<metadata>
Created by potrace 1.10, written by Peter Selinger 2001-2011
</metadata>
<g transform="translate(0.000000,210.000000) scale(0.100000,-0.100000)"
fill="#000000" stroke="none">
<path d="M233 1963 c-4 -9 -2 -18 3 -20 22 -8 38 -22 31 -29 -3 -4 -14 -1 -23
7 -15 12 -17 12 -12 -1 2 -8 15 -15 29 -15 30 0 38 31 10 40 -28 9 -27 25 1
17 14 -3 19 -2 14 6 -11 18 -46 14 -53 -5z"/>
<path d="M385 1940 c0 -22 3 -40 8 -40 4 0 7 18 7 40 0 22 -3 40 -7 40 -5 0
-8 -18 -8 -40z"/>
<path d="M417 1967 c-6 -16 3 -67 12 -67 8 0 7 67 -1 75 -3 3 -8 0 -11 -8z"/>
<path d="M510 1940 c0 -22 4 -40 10 -40 5 0 9 8 7 18 -1 9 3 18 8 19 6 1 10
-7 9 -17 0 -11 3 -20 8 -20 4 0 8 12 8 26 0 17 -6 28 -20 31 -11 3 -17 9 -14
14 3 5 0 9 -5 9 -6 0 -11 -18 -11 -40z"/>
<path d="M612 1968 c-25 -25 -6 -68 29 -68 19 0 35 17 25 27 -3 3 -12 0 -21
-7 -12 -10 -16 -9 -21 4 -3 9 -3 23 0 32 5 13 9 14 21 4 17 -14 31 -8 20 9 -8
15 -38 14 -53 -1z"/>
<path d="M817 1973 c-4 -3 -7 -21 -7 -38 0 -31 1 -32 43 -33 43 -1 43 -1 39
28 -3 21 -10 30 -23 30 -11 0 -19 -4 -19 -10 0 -5 6 -7 13 -4 7 2 13 -4 14
-16 1 -11 -3 -20 -8 -20 -6 0 -7 5 -4 10 3 6 2 10 -4 10 -5 0 -13 -5 -16 -10
-12 -20 -24 1 -18 30 5 30 3 36 -10 23z"/>
<path d="M967 1967 c-6 -16 3 -67 12 -67 8 0 7 67 -1 75 -3 3 -8 0 -11 -8z"/>
<path d="M306 1935 c2 -11 4 -23 4 -27 0 -15 20 -8 20 7 0 8 -4 15 -9 15 -5 0
-11 6 -14 13 -2 6 -3 3 -1 -8z"/>
<path d="M334 1940 c3 -14 6 -28 6 -32 0 -20 19 -5 29 22 6 18 6 30 0 30 -5 0
-9 -8 -9 -17 0 -15 -2 -14 -16 3 -15 18 -15 18 -10 -6z"/>
<path d="M454 1945 c-13 -33 24 -63 41 -34 4 6 0 9 -11 7 -12 -2 -19 3 -19 12
0 9 7 14 19 12 11 -2 15 1 11 7 -9 16 -35 13 -41 -4z"/>
<path d="M684 1946 c-9 -24 4 -48 23 -44 12 2 18 12 18 28 0 29 -32 41 -41 16z
m31 -26 c-5 -8 -11 -8 -17 -2 -6 6 -7 16 -3 22 5 8 11 8 17 2 6 -6 7 -16 3
-22z"/>
<path d="M745 1929 c0 -16 3 -29 8 -29 4 0 7 9 7 19 0 11 5 23 10 26 6 4 10
-5 10 -19 0 -14 5 -26 11 -26 6 0 8 7 5 16 -3 9 -6 21 -6 29 0 7 -10 13 -22
13 -19 0 -23 -6 -23 -29z"/>
<path d="M910 1945 c-7 -8 -10 -22 -6 -30 6 -16 46 -21 46 -5 0 5 -7 7 -15 4
-10 -4 -15 0 -15 15 0 15 4 19 17 14 11 -4 14 -3 9 5 -10 16 -21 15 -36 -3z"/>
<path d="M1415 1775 c0 -31 4 -45 14 -45 8 0 11 6 7 16 -3 9 -6 29 -6 45 0 16
-3 29 -7 29 -5 0 -8 -20 -8 -45z"/>
<path d="M1460 1810 c0 -5 7 -7 15 -4 8 4 15 1 15 -5 0 -6 -5 -11 -12 -11 -9
0 -9 -3 0 -12 16 -16 15 -28 -3 -28 -8 0 -15 -4 -15 -10 0 -14 26 -12 38 3 16
20 3 77 -19 77 -11 0 -19 -4 -19 -10z"/>
<path d="M1550 1810 c0 -5 7 -7 15 -4 8 4 15 1 15 -5 0 -6 -5 -11 -12 -11 -9
0 -9 -3 0 -12 16 -16 15 -28 -3 -28 -8 0 -15 -4 -15 -10 0 -16 28 -12 38 6 14
26 2 74 -19 74 -11 0 -19 -4 -19 -10z"/>
<path d="M643 1793 c4 -6 66 -46 139 -89 l133 -79 -90 -6 c-50 -3 -106 -13
-126 -21 -52 -23 -104 -72 -130 -126 -24 -47 -24 -48 -24 -424 l0 -378 -100
-1 c-55 -1 -92 -3 -82 -6 14 -4 17 -17 17 -89 0 -54 -4 -83 -10 -79 -5 3 -7 0
-4 -9 3 -8 -2 -16 -13 -19 -10 -3 28 -5 85 -6 l102 -1 0 -120 c0 -81 4 -120
11 -120 7 0 10 14 7 35 l-4 36 140 -3 141 -3 6 -30 c4 -16 7 23 8 88 l1 117
318 0 318 0 53 26 c60 30 106 87 124 151 l11 42 63 7 c35 3 63 11 63 16 0 5
-15 6 -32 3 -144 -24 -591 -74 -617 -69 -60 12 -95 -52 -51 -96 43 -43 111 -4
96 55 -5 21 -3 25 14 25 17 0 19 -3 10 -19 -15 -28 4 -69 35 -77 33 -8 50 -1
71 30 15 24 15 28 0 51 -9 14 -15 25 -14 25 2 1 81 11 176 23 111 15 172 19
172 12 0 -21 -48 -111 -71 -132 -13 -12 -44 -31 -69 -42 -42 -19 -65 -21 -357
-21 l-313 0 0 25 c0 20 5 25 24 25 32 0 69 45 60 74 -8 28 -32 46 -62 46 -20
0 -22 3 -16 23 15 47 12 52 -43 55 -47 3 -51 1 -46 -16 2 -11 0 -23 -6 -26 -7
-5 -11 3 -11 18 0 14 -4 26 -9 26 -4 0 -6 -11 -3 -25 3 -21 0 -25 -18 -25 -19
0 -21 4 -16 25 5 20 3 25 -11 24 -10 0 -13 -3 -6 -6 10 -3 10 -9 0 -24 -9 -15
-23 -19 -70 -19 l-58 0 3 389 3 389 30 43 c37 53 98 96 148 105 33 5 37 4 37
-14 0 -13 -9 -22 -26 -26 -15 -4 -25 -8 -23 -9 2 -2 63 0 134 3 l130 6 -102 2
c-96 2 -103 3 -103 22 0 18 7 20 59 20 34 0 61 5 63 11 2 6 30 -5 66 -27 44
-26 60 -40 53 -47 -17 -17 -13 -52 9 -72 25 -23 173 -33 233 -17 30 8 37 8 37
-4 0 -9 -12 -14 -37 -15 -21 0 -32 -3 -25 -6 10 -4 10 -8 2 -19 -12 -14 -6
-34 11 -34 5 0 9 5 9 11 0 5 -4 7 -10 4 -15 -9 -12 11 3 23 10 8 16 6 26 -10
7 -11 8 -17 2 -13 -6 3 -11 1 -11 -4 0 -6 7 -11 15 -11 18 0 20 21 4 37 -8 8
37 12 175 13 l186 1 0 -165 0 -166 -92 56 c-51 31 -101 64 -112 73 -10 9 -20
15 -22 14 -11 -7 -74 41 -74 55 0 15 2 15 10 2 7 -11 10 -12 10 -2 0 8 9 12
23 10 15 -2 22 -10 22 -25 0 -30 20 -30 21 -1 2 39 -6 47 -39 43 -29 -4 -29
-4 -7 4 22 8 23 9 4 10 -11 1 -28 -7 -37 -17 -22 -24 -22 -62 -1 -62 9 0 12
-5 8 -12 -4 -6 -3 -8 3 -5 6 4 22 -2 34 -13 l24 -19 -33 9 c-48 13 -62 28 -62
65 0 63 70 88 109 39 17 -21 26 -25 66 -22 54 4 60 22 8 26 -21 2 -49 14 -66
28 -39 33 -81 31 -118 -5 -35 -35 -39 -86 -9 -123 22 -29 73 -43 101 -27 16 8
38 -1 124 -53 l105 -63 2 -190 3 -190 2 187 3 187 56 -35 c30 -19 60 -34 66
-32 6 2 -19 22 -55 43 l-67 39 0 168 0 168 44 0 c26 0 45 5 48 13 2 6 1 50 -2
97 -8 103 -13 95 -10 -17 l2 -83 -41 0 -41 0 0 80 c0 56 4 82 13 85 6 2 45 13
85 25 41 12 71 24 68 27 -5 5 -53 -6 -148 -33 -16 -5 -18 3 -19 63 -1 37 -3
60 -6 50 -4 -15 -7 -16 -21 -5 -12 10 -14 10 -8 1 6 -10 -28 -13 -153 -13
-101 0 -161 4 -161 10 0 6 -4 10 -9 10 -4 0 -7 -25 -6 -55 l2 -54 -176 -3
-175 -3 -146 89 c-151 92 -178 106 -167 89z m1017 -142 l0 -48 -47 -13 c-27
-7 -75 -21 -107 -31 -33 -11 -65 -19 -73 -19 -7 0 -13 -5 -13 -11 0 -6 8 -8
18 -5 63 19 75 19 69 2 -4 -9 -2 -16 3 -16 5 0 23 -13 40 -30 17 -16 33 -30
35 -30 2 0 10 10 16 23 6 12 8 19 4 15 -5 -5 -14 1 -22 12 -8 11 -24 25 -36
31 -16 8 -12 1 12 -25 46 -47 32 -47 -15 1 l-37 37 27 9 c31 10 45 1 88 -57
15 -21 28 -36 28 -32 0 14 -23 51 -47 77 l-24 26 40 11 41 10 0 -57 c0 -100
-1 -101 -87 -101 -65 0 -74 2 -71 18 2 11 -4 18 -19 20 -18 3 -23 -2 -23 -17
0 -19 -6 -21 -69 -21 l-68 0 -1 88 -1 87 53 -3 c50 -3 53 -5 48 -28 -2 -14 0
-24 7 -24 6 0 11 12 11 26 0 24 3 26 33 21 17 -3 41 -9 52 -12 20 -8 20 -8 0
8 -19 15 -18 16 15 11 19 -3 53 -1 75 4 31 8 3 10 -127 11 l-168 1 0 35 c0 28
3 33 17 28 11 -4 14 -3 9 5 -5 9 33 12 153 12 l161 0 0 -49z m-497 -51 c133 0
147 -2 147 -17 0 -16 -13 -18 -138 -17 -124 1 -141 4 -172 24 -29 18 -31 21
-10 16 14 -3 91 -6 173 -6z m133 -54 c17 -7 19 -57 2 -74 -8 -8 -50 -12 -123
-12 -121 0 -135 6 -135 52 0 30 9 35 28 16 6 -6 15 -8 19 -3 5 4 2 10 -4 12
-7 3 -13 8 -13 11 0 8 205 6 226 -2z m194 -96 c0 -5 -4 -10 -10 -10 -5 0 -10
5 -10 10 0 6 5 10 10 10 6 0 10 -4 10 -10z m-642 -757 c-2 -12 -14 -19 -36
-21 -27 -3 -32 0 -32 17 0 17 6 21 36 21 28 0 35 -3 32 -17z m-306 -128 l-3
-95 -75 0 -74 0 0 88 c0 60 3 82 10 72 5 -8 10 -10 10 -4 0 5 -5 15 -12 22 -9
9 6 12 68 12 l79 0 -3 -95z m298 87 c0 -5 -7 -23 -16 -41 -14 -29 -14 -34 0
-56 9 -13 16 -38 16 -55 0 -25 -4 -30 -25 -30 -20 0 -25 5 -25 24 0 15 7 26
18 29 13 4 11 5 -5 6 -19 1 -23 -4 -23 -29 0 -35 -17 -39 -73 -15 -64 27 -122
89 -142 153 l-6 22 140 0 c78 0 141 -4 141 -8z m-218 -128 c12 -12 37 -29 53
-37 30 -16 29 -16 -45 -17 l-75 0 0 80 0 80 21 -43 c12 -23 33 -52 46 -63z
m279 96 c37 -20 12 -96 -30 -88 -11 2 -17 16 -19 51 -3 50 7 59 49 37z m244 1
c-3 -5 5 -11 17 -13 33 -4 36 -42 4 -63 -46 -31 -97 25 -60 66 17 19 50 27 39
10z m163 -3 c18 -18 14 -53 -8 -73 -42 -38 -100 25 -59 66 22 22 49 25 67 7z
m-471 -55 c-3 -10 -5 -2 -5 17 0 19 2 27 5 18 2 -10 2 -26 0 -35z m3 -183 l0
-80 -131 0 c-93 0 -128 3 -123 11 4 7 0 9 -12 5 -17 -5 -19 0 -19 69 l0 75
143 0 142 0 0 -80z"/>
<path d="M1348 1553 c12 -2 32 -2 45 0 12 2 2 4 -23 4 -25 0 -35 -2 -22 -4z"/>
<path d="M619 627 c-6 -17 -8 -49 -3 -44 4 3 15 -5 26 -18 11 -14 24 -25 31
-25 6 0 -1 13 -16 28 -39 40 -33 49 6 10 27 -27 31 -35 19 -44 -10 -7 0 -10
40 -11 48 0 50 1 21 9 -18 5 -32 12 -31 16 5 14 -88 93 -93 79z"/>
<path d="M1520 1739 c0 -5 5 -7 10 -4 6 3 10 8 10 11 0 2 -4 4 -10 4 -5 0 -10
-5 -10 -11z"/>
<path d="M1962 1673 c-2 -40 0 -43 23 -43 14 0 25 4 25 9 0 5 -9 7 -19 4 -17
-4 -20 1 -24 34 l-4 38 -1 -42z"/>
<path d="M2020 1670 c0 -38 2 -40 30 -40 17 0 30 4 30 9 0 5 -9 7 -20 4 -14
-4 -20 0 -20 11 0 10 5 14 10 11 6 -3 16 -3 22 1 9 6 5 10 -12 15 -24 7 -24 7
-2 8 33 2 27 21 -8 21 -28 0 -30 -2 -30 -40z"/>
<path d="M2100 1670 c0 -37 2 -41 21 -38 30 4 47 33 33 56 -6 9 -21 18 -33 20
-19 3 -21 -1 -21 -38z m38 -2 c-5 -32 -28 -35 -28 -4 0 17 5 26 16 26 10 0 14
-7 12 -22z"/>
<path d="M2200 1670 c0 -38 1 -40 32 -40 17 0 28 3 24 7 -4 4 -15 8 -24 8 -13
0 -16 7 -14 33 2 18 -1 32 -7 32 -6 0 -11 -18 -11 -40z"/>
<path d="M2267 1673 c6 -52 13 -55 13 -5 0 23 -4 42 -9 42 -4 0 -6 -17 -4 -37z"/>
<path d="M2360 1670 c0 -22 4 -40 10 -40 5 0 9 8 7 18 -1 9 3 17 8 17 6 0 9
-8 8 -17 -2 -10 2 -18 7 -18 6 0 10 12 10 26 0 17 -6 28 -20 31 -11 3 -17 9
-14 14 3 5 0 9 -5 9 -6 0 -11 -18 -11 -40z"/>
<path d="M2427 1697 c-6 -16 3 -67 12 -67 8 0 7 67 -1 75 -3 3 -8 0 -11 -8z"/>
<path d="M2296 1674 c-9 -23 -7 -34 4 -34 6 0 10 10 10 22 0 17 3 19 12 10 8
-8 8 -15 -1 -26 -9 -11 -9 -15 1 -20 7 -3 2 -3 -12 0 -19 5 -22 3 -14 -6 22
-23 47 -7 51 33 3 34 1 37 -21 37 -13 0 -27 -7 -30 -16z"/>
<path d="M1802 1573 c-17 -6 -33 -49 -26 -68 8 -20 40 -19 48 1 8 20 -1 34
-22 34 -15 1 -15 2 2 15 21 16 20 25 -2 18z m8 -58 c0 -8 -4 -15 -10 -15 -5 0
-10 7 -10 15 0 8 5 15 10 15 6 0 10 -7 10 -15z"/>
<path d="M1873 1525 c-1 -28 3 -35 18 -35 15 0 18 7 17 35 -1 23 -4 31 -10 23
-6 -10 -10 -10 -16 -1 -5 8 -8 -1 -9 -22z m27 -15 c0 -5 -4 -10 -10 -10 -5 0
-10 5 -10 10 0 6 5 10 10 10 6 0 10 -4 10 -10z"/>
<path d="M653 1517 c-22 -18 -39 -40 -37 -49 4 -32 -18 -97 -35 -101 -14 -4
-14 -5 2 -6 16 -1 17 -24 17 -325 0 -301 -1 -325 -17 -328 -15 -3 -14 -5 5
-10 18 -5 22 -2 22 18 l0 24 121 0 c129 0 160 8 152 39 -4 17 -16 20 -76 23
-63 3 -213 -6 -179 -10 17 -3 15 -42 -3 -42 -13 0 -15 41 -15 313 0 171 4 326
9 342 4 17 30 52 55 78 26 26 45 51 41 57 -10 16 -21 12 -62 -23z m46 11 c-2
-2 -19 -16 -38 -33 -28 -25 -32 -26 -22 -8 11 22 37 42 55 43 5 0 7 -1 5 -2z
m161 -758 c0 -19 -7 -20 -105 -20 -98 0 -105 1 -105 20 0 19 7 20 105 20 98 0
105 -1 105 -20z"/>
<path d="M864 1405 c-2 -33 11 -33 14 0 1 14 -2 25 -6 25 -4 0 -8 -11 -8 -25z"/>
<path d="M912 1403 c3 -27 6 -28 62 -31 75 -4 85 0 79 32 -5 24 -9 26 -58 26
-50 0 -52 -1 -47 -25 2 -15 0 -25 -7 -25 -6 0 -11 11 -11 25 0 14 -5 25 -11
25 -6 0 -9 -12 -7 -27z m128 -3 c0 -17 -7 -20 -40 -20 -33 0 -40 3 -40 20 0
17 7 20 40 20 33 0 40 -3 40 -20z"/>
<path d="M1070 1415 c0 -8 5 -15 11 -15 5 0 7 5 3 12 -5 8 -2 9 9 5 10 -3 17
-2 17 3 0 6 -9 10 -20 10 -11 0 -20 -7 -20 -15z"/>
<path d="M1144 1405 c-4 -14 -4 -29 0 -32 3 -4 6 2 6 13 0 15 2 16 9 5 9 -14
51 -27 51 -15 0 3 -5 15 -11 26 -8 15 -8 19 0 14 6 -4 11 -2 11 3 0 22 -30 10
-31 -11 l0 -23 -9 23 c-12 29 -18 28 -26 -3z"/>
<path d="M1601 1283 c-1 -88 3 -133 10 -133 7 0 9 35 7 105 -2 86 0 105 11
105 12 0 12 2 -1 13 -9 6 -18 19 -21 27 -3 8 -6 -45 -6 -117z"/>
<path d="M1090 1389 c0 -5 -6 -7 -12 -3 -10 5 -10 4 -1 -6 6 -7 16 -9 22 -6
14 9 14 26 1 26 -5 0 -10 -5 -10 -11z"/>
<path d="M1457 1245 c-4 -8 -1 -18 5 -21 7 -4 14 -2 16 4 2 7 21 12 42 12 21
0 42 5 45 10 4 6 -15 10 -48 10 -39 0 -56 -4 -60 -15z"/>
<path d="M1350 1135 c0 -12 15 -15 81 -15 60 0 80 3 77 13 -3 8 -31 13 -81 15
-64 2 -77 0 -77 -13z m118 -2 c-21 -2 -55 -2 -75 0 -21 2 -4 4 37 4 41 0 58
-2 38 -4z"/>
<path d="M1353 1078 c2 -9 27 -13 77 -13 50 0 75 4 78 13 3 9 -17 12 -78 12
-61 0 -81 -3 -77 -12z m104 -5 c-20 -2 -52 -2 -70 0 -17 2 0 4 38 4 39 0 53
-2 32 -4z"/>
<path d="M1602 895 c3 -181 4 -190 23 -192 11 -1 13 0 5 3 -13 4 -15 31 -12
181 2 115 -1 180 -8 187 -7 7 -10 -45 -8 -179z"/>
<path d="M1820 1030 c0 -38 1 -40 32 -40 17 0 28 3 24 7 -4 4 -15 8 -24 8 -13
0 -16 7 -14 33 2 18 -1 32 -7 32 -6 0 -11 -18 -11 -40z"/>
<path d="M1887 1033 c6 -52 13 -55 13 -5 0 23 -4 42 -9 42 -4 0 -6 -17 -4 -37z"/>
<path d="M1980 1030 c0 -22 5 -40 11 -40 5 0 7 5 4 10 -3 6 -1 10 4 10 6 0 11
-4 11 -10 0 -5 5 -10 10 -10 7 0 7 6 1 18 -7 13 -6 23 1 30 16 16 -5 15 -21 0
-11 -11 -12 -9 -6 10 4 13 2 22 -4 22 -6 0 -11 -18 -11 -40z"/>
<path d="M2070 1030 c0 -22 5 -40 11 -40 5 0 8 4 4 9 -3 5 0 13 6 17 6 4 15 0
20 -8 9 -16 79 -23 79 -8 0 5 -7 7 -15 4 -11 -4 -15 0 -15 16 0 20 2 21 17 9
14 -12 16 -12 11 1 -8 25 -41 18 -48 -10 -6 -24 -6 -24 -17 -5 -9 16 -8 24 4
37 15 17 15 18 -1 18 -9 0 -19 -7 -22 -15 -4 -8 -10 -15 -15 -15 -4 0 -6 7 -3
15 4 8 1 15 -5 15 -6 0 -11 -17 -11 -40z"/>
<path d="M1915 1019 c0 -16 3 -29 8 -29 4 0 7 9 7 19 0 11 5 23 10 26 6 4 10
-5 10 -19 0 -14 5 -26 11 -26 6 0 9 12 7 27 -2 21 -9 28 -28 30 -21 1 -25 -3
-25 -28z"/>
<path d="M2200 1046 c0 -3 5 -17 10 -32 8 -21 8 -29 -2 -36 -10 -6 -9 -8 3 -8
9 0 22 16 32 40 16 42 13 51 -9 23 -13 -17 -13 -17 -14 0 0 14 -20 27 -20 13z"/>
<path d="M1350 1025 c0 -13 13 -15 77 -13 50 2 78 7 81 16 3 9 -17 12 -77 12
-66 0 -81 -3 -81 -15z m118 -2 c-21 -2 -55 -2 -75 0 -21 2 -4 4 37 4 41 0 58
-2 38 -4z"/>
<path d="M1350 975 c0 -12 15 -15 81 -15 60 0 80 3 77 13 -3 8 -31 13 -81 15
-64 2 -77 0 -77 -13z m107 -2 c-20 -2 -52 -2 -70 0 -17 2 0 4 38 4 39 0 53 -2
32 -4z"/>
<path d="M1350 915 c0 -13 13 -15 77 -13 50 2 78 7 81 16 3 9 -17 12 -77 12
-66 0 -81 -3 -81 -15z m107 -2 c-20 -2 -52 -2 -70 0 -17 2 0 4 38 4 39 0 53
-2 32 -4z"/>
<path d="M1350 865 c0 -13 13 -15 77 -13 50 2 78 7 81 16 3 9 -17 12 -77 12
-66 0 -81 -3 -81 -15z m118 -2 c-21 -2 -55 -2 -75 0 -21 2 -4 4 37 4 41 0 58
-2 38 -4z"/>
<path d="M629 851 c12 -8 12 -12 2 -25 -11 -13 -11 -16 1 -16 7 0 15 11 16 25
1 18 -3 25 -16 25 -14 0 -14 -2 -3 -9z"/>
<path d="M694 835 c1 -33 16 -33 16 0 0 14 -4 25 -9 25 -5 0 -8 -11 -7 -25z"/>
<path d="M727 853 c-4 -3 -7 -16 -7 -27 0 -16 2 -18 9 -7 7 11 9 11 14 0 3 -8
5 -2 4 14 -1 27 -8 33 -20 20z"/>
<path d="M1350 815 c0 -12 15 -15 81 -15 60 0 80 3 77 13 -3 8 -31 13 -81 15
-64 2 -77 0 -77 -13z m118 -2 c-21 -2 -55 -2 -75 0 -21 2 -4 4 37 4 41 0 58
-2 38 -4z"/>
<path d="M1265 778 c4 -42 5 -43 15 -28 14 22 12 50 -4 50 -8 0 -12 -9 -11
-22z"/>
<path d="M1894 784 c3 -9 9 -27 12 -40 8 -32 20 -30 29 4 l8 27 6 -24 c8 -30
31 -40 31 -14 0 10 3 29 7 42 4 17 3 22 -5 17 -7 -4 -12 -17 -13 -29 -1 -21
-1 -21 -8 2 -8 31 -31 40 -31 12 0 -12 -4 -21 -10 -21 -5 0 -10 9 -10 20 0 11
-5 20 -11 20 -6 0 -8 -7 -5 -16z"/>
<path d="M2000 760 c0 -22 5 -40 10 -40 6 0 9 18 8 40 -4 52 -18 52 -18 0z"/>
<path d="M2072 760 c-1 -22 3 -40 8 -40 6 0 10 18 10 40 0 22 -4 40 -8 40 -5
0 -9 -18 -10 -40z"/>
<path d="M1354 769 c-12 -20 11 -29 76 -29 60 0 92 11 77 26 -9 9 -147 12
-153 3z m114 -16 c-21 -2 -55 -2 -75 0 -21 2 -4 4 37 4 41 0 58 -2 38 -4z"/>
<path d="M2030 750 c0 -16 5 -30 11 -30 6 0 9 9 6 20 -3 11 -1 20 4 20 5 0 9
5 9 10 0 6 -7 10 -15 10 -10 0 -15 -10 -15 -30z"/>
<path d="M2100 750 c0 -16 5 -30 10 -30 6 0 10 9 10 20 0 27 18 25 23 -2 3
-17 5 -14 6 10 1 28 -2 32 -24 32 -21 0 -25 -5 -25 -30z"/>
<path d="M2176 771 c-3 -4 -4 -22 -4 -40 1 -27 5 -31 22 -29 16 2 22 11 24 38
2 30 0 36 -17 37 -11 1 -23 -2 -25 -6z m20 -38 c-11 -11 -19 6 -11 24 8 17 8
17 12 0 3 -10 2 -21 -1 -24z"/>
<path d="M878 703 c-6 -22 1 -43 13 -43 5 0 9 14 9 30 0 33 -15 41 -22 13z"/>
<path d="M980 690 c0 -25 4 -30 23 -29 12 0 16 3 10 6 -7 2 -13 16 -13 29 0
13 -4 24 -10 24 -5 0 -10 -13 -10 -30z"/>
<path d="M1112 690 c0 -19 2 -27 5 -17 2 9 2 25 0 35 -3 9 -5 1 -5 -18z"/>
<path d="M1130 690 c0 -16 5 -30 11 -30 6 0 9 7 5 15 -3 8 -1 15 4 15 5 0 7 7
4 15 -10 25 -24 17 -24 -15z"/>
<path d="M1166 698 c-3 -13 -1 -27 4 -32 7 -7 10 1 10 22 0 37 -5 41 -14 10z"/>
<path d="M1230 691 c0 -28 2 -30 40 -29 40 0 59 11 41 23 -6 3 -8 12 -4 20 3
9 -1 15 -10 15 -22 0 -31 -19 -13 -26 24 -9 19 -19 -9 -20 -20 -2 -25 3 -25
22 0 13 -4 24 -10 24 -5 0 -10 -13 -10 -29z"/>
<path d="M1350 705 c0 -12 16 -15 80 -15 64 0 80 3 80 15 0 12 -16 15 -80 15
-64 0 -80 -3 -80 -15z m118 -2 c-21 -2 -55 -2 -75 0 -21 2 -4 4 37 4 41 0 58
-2 38 -4z"/>
<path d="M1890 670 c0 -5 6 -10 14 -10 9 0 16 -13 19 -32 l4 -33 1 33 c1 21 7
32 17 32 8 0 15 5 15 10 0 6 -16 10 -35 10 -19 0 -35 -4 -35 -10z"/>
<path d="M2160 640 c0 -22 5 -40 10 -40 6 0 9 18 8 40 -4 52 -18 52 -18 0z"/>
<path d="M2315 640 c0 -22 3 -40 8 -40 4 0 7 18 7 40 0 22 -4 40 -8 40 -4 0
-8 -18 -7 -40z"/>
<path d="M1964 646 c-9 -24 3 -46 26 -46 17 0 21 5 18 27 -3 31 -34 44 -44 19z
m36 -22 c0 -8 -4 -14 -10 -14 -5 0 -10 9 -10 21 0 11 5 17 10 14 6 -3 10 -13
10 -21z"/>
<path d="M2025 630 c0 -16 3 -30 8 -30 4 0 7 9 7 20 0 11 5 20 10 20 6 0 10 5
10 10 0 6 -8 10 -17 10 -13 0 -18 -8 -18 -30z"/>
<path d="M2070 645 c0 -7 -3 -20 -6 -29 -3 -9 -1 -16 5 -16 6 0 11 9 11 20 0
28 20 25 21 -2 1 -21 2 -21 6 -3 8 34 23 41 23 12 0 -15 5 -27 11 -27 6 0 9
12 7 27 -3 24 -8 27 -40 30 -27 1 -38 -2 -38 -12z"/>
<path d="M2190 629 c0 -16 5 -29 11 -29 5 0 9 8 7 18 -2 11 2 18 7 18 6 -1 10
-9 9 -18 0 -10 3 -18 8 -18 5 0 8 12 6 28 -2 20 -9 27 -25 28 -19 1 -23 -4
-23 -27z"/>
<path d="M2254 649 c-5 -9 -2 -10 9 -6 16 6 32 -18 17 -28 -4 -3 -10 1 -13 7
-2 7 -8 10 -12 6 -11 -11 4 -28 26 -28 16 0 20 6 17 27 -3 30 -31 43 -44 22z"/>
<path d="M2345 649 c-8 -12 -8 -11 20 -28 19 -11 18 -12 -4 -5 -16 4 -21 3
-17 -5 9 -14 46 -14 46 0 0 7 -8 18 -17 25 -17 13 -17 14 1 7 13 -4 17 -3 12
5 -9 15 -33 16 -41 1z"/>
<path d="M966 624 c-36 -35 -7 -104 42 -104 27 0 62 33 62 58 0 52 -68 82
-104 46z m72 -6 c22 -22 14 -67 -13 -80 -46 -21 -86 40 -49 76 18 19 45 21 62
4z"/>
<path d="M1589 628 c-1 -7 -1 -17 0 -22 2 -12 -50 -66 -63 -66 -5 0 5 15 23
34 18 19 29 36 24 38 -4 2 -22 -11 -40 -29 -17 -18 -28 -33 -25 -33 4 0 -1 -5
-12 -11 -10 -6 -55 -11 -100 -12 -55 0 -64 -2 -28 -4 44 -3 52 -7 52 -24 0
-10 5 -19 10 -19 6 0 10 9 10 20 0 20 21 26 78 21 12 -1 22 3 22 9 0 5 3 9 8
8 4 -2 9 2 10 7 6 17 24 35 31 31 4 -3 8 11 9 30 2 31 -6 51 -9 22z"/>
<path d="M207 593 c-15 -15 -6 -23 15 -12 18 10 20 9 14 -6 -3 -9 -8 -29 -11
-43 -5 -26 -5 -26 9 3 21 42 20 65 -2 65 -10 0 -22 -3 -25 -7z"/>
<path d="M303 584 c-4 -10 0 -20 10 -26 23 -13 21 -27 -5 -38 -23 -10 -23 -10
2 -7 31 3 39 35 14 54 -16 12 -16 13 -1 13 9 0 17 5 17 10 0 16 -30 11 -37 -6z"/>
<path d="M265 520 c-3 -5 -1 -10 4 -10 6 0 11 5 11 10 0 6 -2 10 -4 10 -3 0
-8 -4 -11 -10z"/>
<path d="M928 523 c6 -2 18 -2 25 0 6 3 1 5 -13 5 -14 0 -19 -2 -12 -5z"/>
<path d="M1068 523 c7 -3 16 -2 19 1 4 3 -2 6 -13 5 -11 0 -14 -3 -6 -6z"/>
<path d="M1198 523 c7 -3 16 -2 19 1 4 3 -2 6 -13 5 -11 0 -14 -3 -6 -6z"/>
<path d="M635 237 c0 -29 4 -44 13 -44 7 0 10 7 7 14 -3 8 -5 28 -5 44 0 16
-3 29 -7 29 -5 0 -8 -19 -8 -43z"/>
<path d="M695 237 c0 -24 5 -44 10 -44 6 0 8 19 6 44 -4 56 -16 56 -16 0z"/>
<path d="M770 270 c0 -5 7 -7 15 -4 20 8 19 -10 -1 -41 -15 -23 -15 -25 0 -25
9 0 19 0 23 -1 4 0 9 4 11 10 2 7 -4 8 -15 5 -15 -6 -16 -4 -5 7 20 22 15 59
-8 59 -11 0 -20 -4 -20 -10z"/>
<path d="M740 199 c0 -5 5 -7 10 -4 6 3 10 8 10 11 0 2 -4 4 -10 4 -5 0 -10
-5 -10 -11z"/>
</g>
</svg>
