<?xml version="1.0" standalone="no"?>
<!DOCTYPE svg PUBLIC "-//W3C//DTD SVG 20010904//EN"
 "http://www.w3.org/TR/2001/REC-SVG-20010904/DTD/svg10.dtd">
<svg version="1.0" xmlns="http://www.w3.org/2000/svg"
 width="300.000000pt" height="300.000000pt" viewBox="0 0 300.000000 300.000000"
 preserveAspectRatio="xMidYMid meet">
<metadata>
Created by potrace 1.10, written by Peter Selinger 2001-2011
</metadata>
<g transform="translate(0.000000,300.000000) scale(0.100000,-0.100000)"
fill="#000000" stroke="none">
<path d="M1940 2610 c-149 -7 -196 -18 -291 -66 -62 -31 -193 -131 -249 -189
-61 -65 -36 -53 39 17 81 77 206 161 277 188 118 44 490 53 599 15 52 -19 103
-53 105 -70 0 -5 16 -21 36 -34 20 -14 74 -68 121 -120 76 -85 128 -133 201
-181 41 -27 98 -220 128 -430 12 -91 16 -409 5 -506 -12 -114 -60 -314 -88
-369 -12 -22 -42 -53 -74 -75 -30 -20 -78 -66 -107 -101 -126 -150 -216 -222
-341 -273 -75 -31 -78 -31 -258 -31 -99 0 -179 -3 -176 -7 2 -5 78 -8 168 -8
185 0 249 14 365 78 61 33 179 142 272 249 20 23 65 63 100 90 35 27 69 62 76
77 8 15 26 80 42 144 74 305 71 663 -9 968 -44 165 -49 174 -134 238 -42 30
-105 90 -140 133 -36 43 -93 100 -126 126 -34 27 -61 54 -61 61 0 19 -93 56
-180 72 -80 14 -79 14 -300 4z"/>
<path d="M979 2330 c-202 -32 -383 -144 -538 -333 -88 -107 -106 -137 -129
-217 -13 -41 -30 -95 -39 -120 -58 -168 -73 -343 -39 -483 21 -89 70 -205 107
-257 37 -50 103 -83 157 -77 l37 4 -42 1 c-24 1 -43 6 -43 12 0 5 -3 9 -7 9
-62 -10 -158 149 -194 322 -19 92 -22 173 -12 276 3 29 8 51 12 49 3 -2 7 6 7
17 3 36 14 78 35 127 11 26 21 57 23 71 1 13 8 34 15 47 6 12 9 22 5 22 -3 0
-2 6 3 13 6 6 13 24 16 38 4 14 28 50 54 81 26 31 67 79 91 107 65 77 169 156
263 200 90 41 211 76 235 67 9 -3 12 -1 9 4 -15 25 234 12 300 -16 41 -17 64
-19 48 -3 -32 32 -263 57 -374 39z"/>
<path d="M1542 2211 c68 -43 183 -156 229 -224 l40 -61 -23 -9 c-13 -5 -30
-10 -38 -12 -175 -37 -253 -73 -297 -135 -28 -40 -46 -49 -58 -30 -8 13 -187
101 -193 96 -2 -3 20 -17 50 -31 29 -15 79 -43 110 -62 57 -34 57 -34 42 -59
-9 -13 -12 -24 -8 -24 5 0 15 13 22 29 20 44 90 120 131 140 20 10 104 37 187
60 83 24 157 47 164 51 19 12 -30 90 -101 161 -66 65 -147 111 -227 128 -77
16 -81 14 -30 -18z m158 -54 c42 -24 141 -118 135 -127 -2 -4 3 -16 13 -26 22
-26 26 -45 11 -55 -21 -12 -38 1 -78 60 -21 31 -64 80 -94 109 -31 28 -59 57
-63 63 -9 15 31 3 76 -24z"/>
<path d="M2497 2115 c-8 -8 -17 -12 -19 -9 -6 5 -549 -174 -562 -186 -4 -4 4
-7 18 -7 14 1 26 5 26 10 0 4 3 6 8 6 4 -1 9 0 12 1 3 1 14 4 25 6 29 7 36 9
76 27 19 9 48 19 65 23 16 4 35 11 41 16 7 6 20 8 28 4 8 -3 15 -1 15 4 0 4
15 12 33 15 17 4 37 11 43 17 7 5 16 8 20 7 5 -1 11 -1 14 1 3 1 15 3 28 6 13
2 36 11 53 19 16 9 34 13 39 10 6 -3 10 -1 10 5 0 6 4 9 9 5 5 -3 13 0 16 6 4
6 17 14 29 19 16 7 17 9 4 9 -9 1 -23 -6 -31 -14z"/>
<path d="M583 1993 c9 -2 23 -2 30 0 6 3 -1 5 -18 5 -16 0 -22 -2 -12 -5z"/>
<path d="M631 1986 c2 -2 36 -6 74 -9 42 -3 58 -2 40 3 -30 8 -122 13 -114 6z"/>
<path d="M860 1945 c118 -34 149 -39 64 -11 -39 14 -88 27 -110 30 -21 3 -1
-5 46 -19z"/>
<path d="M453 1923 c9 -2 25 -2 35 0 9 3 1 5 -18 5 -19 0 -27 -2 -17 -5z"/>
<path d="M640 1920 c191 -25 442 -114 667 -238 60 -33 80 -49 76 -61 -4 -14
-3 -14 6 -1 15 21 -8 36 -174 119 -233 115 -422 177 -575 186 l-75 4 75 -9z"/>
<path d="M1010 1902 c8 -5 26 -13 40 -16 17 -5 20 -4 10 2 -8 5 -26 13 -40 16
-17 5 -20 4 -10 -2z"/>
<path d="M1840 1890 c-9 -6 -10 -10 -3 -10 6 0 15 5 18 10 8 12 4 12 -15 0z"/>
<path d="M1101 1887 c2 -1 13 -9 24 -17 19 -14 19 -14 6 3 -7 9 -18 17 -24 17
-6 0 -8 -1 -6 -3z"/>
<path d="M1694 1835 c-50 -24 -101 -56 -113 -71 -30 -38 -19 -41 18 -5 29 29
43 36 64 32 5 -1 6 2 3 7 -3 5 11 14 30 21 18 7 34 17 34 22 0 6 5 7 10 4 6
-4 18 -1 26 6 9 7 23 14 31 15 23 4 29 14 7 14 -10 0 -60 -20 -110 -45z"/>
<path d="M1085 1820 c3 -4 14 -10 25 -13 11 -3 18 -2 15 3 -3 4 -14 10 -25 13
-11 3 -18 2 -15 -3z"/>
<path d="M1176 1781 c23 -20 204 -110 204 -101 0 6 -4 10 -10 10 -5 0 -18 9
-28 20 -11 11 -29 23 -42 25 -13 3 -27 10 -32 17 -4 7 -8 10 -8 5 0 -4 -15 0
-32 10 -35 18 -66 27 -52 14z"/>
<path d="M578 1773 c6 -2 18 -2 25 0 6 3 1 5 -13 5 -14 0 -19 -2 -12 -5z"/>
<path d="M688 1753 c7 -3 16 -2 19 1 4 3 -2 6 -13 5 -11 0 -14 -3 -6 -6z"/>
<path d="M740 1740 c34 -11 60 -11 35 0 -11 5 -29 8 -40 8 -16 0 -15 -2 5 -8z"/>
<path d="M865 1704 c39 -14 84 -31 100 -39 68 -32 216 -104 301 -148 l91 -47
12 -68 c7 -37 15 -77 18 -89 7 -32 -5 -28 -52 14 -22 20 -34 32 -26 28 10 -6
12 -4 6 4 -5 9 -10 10 -18 2 -7 -7 -16 -7 -29 0 -14 7 -23 5 -40 -11 -12 -11
-18 -23 -15 -27 4 -3 13 2 21 12 12 17 16 16 74 -19 34 -21 88 -58 119 -83 32
-26 48 -36 36 -22 -37 41 -71 121 -85 198 l-14 74 -94 51 c-165 89 -422 197
-464 195 -6 0 21 -11 59 -25z"/>
<path d="M1455 1710 c-3 -5 -1 -10 4 -10 6 0 11 5 11 10 0 6 -2 10 -4 10 -3 0
-8 -4 -11 -10z"/>
<path d="M1540 1700 c-6 -11 -9 -20 -8 -20 2 0 11 9 21 20 9 11 13 20 7 20 -5
0 -14 -9 -20 -20z"/>
<path d="M1430 1671 c-7 -15 -7 -21 0 -21 12 0 25 28 17 36 -3 3 -10 -4 -17
-15z"/>
<path d="M1051 1676 c3 -3 42 -24 85 -45 44 -21 114 -59 157 -84 67 -40 77
-43 77 -27 0 12 -5 17 -13 14 -7 -2 -25 6 -40 20 -15 14 -27 23 -27 20 0 -3
-21 6 -47 21 -27 15 -75 38 -108 52 -85 35 -91 37 -84 29z"/>
<path d="M1516 1653 c-6 -14 -5 -15 5 -6 7 7 10 15 7 18 -3 3 -9 -2 -12 -12z"/>
<path d="M1401 1580 c-14 -65 -13 -144 3 -195 11 -36 12 -30 9 70 -1 60 1 124
6 142 5 18 6 33 1 33 -5 0 -13 -23 -19 -50z"/>
<path d="M1372 1575 c0 -16 2 -22 5 -12 2 9 2 23 0 30 -3 6 -5 -1 -5 -18z"/>
<path d="M1490 1525 c0 -14 2 -25 4 -25 2 0 6 11 8 25 3 14 1 25 -3 25 -5 0
-9 -11 -9 -25z"/>
<path d="M1501 1360 c6 -16 16 -30 22 -30 7 0 7 4 -1 12 -7 7 -12 20 -12 30 0
10 -4 18 -9 18 -6 0 -6 -12 0 -30z"/>
<path d="M1185 1259 c-43 -65 -173 -196 -260 -261 -44 -34 -80 -64 -80 -69 0
-4 -4 -11 -9 -16 -5 -5 -6 -3 -2 5 10 17 7 16 -89 -30 -60 -28 -105 -43 -148
-47 l-61 -6 110 -72 c124 -82 170 -103 216 -102 20 1 25 3 13 6 -54 11 -117
41 -183 87 -73 49 -101 75 -69 63 12 -4 17 -1 17 9 0 12 6 15 22 11 12 -4 27
-3 32 2 6 4 36 16 66 25 63 20 124 62 114 78 -5 7 -1 9 9 5 14 -5 58 26 119
86 10 9 21 17 24 17 3 0 17 14 31 30 13 17 29 28 34 24 5 -3 9 3 9 13 1 10 19
38 41 63 37 41 42 43 62 31 22 -14 22 -14 3 8 -30 33 -2 25 46 -15 137 -113
145 -117 156 -98 6 12 11 13 16 5 4 -7 2 -19 -6 -28 -7 -9 -8 -14 -2 -10 15 9
55 -48 48 -67 -3 -9 -10 -16 -15 -16 -5 0 -9 -7 -9 -15 0 -8 -6 -14 -12 -12
-7 1 -13 -6 -13 -15 0 -9 -4 -20 -9 -25 -5 -5 -6 -2 -1 7 8 13 6 13 -7 2 -9
-8 -14 -20 -11 -28 4 -10 0 -12 -11 -8 -12 4 -15 2 -10 -9 5 -14 -64 -75 -131
-114 -11 -7 -16 -12 -10 -13 17 0 -94 -70 -163 -102 -82 -38 -184 -45 -241
-15 -19 9 -36 15 -39 12 -3 -3 17 -14 43 -26 128 -57 333 22 511 198 44 43 99
108 123 145 39 61 47 67 74 65 17 -1 32 3 34 11 4 9 -3 12 -23 9 -23 -3 -53
17 -180 119 l-152 123 -27 -40z m77 -26 c18 -16 41 -35 52 -43 49 -38 90 -79
85 -84 -3 -3 -14 2 -25 12 -11 10 -39 33 -63 50 -24 18 -40 32 -36 32 4 0 -4
9 -18 20 -14 11 -30 20 -36 20 -6 0 -11 5 -11 10 0 17 17 11 52 -17z m202
-162 c10 -11 16 -25 14 -31 -2 -6 -14 3 -26 19 -25 34 -15 42 12 12z m-644
-166 c0 -6 -56 -35 -67 -35 -4 1 8 9 27 20 39 22 40 22 40 15z m460 -119 c0
-2 -8 -10 -17 -17 -16 -13 -17 -12 -4 4 13 16 21 21 21 13z"/>
<path d="M1626 1176 c10 -8 21 -12 24 -10 5 6 -21 24 -34 24 -6 0 -1 -6 10
-14z"/>
<path d="M1695 1136 c17 -11 59 -29 75 -31 3 0 11 -4 18 -9 7 -4 16 -5 19 -2
3 3 -12 13 -33 22 -22 9 -47 20 -56 25 -28 14 -45 10 -23 -5z"/>
<path d="M1575 1106 c25 -21 43 -30 47 -23 4 7 23 7 62 -3 43 -10 56 -18 56
-32 0 -10 5 -18 10 -18 6 0 10 10 10 23 0 21 -8 25 -77 41 -43 10 -94 25 -113
32 l-35 14 40 -34z"/>
<path d="M1840 1086 c0 -2 9 -6 20 -9 11 -3 18 -1 14 4 -5 9 -34 13 -34 5z"/>
<path d="M1780 1052 c0 -11 -11 -33 -23 -49 -13 -15 -41 -55 -61 -87 -21 -33
-66 -88 -100 -123 -34 -34 -60 -63 -58 -63 2 0 32 7 66 16 111 28 203 97 276
206 22 33 40 64 40 69 0 5 -26 16 -57 25 -32 9 -64 19 -70 21 -8 3 -13 -3 -13
-15z m86 -36 c18 -19 18 -26 -6 -56 -15 -18 -18 -20 -13 -6 5 14 3 17 -6 12
-7 -5 -11 -16 -8 -26 5 -20 -87 -114 -124 -125 -13 -4 -27 -12 -30 -17 -3 -5
-18 -11 -33 -14 l-28 -5 40 48 c22 26 45 58 52 71 7 15 17 21 27 18 9 -4 13
-1 10 6 -2 7 4 22 14 33 9 11 19 27 21 35 9 39 56 54 84 26z"/>
<path d="M1110 1051 c0 -6 4 -13 10 -16 6 -3 7 1 4 9 -7 18 -14 21 -14 7z"/>
<path d="M1580 1049 c0 -5 5 -7 10 -4 6 3 10 8 10 11 0 2 -4 4 -10 4 -5 0 -10
-5 -10 -11z"/>
<path d="M1954 1051 c6 -10 66 -33 66 -26 0 5 -56 35 -65 35 -3 0 -4 -4 -1 -9z"/>
<path d="M2125 990 c24 -11 51 -13 41 -3 -4 4 -19 8 -34 10 -23 2 -24 1 -7 -7z"/>
<path d="M2225 960 c3 -5 8 -10 11 -10 2 0 4 5 4 10 0 6 -5 10 -11 10 -5 0 -7
-4 -4 -10z"/>
<path d="M2260 950 c8 -5 20 -10 25 -10 6 0 3 5 -5 10 -8 5 -19 10 -25 10 -5
0 -3 -5 5 -10z"/>
<path d="M2318 933 c7 -3 16 -2 19 1 4 3 -2 6 -13 5 -11 0 -14 -3 -6 -6z"/>
<path d="M1466 892 l-19 -27 26 24 c28 26 32 31 20 31 -5 0 -17 -13 -27 -28z"/>
<path d="M1225 900 c3 -5 8 -10 11 -10 2 0 4 5 4 10 0 6 -5 10 -11 10 -5 0 -7
-4 -4 -10z"/>
<path d="M1384 808 l-19 -23 23 19 c12 11 22 21 22 23 0 8 -8 2 -26 -19z"/>
<path d="M865 780 c10 -11 20 -20 23 -20 3 0 -3 9 -13 20 -10 11 -20 20 -23
20 -3 0 3 -9 13 -20z"/>
<path d="M1943 763 c15 -2 27 -11 27 -19 0 -8 8 -14 18 -14 19 0 65 -45 68
-67 2 -15 -5 -15 -68 -1 -10 2 -26 15 -38 28 -11 12 -20 19 -20 15 0 -4 -9 0
-20 10 -11 10 -23 16 -26 12 -12 -12 28 -54 71 -76 96 -48 151 -35 125 30 -15
35 -101 90 -140 87 -24 -1 -24 -1 3 -5z"/>
<path d="M1309 743 c-13 -16 -12 -17 4 -4 16 13 21 21 13 21 -2 0 -10 -8 -17
-17z"/>
<path d="M689 695 c22 -46 61 -85 108 -109 36 -18 143 -33 143 -20 0 5 -21 10
-47 12 -26 2 -66 11 -88 21 -36 17 -56 35 -116 111 l-20 25 20 -40z"/>
<path d="M1970 679 c0 -5 5 -7 10 -4 6 3 10 8 10 11 0 2 -4 4 -10 4 -5 0 -10
-5 -10 -11z"/>
<path d="M908 663 c7 -3 16 -2 19 1 4 3 -2 6 -13 5 -11 0 -14 -3 -6 -6z"/>
<path d="M958 663 c7 -3 16 -2 19 1 4 3 -2 6 -13 5 -11 0 -14 -3 -6 -6z"/>
<path d="M1350 635 c-14 -8 -20 -14 -14 -15 5 0 19 7 30 15 24 18 16 19 -16 0z"/>
<path d="M1430 608 c78 -77 227 -179 280 -192 16 -4 13 0 -9 10 -44 20 -167
103 -211 143 -19 18 -48 41 -65 53 -28 19 -27 18 5 -14z"/>
<path d="M1290 610 c-13 -8 -13 -10 2 -10 9 0 20 5 23 10 8 13 -5 13 -25 0z"/>
<path d="M1205 584 l-30 -14 35 6 c19 3 42 10 50 15 27 15 -22 9 -55 -7z"/>
<path d="M1109 569 c-10 -6 -4 -9 19 -9 17 0 32 2 32 4 0 9 -39 13 -51 5z"/>
<path d="M1025 560 l-50 -7 52 -1 c28 -1 55 3 58 8 3 6 3 9 -2 8 -4 0 -30 -4
-58 -8z"/>
<path d="M1775 395 c22 -7 49 -13 60 -13 13 0 15 1 5 5 -8 2 -22 7 -30 10 -8
3 -28 7 -45 8 -26 3 -24 1 10 -10z"/>
</g>
</svg>
