<?xml version="1.0" standalone="no"?>
<!DOCTYPE svg PUBLIC "-//W3C//DTD SVG 20010904//EN"
 "http://www.w3.org/TR/2001/REC-SVG-20010904/DTD/svg10.dtd">
<svg version="1.0" xmlns="http://www.w3.org/2000/svg"
 width="900.000000pt" height="900.000000pt" viewBox="0 0 900.000000 900.000000"
 preserveAspectRatio="xMidYMid meet">
<metadata>
Created by potrace 1.10, written by Peter Selinger 2001-2011
</metadata>
<g transform="translate(0.000000,900.000000) scale(0.100000,-0.100000)"
fill="#000000" stroke="none">
<path d="M3705 8499 c-22 -3 59 -7 179 -8 121 0 216 2 212 7 -9 8 -334 10
-391 1z"/>
<path d="M4460 8501 l-25 -7 22 -8 c30 -10 120 4 102 15 -16 10 -64 10 -99 0z"/>
<path d="M3583 8493 c9 -2 25 -2 35 0 9 3 1 5 -18 5 -19 0 -27 -2 -17 -5z"/>
<path d="M4228 8493 c34 -2 88 -2 120 0 31 2 3 3 -63 3 -66 0 -92 -1 -57 -3z"/>
<path d="M5520 8469 c-20 -4 13 -6 75 -7 114 0 123 5 20 10 -33 2 -76 0 -95
-3z"/>
<path d="M3128 8463 c12 -2 30 -2 40 0 9 3 -1 5 -23 4 -22 0 -30 -2 -17 -4z"/>
<path d="M3640 8450 c-290 -4 -401 -8 -417 -17 -14 -9 -63 -13 -137 -13 -69 0
-117 -4 -121 -10 -4 -7 -48 -10 -113 -8 -110 2 -186 -14 -297 -62 -22 -9 -66
-25 -97 -35 -32 -9 -60 -21 -64 -26 -3 -5 -16 -9 -29 -9 -13 0 -31 -9 -39 -21
-8 -12 -18 -19 -23 -16 -5 3 -28 -8 -52 -24 -24 -16 -56 -29 -71 -29 -15 0
-35 -9 -45 -20 -10 -11 -24 -20 -31 -20 -7 0 -29 -13 -47 -30 -19 -16 -44 -30
-56 -30 -11 0 -32 -10 -45 -21 -26 -22 -56 -41 -92 -58 -12 -5 -34 -21 -49
-35 -15 -14 -34 -26 -40 -26 -26 0 -75 -54 -75 -82 0 -37 22 -36 57 2 14 17
43 35 63 40 23 6 41 19 47 33 7 14 44 40 94 66 46 24 98 55 115 67 17 13 35
24 41 24 11 0 143 68 157 81 6 5 18 9 28 9 10 0 21 7 24 15 4 9 19 15 36 15
30 0 81 22 110 47 10 9 25 13 34 9 9 -3 35 2 59 13 24 10 58 22 76 26 19 4 39
11 44 15 6 4 35 10 65 13 72 7 177 24 267 44 40 8 78 13 85 10 7 -2 90 2 183
10 193 15 1467 25 1745 13 578 -26 834 -43 980 -67 164 -27 263 -49 289 -63
11 -5 30 -10 43 -10 24 0 126 -32 188 -58 44 -19 83 -35 140 -58 25 -10 61
-28 80 -41 19 -13 43 -23 53 -23 10 0 35 -13 55 -29 20 -16 48 -32 62 -36 14
-4 49 -25 77 -46 29 -22 61 -42 70 -46 10 -4 33 -19 51 -35 18 -15 38 -28 45
-28 7 0 20 -8 29 -17 8 -10 55 -49 103 -88 139 -111 435 -417 435 -450 0 -4
18 -28 41 -53 23 -26 59 -78 82 -117 48 -83 67 -106 78 -99 15 9 10 46 -8 59
-9 7 -14 19 -10 29 10 25 24 19 36 -14 11 -34 74 -98 109 -111 12 -5 36 -30
52 -56 17 -26 30 -41 30 -34 0 8 -13 36 -30 63 -16 26 -30 59 -30 73 0 27 -9
32 -28 13 -10 -10 -15 -8 -26 7 -8 11 -27 37 -42 57 -16 20 -47 62 -69 92 -22
30 -43 55 -47 56 -11 0 -40 30 -61 63 -10 15 -29 32 -43 37 -14 6 -24 18 -24
29 0 11 -17 41 -37 66 -54 66 -210 225 -221 225 -6 0 -21 13 -34 29 -14 16
-33 33 -44 39 -10 5 -55 42 -99 81 -44 39 -105 86 -135 103 -30 18 -82 51
-115 73 -61 42 -237 134 -333 176 -29 12 -58 29 -64 36 -6 7 -18 13 -28 13
-10 0 -38 10 -62 21 -104 51 -103 51 -165 44 -70 -8 -94 0 -66 21 10 7 13 14
6 14 -6 0 -15 -4 -18 -10 -9 -15 -79 -12 -101 5 -11 8 -42 14 -75 15 -38 0
-61 5 -69 15 -9 11 -33 15 -89 15 -42 0 -101 7 -131 15 -38 10 -107 15 -228
15 -132 0 -181 4 -209 15 -22 10 -63 15 -102 14 -37 -1 -340 0 -676 2 -335 2
-788 2 -1005 -1z m4261 -1273 c-1 -12 -15 -9 -19 4 -3 6 1 10 8 8 6 -3 11 -8
11 -12z"/>
<path d="M2895 8430 c3 -5 17 -10 31 -10 13 0 24 5 24 10 0 6 -14 10 -31 10
-17 0 -28 -4 -24 -10z"/>
<path d="M6115 8410 c-3 -5 3 -10 15 -10 12 0 18 5 15 10 -3 6 -10 10 -15 10
-5 0 -12 -4 -15 -10z"/>
<path d="M6245 8380 c-3 -5 3 -10 14 -10 12 0 21 5 21 10 0 6 -6 10 -14 10 -8
0 -18 -4 -21 -10z"/>
<path d="M1567 7773 c-31 -24 -62 -54 -68 -65 -12 -22 -21 -31 -138 -138 -39
-35 -71 -70 -71 -77 0 -8 -11 -18 -25 -23 -18 -7 -25 -17 -25 -35 0 -18 -5
-25 -19 -25 -11 0 -29 -12 -40 -27 -12 -16 -26 -35 -33 -43 -86 -99 -97 -130
-58 -165 22 -20 50 -14 50 11 0 26 69 134 117 184 24 24 43 48 43 53 0 5 15
24 33 42 63 66 93 100 118 133 13 19 36 40 51 48 15 8 34 27 42 43 9 16 27 32
41 35 14 4 25 10 25 15 0 5 16 18 35 30 43 25 47 51 8 50 -17 0 -51 -18 -86
-46z"/>
<path d="M4636 7381 c-7 -10 -53 -20 -111 -24 -32 -2 -41 -6 -43 -23 -5 -36
23 -54 83 -54 69 0 80 5 106 46 17 28 19 37 9 49 -14 17 -36 20 -44 6z"/>
<path d="M4275 7148 c-44 -5 -111 -15 -150 -23 -38 -8 -92 -17 -120 -20 -27
-3 -63 -9 -80 -14 -16 -6 -59 -17 -95 -26 -36 -9 -78 -23 -93 -31 -16 -8 -38
-14 -49 -14 -11 0 -34 -6 -51 -14 -18 -7 -52 -21 -77 -31 -77 -30 -101 -41
-223 -100 -65 -31 -141 -72 -169 -91 -27 -19 -53 -34 -58 -34 -6 0 -118 -77
-155 -107 -5 -5 -23 -17 -40 -27 -16 -11 -41 -29 -55 -42 -14 -12 -61 -53
-105 -92 -85 -74 -199 -187 -237 -237 -13 -16 -32 -39 -44 -50 -11 -11 -47
-56 -80 -100 -53 -70 -86 -119 -169 -250 -30 -47 -64 -108 -76 -135 -6 -14
-15 -32 -20 -40 -5 -8 -13 -24 -18 -35 -5 -11 -21 -46 -35 -77 -14 -31 -26
-63 -26 -71 0 -8 -7 -20 -15 -27 -8 -7 -15 -22 -15 -34 0 -12 -4 -26 -8 -31
-9 -10 -38 -99 -67 -200 -8 -27 -21 -74 -29 -104 -9 -29 -16 -64 -16 -78 0
-13 -5 -33 -10 -44 -6 -10 -15 -67 -20 -127 -6 -59 -14 -138 -19 -177 -12 -86
-12 -253 -1 -360 5 -44 14 -129 19 -190 6 -60 14 -117 17 -125 6 -14 19 -70
43 -185 5 -22 14 -53 19 -70 6 -16 21 -61 32 -100 22 -74 33 -103 56 -148 8
-16 14 -33 14 -38 0 -10 28 -73 78 -179 15 -30 46 -87 69 -126 24 -39 43 -76
43 -82 0 -6 3 -12 8 -14 4 -1 25 -30 47 -63 22 -33 42 -62 45 -65 3 -3 16 -21
30 -40 13 -19 28 -39 32 -45 4 -5 29 -37 55 -70 27 -33 114 -125 194 -205 132
-131 184 -175 314 -270 22 -17 45 -34 52 -40 7 -5 17 -10 22 -10 5 0 16 -6 23
-13 30 -28 126 -87 141 -87 9 0 17 -3 17 -8 0 -4 21 -19 48 -32 26 -14 49 -28
50 -32 2 -5 10 -8 18 -8 8 0 32 -9 52 -20 66 -36 142 -68 175 -75 18 -4 37
-11 42 -15 6 -4 42 -18 80 -30 39 -12 77 -25 85 -28 8 -3 40 -11 70 -18 102
-23 155 -36 190 -44 128 -31 264 -42 523 -41 148 0 285 5 305 10 20 6 69 15
107 20 140 20 198 31 209 40 6 5 34 12 61 16 28 4 55 11 60 15 6 4 26 11 45
14 36 7 48 11 113 40 21 9 42 16 48 16 6 0 35 11 65 25 30 14 80 37 112 51 70
31 152 73 172 88 8 6 33 20 54 31 217 110 628 472 762 671 15 22 30 41 34 44
40 28 236 363 295 505 9 22 25 58 35 80 33 75 94 253 111 325 34 143 42 183
50 245 6 39 15 88 21 110 5 22 12 152 15 290 5 269 2 306 -57 638 -9 49 -25
103 -43 147 -5 14 -13 43 -17 65 -5 22 -18 65 -30 95 -12 30 -24 65 -27 77 -3
12 -11 28 -19 34 -8 6 -14 19 -14 29 0 22 -124 274 -156 317 -13 17 -24 36
-24 41 0 5 -12 27 -27 49 -16 21 -32 46 -38 56 -52 85 -223 296 -319 393 -9 9
-202 180 -246 218 -8 7 -46 35 -85 61 -38 27 -88 61 -109 77 -21 15 -42 28
-46 28 -5 0 -31 16 -60 35 -44 29 -216 117 -315 160 -100 44 -187 75 -207 75
-13 0 -28 4 -33 9 -6 5 -46 18 -90 30 -44 12 -93 26 -110 31 -16 5 -50 12 -75
15 -25 4 -76 13 -115 20 -169 34 -494 45 -690 23z m560 -59 c33 -5 87 -13 120
-18 67 -9 146 -26 217 -47 26 -8 56 -14 68 -14 12 0 36 -6 53 -13 18 -8 65
-25 105 -38 41 -13 76 -27 79 -31 2 -5 13 -8 25 -8 11 0 32 -7 46 -15 15 -8
54 -26 87 -40 229 -99 489 -268 665 -430 144 -133 303 -305 345 -374 6 -9 23
-32 38 -51 40 -51 39 -49 82 -119 102 -164 224 -406 241 -479 4 -15 10 -31 14
-37 4 -5 17 -44 29 -85 13 -41 27 -84 32 -95 5 -11 14 -42 19 -70 5 -27 17
-84 26 -125 8 -41 20 -106 25 -145 5 -38 14 -101 19 -140 18 -123 22 -296 10
-395 -31 -254 -41 -320 -55 -385 -9 -38 -20 -90 -24 -115 -4 -25 -13 -56 -19
-70 -6 -14 -21 -59 -33 -100 -12 -41 -25 -79 -30 -85 -5 -5 -9 -18 -9 -28 0
-10 -6 -31 -14 -45 -8 -15 -29 -58 -46 -97 -112 -249 -264 -490 -405 -644
-113 -124 -284 -290 -350 -339 -6 -4 -30 -23 -55 -43 -55 -44 -178 -129 -186
-129 -3 0 -20 -11 -38 -25 -18 -14 -37 -25 -43 -25 -5 0 -20 -9 -33 -20 -13
-11 -29 -20 -37 -20 -7 0 -31 -11 -52 -25 -22 -13 -51 -27 -65 -31 -14 -3 -26
-10 -26 -14 0 -5 -10 -11 -22 -15 -13 -3 -32 -10 -43 -15 -93 -41 -116 -50
-127 -50 -8 0 -18 -4 -24 -8 -8 -8 -45 -21 -179 -62 -16 -5 -48 -12 -70 -16
-22 -3 -46 -11 -53 -17 -7 -5 -43 -14 -80 -18 -37 -4 -94 -12 -127 -18 -201
-32 -508 -42 -652 -21 -38 5 -99 14 -138 20 -38 6 -97 14 -130 19 -34 4 -70
13 -80 18 -11 6 -38 14 -60 17 -49 9 -134 34 -157 47 -10 5 -25 9 -34 9 -9 0
-30 7 -47 15 -18 8 -57 24 -87 35 -30 12 -59 25 -65 30 -5 4 -25 11 -42 15
-18 3 -33 11 -33 16 0 5 -6 9 -13 9 -12 0 -44 16 -132 66 -22 12 -59 32 -82
45 -24 12 -43 26 -43 31 0 4 -6 8 -13 8 -10 0 -114 69 -162 108 -5 4 -26 19
-44 32 -64 46 -95 74 -252 230 -85 85 -182 191 -215 235 -68 90 -167 232 -178
255 -4 8 -22 42 -41 75 -36 62 -72 134 -110 220 -12 28 -32 71 -44 96 -11 25
-21 55 -21 66 0 10 -4 23 -9 28 -5 6 -18 44 -30 85 -13 41 -27 84 -32 95 -5
11 -14 45 -20 75 -5 30 -17 89 -25 130 -25 126 -48 368 -48 505 -1 137 23 368
49 495 9 41 19 95 24 120 4 25 14 65 23 90 9 25 24 72 34 105 10 33 22 64 26
70 4 5 8 18 8 28 0 10 7 31 14 45 8 15 22 45 31 67 44 105 161 329 201 382 13
17 24 35 24 38 0 4 20 32 43 63 24 31 48 64 53 73 11 19 63 85 118 149 47 54
242 247 279 275 283 221 372 276 672 415 48 22 106 44 195 71 36 11 73 25 84
30 10 6 39 15 65 19 25 5 75 16 111 25 36 9 108 23 160 31 52 9 115 19 140 24
64 11 514 10 585 -1z"/>
<path d="M4644 6808 c-5 -7 -8 -94 -9 -193 -1 -131 -4 -186 -14 -200 -15 -24
-65 -55 -87 -55 -27 0 -66 34 -83 70 l-16 35 -3 -39 c-7 -79 16 -106 103 -119
46 -7 93 15 120 56 15 24 38 205 35 277 -1 19 -1 59 -1 89 1 72 -23 114 -45
79z"/>
<path d="M4434 6629 c-3 -6 -1 -16 5 -22 8 -8 11 -5 11 11 0 24 -5 28 -16 11z"/>
<path d="M4421 6530 c-13 -31 -10 -60 7 -60 9 0 22 46 22 76 0 24 -15 15 -29
-16z"/>
<path d="M4395 5990 c-126 -11 -307 -51 -393 -87 -70 -29 -204 -95 -245 -121
-23 -15 -49 -31 -58 -37 -102 -63 -298 -251 -394 -379 -97 -129 -215 -364
-246 -491 -11 -44 -24 -93 -29 -110 -15 -50 -31 -253 -29 -365 2 -103 48 -385
69 -422 6 -10 10 -23 10 -30 0 -7 14 -42 30 -76 17 -35 30 -70 30 -78 0 -7 22
-51 50 -98 27 -47 50 -88 50 -92 0 -4 17 -28 38 -53 21 -25 47 -61 57 -78 11
-18 22 -33 26 -33 3 0 35 -30 70 -66 76 -77 257 -223 302 -242 17 -7 34 -17
37 -21 4 -7 37 -23 155 -77 70 -31 160 -64 176 -64 10 0 21 -4 24 -10 3 -5 23
-10 43 -10 20 0 53 -5 72 -10 95 -29 396 -40 525 -21 87 14 188 37 280 64 72
22 352 159 370 181 6 7 38 32 72 55 65 44 232 204 296 284 21 26 52 73 68 105
17 31 36 64 44 72 24 27 112 233 143 335 40 128 51 190 63 350 12 176 -3 293
-75 551 -14 51 -71 189 -86 209 -4 6 -11 21 -15 35 -11 34 -89 164 -139 228
-53 70 -216 232 -286 287 -73 56 -197 130 -279 167 -36 17 -85 39 -109 50 -57
25 -256 74 -357 87 -123 16 -261 20 -360 11z m420 -135 c124 -24 187 -41 276
-76 41 -16 78 -29 82 -29 13 0 203 -112 247 -146 77 -60 92 -73 188 -167 51
-51 109 -117 129 -147 20 -30 44 -64 53 -75 24 -27 128 -230 147 -284 22 -64
44 -149 54 -201 4 -25 12 -65 18 -90 6 -25 10 -119 10 -210 0 -139 -4 -181
-24 -265 -39 -165 -46 -190 -56 -199 -5 -6 -9 -19 -9 -29 0 -46 -162 -334
-234 -416 -170 -194 -337 -322 -526 -405 -47 -20 -93 -41 -102 -46 -22 -12
-143 -43 -273 -71 -83 -17 -414 -14 -503 6 -124 26 -311 91 -392 135 -108 59
-204 121 -237 153 -16 15 -34 27 -40 27 -11 0 -194 192 -221 232 -9 14 -29 43
-43 64 -36 55 -109 179 -109 187 0 3 -11 30 -23 59 -43 96 -46 107 -88 288
-39 170 -27 561 20 649 6 11 11 31 11 45 0 14 5 28 10 31 6 3 10 15 10 26 0
10 9 36 20 56 11 21 20 45 20 53 0 8 7 24 15 34 8 11 15 27 15 36 0 10 14 36
30 58 17 23 30 46 30 50 0 34 241 307 345 391 128 104 461 261 552 261 16 0
44 5 63 11 107 32 379 34 535 4z"/>
<path d="M990 7125 c0 -8 5 -15 10 -15 6 0 10 7 10 15 0 8 -4 15 -10 15 -5 0
-10 -7 -10 -15z"/>
<path d="M936 7049 c-20 -23 -24 -35 -15 -38 7 -2 15 1 17 8 2 6 10 18 19 26
8 8 13 20 11 26 -2 7 -17 -3 -32 -22z"/>
<path d="M7940 7023 c0 -12 5 -25 11 -28 5 -4 9 -21 7 -38 -2 -23 1 -32 12
-32 17 0 60 -40 60 -55 0 -5 9 -18 21 -28 11 -11 20 -26 19 -33 -4 -28 0 -49
10 -49 17 0 12 77 -5 84 -8 3 -15 14 -15 24 0 10 -13 31 -30 47 -16 16 -30 36
-30 44 -1 9 -14 32 -30 51 -27 30 -30 32 -30 13z"/>
<path d="M8140 6897 c0 -17 24 -66 30 -62 11 7 -3 58 -18 63 -7 2 -12 2 -12
-1z"/>
<path d="M861 6821 c-8 -5 -11 -16 -8 -24 4 -11 -1 -17 -16 -19 -14 -2 -23
-11 -25 -25 -5 -37 30 -29 52 11 20 38 19 70 -3 57z"/>
<path d="M8180 6795 c0 -14 5 -25 10 -25 6 0 10 11 10 25 0 14 -4 25 -10 25
-5 0 -10 -11 -10 -25z"/>
<path d="M8100 6725 c0 -15 4 -24 10 -20 6 3 10 12 10 20 0 8 -4 17 -10 20 -6
4 -10 -5 -10 -20z"/>
<path d="M8160 6735 c0 -8 4 -15 9 -15 5 0 11 -15 14 -32 11 -67 26 -113 44
-125 17 -13 57 -108 73 -173 9 -39 23 -91 45 -165 8 -27 18 -68 21 -90 l7 -40
9 43 c7 31 5 57 -6 96 -9 30 -16 68 -16 85 0 17 -6 48 -14 68 -8 21 -24 72
-37 113 -12 41 -26 79 -31 85 -4 5 -8 15 -8 23 0 8 -9 33 -19 56 -11 23 -22
49 -25 58 -3 11 -12 15 -25 11 -12 -3 -21 -1 -21 6 0 6 -4 11 -10 11 -5 0 -10
-7 -10 -15z"/>
<path d="M652 6560 c-12 -16 -22 -43 -22 -60 0 -17 -7 -47 -15 -67 -8 -19 -15
-56 -15 -82 -1 -25 -7 -57 -15 -71 -8 -14 -14 -38 -15 -53 0 -16 -10 -68 -21
-118 -19 -80 -21 -105 -14 -254 4 -91 10 -163 15 -160 4 2 10 71 13 152 6 153
19 244 43 301 8 18 14 46 14 63 0 16 6 45 14 63 8 18 11 45 9 60 -4 16 1 33
10 44 13 14 14 26 7 57 -12 49 -12 47 0 65 8 13 11 12 24 -5 15 -20 15 -20 16
1 0 12 -6 27 -14 33 -7 6 -11 22 -8 36 6 32 1 32 -26 -5z"/>
<path d="M8150 6500 c0 -16 5 -30 10 -30 6 0 10 14 10 30 0 17 -4 30 -10 30
-5 0 -10 -13 -10 -30z"/>
<path d="M8170 6410 c-10 -6 -11 -12 -3 -22 6 -7 15 -26 21 -43 10 -29 10 -29
11 17 1 50 -6 62 -29 48z"/>
<path d="M8196 6252 c-2 -4 0 -25 5 -47 5 -22 11 -66 15 -98 4 -38 10 -57 17
-54 7 3 11 11 9 18 -2 8 -6 47 -8 89 -3 41 -7 81 -9 88 -5 13 -21 16 -29 4z"/>
<path d="M717 6106 c-4 -10 -5 -21 -2 -24 9 -9 17 6 13 25 -3 17 -4 17 -11 -1z"/>
<path d="M8220 6001 c0 -10 8 -36 17 -57 l16 -39 10 33 c7 22 7 40 -1 57 -14
29 -42 33 -42 6z"/>
<path d="M717 5945 c-3 -27 -4 -108 -2 -180 3 -71 5 -152 5 -180 1 -34 4 -44
9 -30 10 27 12 349 2 400 l-7 40 -7 -50z"/>
<path d="M8244 5785 c-3 -8 -1 -27 4 -42 10 -27 10 -26 11 15 1 43 -5 54 -15
27z"/>
<path d="M541 5373 c0 -184 3 -293 9 -293 11 0 11 405 0 515 -4 44 -8 -40 -9
-222z"/>
<path d="M8252 5600 c0 -19 2 -27 5 -17 2 9 2 25 0 35 -3 9 -5 1 -5 -18z"/>
<path d="M8252 5510 c0 -19 2 -27 5 -17 2 9 2 25 0 35 -3 9 -5 1 -5 -18z"/>
<path d="M8252 4790 c0 -19 2 -27 5 -17 2 9 2 25 0 35 -3 9 -5 1 -5 -18z"/>
<path d="M540 4641 c0 -103 4 -172 10 -176 7 -4 10 55 10 169 0 111 -4 176
-10 176 -6 0 -10 -63 -10 -169z"/>
<path d="M8246 4712 c-4 -13 -5 -26 -2 -29 10 -11 18 4 14 29 l-4 23 -8 -23z"/>
<path d="M540 4338 c0 -64 3 -88 10 -78 13 20 13 170 0 170 -6 0 -10 -37 -10
-92z"/>
<path d="M545 3864 c-4 -36 -3 -60 4 -67 8 -8 11 8 11 56 0 37 -2 67 -4 67 -2
0 -7 -25 -11 -56z"/>
<path d="M547 3751 c-3 -15 -2 -41 3 -57 7 -25 8 -20 9 29 1 62 -3 73 -12 28z"/>
<path d="M570 3275 c0 -8 5 -15 10 -15 6 0 10 7 10 15 0 8 -4 15 -10 15 -5 0
-10 -7 -10 -15z"/>
<path d="M601 3138 c-1 -33 3 -58 9 -58 12 0 12 67 0 95 -6 14 -9 4 -9 -37z"/>
<path d="M630 2921 c0 -33 5 -63 10 -66 6 -4 10 16 10 54 0 33 -4 63 -10 66
-6 4 -10 -16 -10 -54z"/>
<path d="M8248 2744 c-5 -4 -8 -21 -8 -38 1 -26 2 -28 11 -13 11 19 8 63 -3
51z"/>
<path d="M691 2678 c-1 -20 4 -40 9 -43 12 -7 12 19 0 55 -7 22 -8 21 -9 -12z"/>
<path d="M8210 2584 c0 -14 4 -23 10 -19 6 3 10 15 10 26 0 10 -4 19 -10 19
-5 0 -10 -12 -10 -26z"/>
<path d="M722 2571 c2 -19 9 -36 16 -39 9 -3 11 4 6 25 -10 44 -26 54 -22 14z"/>
<path d="M750 2466 c0 -8 5 -18 10 -21 6 -3 10 3 10 14 0 12 -4 21 -10 21 -5
0 -10 -6 -10 -14z"/>
<path d="M780 2402 c0 -11 7 -33 15 -48 8 -16 15 -37 15 -46 0 -9 5 -20 10
-23 6 -4 10 8 10 28 0 22 -6 37 -15 41 -8 3 -15 16 -15 30 0 14 -4 28 -10 31
-5 3 -10 -3 -10 -13z"/>
<path d="M8097 2307 c-11 -29 -9 -53 4 -40 6 6 9 21 7 34 -3 21 -4 22 -11 6z"/>
<path d="M840 2248 c0 -7 7 -22 15 -32 8 -11 15 -27 15 -37 0 -9 6 -22 14 -29
8 -6 16 -21 18 -32 4 -26 28 -37 28 -13 0 16 -76 155 -85 155 -3 0 -5 -6 -5
-12z"/>
<path d="M8068 2244 c-5 -4 -8 -16 -8 -28 0 -14 3 -17 11 -9 6 6 9 19 7 28 -1
9 -6 13 -10 9z"/>
<path d="M8022 2160 c-22 -30 -28 -50 -14 -50 6 0 37 45 50 73 10 20 -17 3
-36 -23z"/>
<path d="M961 2008 c17 -29 34 -55 38 -58 3 -3 17 -22 31 -42 24 -37 40 -48
40 -29 0 5 -6 16 -13 23 -7 7 -22 32 -33 55 -10 23 -25 43 -31 43 -7 0 -13 8
-13 18 0 21 -18 42 -37 42 -8 0 -1 -19 18 -52z"/>
<path d="M1080 1825 c0 -14 4 -25 9 -25 12 0 25 -14 76 -79 43 -55 55 -62 55
-31 0 11 -7 20 -15 20 -8 0 -15 6 -15 13 0 8 -10 22 -21 33 -12 10 -32 36 -45
57 -28 43 -44 48 -44 12z"/>
<path d="M1230 1648 c0 -6 25 -35 55 -64 67 -64 72 -49 9 24 -47 52 -64 63
-64 40z"/>
<path d="M7611 1621 c-25 -35 -17 -40 18 -10 17 14 21 23 14 30 -7 7 -17 1
-32 -20z"/>
<path d="M6298 1613 c-97 -4 -98 -4 -113 -33 -9 -18 -15 -56 -15 -99 0 -93 4
-95 171 -86 116 7 131 9 154 31 37 34 31 74 -12 94 -39 18 -40 23 -8 40 17 9
25 21 23 34 -3 24 -21 25 -200 19z m141 -69 c10 -8 -8 -14 -65 -20 -77 -8 -85
-10 -78 -28 5 -12 16 -14 49 -9 24 3 56 2 72 -2 44 -11 10 -22 -94 -29 -86 -6
-92 -5 -98 14 -4 11 -4 34 0 50 6 28 8 29 73 32 65 3 133 -1 141 -8z"/>
<path d="M6070 1591 c-5 -11 -10 -42 -10 -70 0 -30 -5 -51 -12 -53 -7 -3 -37
11 -68 29 -30 19 -64 39 -75 46 -11 7 -32 20 -47 30 -30 20 -87 23 -93 5 -2
-7 -6 -57 -10 -111 -5 -86 -4 -98 11 -104 31 -12 49 11 46 58 -3 56 5 89 21
89 7 0 37 -17 67 -37 85 -58 160 -94 183 -91 20 3 23 11 31 100 4 54 6 104 3
113 -9 21 -34 19 -47 -4z"/>
<path d="M5667 1583 c-3 -5 -8 -54 -12 -110 -6 -91 -5 -104 10 -109 31 -12 43
17 45 111 2 50 2 96 1 103 -1 13 -37 17 -44 5z"/>
<path d="M2771 1561 c-18 -12 -21 -24 -21 -91 0 -111 2 -112 196 -123 158 -9
184 -5 184 29 0 24 -24 28 -142 25 -116 -3 -158 2 -158 19 0 15 45 19 155 11
129 -9 150 -1 121 44 -12 19 -23 24 -34 20 -34 -14 -208 -18 -232 -5 -45 24 3
33 135 26 105 -6 124 -5 135 9 11 13 11 18 -1 30 -21 20 -309 25 -338 6z"/>
<path d="M4961 1573 c-65 -2 -121 -9 -128 -15 -10 -8 -13 -37 -11 -112 l3
-101 27 -3 c25 -3 27 0 30 40 l3 43 132 3 c129 3 132 3 152 29 34 42 26 85
-20 108 -15 8 -38 14 -51 13 -13 -1 -74 -4 -137 -5z m142 -68 c-3 -11 -167
-19 -192 -10 -13 5 -14 7 -1 16 20 12 196 7 193 -6z"/>
<path d="M5252 1563 c-5 -10 -12 -59 -16 -109 -7 -99 2 -122 43 -109 18 5 21
16 23 88 l3 82 99 3 c99 3 135 -2 122 -16 -4 -4 -33 -9 -63 -12 -31 -3 -58
-10 -60 -17 -2 -6 19 -34 48 -62 42 -41 59 -51 86 -51 27 0 33 4 33 20 0 11
-7 23 -15 26 -17 7 -21 44 -5 44 20 0 50 41 50 68 0 55 -20 62 -188 62 -134 0
-152 -2 -160 -17z"/>
<path d="M7532 1545 c-37 -42 -44 -72 -12 -55 12 6 25 22 30 35 5 13 14 26 19
30 13 7 15 25 3 25 -4 0 -22 -16 -40 -35z"/>
<path d="M3177 1564 c-4 -4 -7 -13 -7 -20 0 -16 95 -178 114 -193 16 -14 115
-19 133 -8 20 13 113 201 104 210 -5 5 -21 7 -37 5 -25 -3 -34 -13 -64 -72
-58 -115 -80 -114 -146 5 -31 57 -46 75 -65 77 -14 2 -28 0 -32 -4z"/>
<path d="M4558 1563 c-112 -4 -118 -5 -138 -30 -25 -32 -25 -44 1 -77 20 -26
22 -26 150 -26 107 0 129 -3 129 -15 0 -12 -25 -15 -147 -17 l-148 -3 -3 -27
c-2 -18 1 -28 10 -29 7 0 81 0 163 1 147 1 150 1 173 26 29 33 28 59 -3 90
-25 25 -29 26 -123 21 -53 -2 -105 0 -114 5 -41 20 -13 28 101 28 93 0 121 3
131 15 18 21 -4 46 -39 43 -14 -1 -79 -4 -143 -5z"/>
<path d="M3585 1536 c-21 -21 -25 -35 -25 -86 0 -39 6 -69 16 -85 16 -25 16
-25 190 -25 164 0 174 1 174 19 0 34 -23 40 -161 43 -175 4 -171 22 5 25 137
2 162 9 133 41 -16 18 -16 20 3 45 20 25 20 26 3 35 -10 5 -85 10 -166 11
-145 1 -148 1 -172 -23z m248 -42 c33 -3 55 -10 50 -14 -10 -11 -219 -17 -229
-8 -3 4 -4 14 0 23 6 16 21 16 179 -1z"/>
<path d="M3993 1549 c-9 -9 -13 -46 -13 -110 0 -103 7 -118 52 -103 18 5 19
12 13 70 -9 81 0 94 66 94 54 0 69 -13 45 -39 -15 -17 -13 -21 37 -68 50 -48
104 -72 127 -58 12 8 13 35 1 35 -5 0 -16 11 -25 25 -16 24 -16 26 1 32 51 18
68 68 39 109 -13 17 -30 19 -173 22 -117 2 -161 0 -170 -9z m272 -59 c0 -18
-33 -26 -48 -11 -9 9 -8 14 3 21 21 14 45 8 45 -10z"/>
<path d="M1416 1458 c69 -82 124 -131 124 -111 0 13 -120 133 -132 133 -6 0
-3 -10 8 -22z"/>
<path d="M7426 1435 c-14 -13 -26 -30 -26 -37 0 -8 -13 -25 -30 -38 -29 -25
-39 -50 -20 -50 6 0 10 5 10 11 0 6 27 37 60 70 33 32 60 61 60 64 0 13 -30 2
-54 -20z"/>
<path d="M7244 1236 c-22 -22 -51 -48 -64 -56 -12 -8 -41 -29 -64 -46 -23 -18
-50 -33 -61 -35 -10 -2 -17 -8 -15 -14 6 -14 29 -7 65 21 18 13 38 24 46 24 8
0 22 8 31 18 37 38 55 52 67 52 6 0 16 11 22 24 6 13 20 27 30 29 11 3 19 10
19 16 0 23 -37 7 -76 -33z"/>
<path d="M2490 874 c0 -15 37 -33 67 -34 17 0 39 -7 48 -16 9 -9 19 -13 23 -9
9 9 -27 35 -49 35 -9 0 -22 7 -29 15 -12 15 -60 21 -60 9z"/>
<path d="M6355 790 c-4 -6 -3 -16 3 -22 6 -6 12 -6 17 2 4 6 3 16 -3 22 -6 6
-12 6 -17 -2z"/>
<path d="M6137 783 c-18 -17 -2 -24 50 -21 77 4 86 28 11 28 -30 0 -58 -3 -61
-7z"/>
<path d="M2523 748 c-45 -22 -21 -37 68 -42 30 -1 63 -7 74 -13 12 -6 65 -16
119 -22 54 -6 106 -16 116 -21 10 -6 35 -10 55 -10 20 0 45 -5 56 -11 11 -5
61 -12 112 -15 51 -2 117 -9 147 -15 114 -23 371 -38 633 -38 125 1 106 1 277
-4 74 -2 180 -1 235 3 74 5 107 4 126 -6 18 -9 37 -10 65 -4 32 7 293 20 409
21 17 0 46 0 65 0 19 0 85 5 145 10 61 6 130 12 155 13 25 1 61 5 80 9 19 4
108 12 196 17 89 6 184 15 210 20 27 6 65 12 84 15 123 17 160 30 160 55 0 20
-64 55 -82 44 -26 -16 -335 -40 -733 -56 -348 -14 -1390 -18 -1655 -5 -91 4
-239 10 -330 13 -91 3 -190 8 -220 11 -30 3 -72 5 -92 4 -148 -8 -327 6 -433
33 -11 3 -30 0 -42 -6z"/>
<path d="M2870 750 c0 -5 7 -10 15 -10 8 0 15 5 15 10 0 6 -7 10 -15 10 -8 0
-15 -4 -15 -10z"/>
<path d="M6200 730 c0 -5 7 -10 15 -10 8 0 15 5 15 10 0 6 -7 10 -15 10 -8 0
-15 -4 -15 -10z"/>
</g>
</svg>
