<?xml version="1.0" standalone="no"?>
<!DOCTYPE svg PUBLIC "-//W3C//DTD SVG 20010904//EN"
 "http://www.w3.org/TR/2001/REC-SVG-20010904/DTD/svg10.dtd">
<svg version="1.0" xmlns="http://www.w3.org/2000/svg"
 width="155.000000pt" height="150.000000pt" viewBox="0 0 155.000000 150.000000"
 preserveAspectRatio="xMidYMid meet">
<metadata>
Created by potrace 1.10, written by Peter Selinger 2001-2011
</metadata>
<g transform="translate(0.000000,150.000000) scale(0.100000,-0.100000)"
fill="#000000" stroke="none">
<path d="M446 1335 c-119 -24 -216 -102 -269 -213 l-32 -67 -3 -241 c-3 -220
-1 -247 17 -298 38 -110 119 -193 235 -240 47 -19 70 -21 291 -21 225 0 243 1
295 22 l54 23 54 -31 c29 -16 58 -29 63 -27 5 2 -17 17 -50 34 l-60 32 37 26
c48 33 87 83 120 154 l27 57 0 255 0 255 -27 57 c-29 63 -95 139 -149 173 -77
50 -120 57 -343 58 -115 1 -232 -3 -260 -8z m556 -43 c82 -40 157 -119 190
-200 22 -54 23 -69 23 -292 0 -225 -1 -238 -24 -295 -25 -61 -132 -185 -160
-185 -8 0 4 13 27 29 47 35 59 51 38 51 -9 0 -16 -4 -16 -9 0 -13 -81 -64 -88
-55 -4 4 -2 9 5 11 48 17 132 103 101 103 -7 0 -18 -10 -23 -22 -12 -26 -112
-101 -103 -77 5 12 -6 20 -47 33 -32 10 -56 24 -59 34 -3 9 -4 5 -2 -11 2 -15
-1 -30 -5 -33 -5 -3 -9 -2 -10 3 0 4 -2 18 -3 31 -2 13 4 27 12 31 8 5 12 13
8 20 -10 15 -24 14 -22 -1 1 -15 -5 -18 -41 -18 -29 0 -22 14 12 23 12 3 8 5
-10 4 -29 -2 -30 -4 -33 -57 l-3 -55 -157 6 c-130 5 -165 10 -204 27 -27 12
-48 19 -48 17 0 -10 81 -45 119 -51 26 -4 41 -12 41 -21 0 -11 -8 -13 -32 -8
-112 22 -198 75 -198 121 l0 25 26 -28 26 -28 -22 33 c-12 18 -25 30 -28 28
-4 -2 -6 108 -5 246 2 217 1 249 -12 244 -30 -11 -8 87 32 147 25 36 27 37 43
20 15 -16 16 -19 1 -25 -9 -4 84 -7 207 -7 l222 -1 0 33 0 32 -95 2 c-78 2
-95 0 -95 -12 0 -12 19 -15 93 -17 l92 -2 -92 -3 c-51 -2 -93 -8 -93 -13 0 -6
-43 -10 -100 -10 -86 0 -99 2 -88 14 7 8 15 10 16 5 2 -5 37 -9 78 -9 l74 0 0
40 0 40 -75 0 c-73 0 -75 -1 -75 -25 0 -25 0 -25 -20 -5 -11 11 -24 20 -29 20
-5 0 -29 -22 -53 -49 -60 -66 -101 -191 -63 -191 12 0 15 -38 17 -251 2 -138
-1 -253 -5 -256 -18 -11 92 -100 133 -108 11 -2 25 -7 32 -11 16 -10 89 -14
273 -14 158 1 176 2 245 14 56 10 14 -11 -50 -26 -41 -9 -49 -13 -29 -16 15
-2 52 5 83 16 31 10 56 16 56 12 0 -8 -15 -13 -80 -31 -19 -5 -132 -9 -251 -9
-227 -1 -271 6 -345 51 -51 31 -123 115 -152 177 -27 57 -27 57 -27 302 0 244
0 245 27 302 31 68 96 140 155 175 84 49 111 52 363 50 l236 -2 66 -33z m-452
-139 c0 -21 -5 -23 -55 -23 -50 0 -55 2 -55 23 0 20 5 22 55 22 50 0 55 -2 55
-22z m-160 -3 c0 -5 -8 -10 -17 -10 -15 0 -16 2 -3 10 19 12 20 12 20 0z m397
-752 c-3 -8 -6 -5 -6 6 -1 11 2 17 5 13 3 -3 4 -12 1 -19z m43 12 c0 -5 -7
-10 -15 -10 -8 0 -15 5 -15 10 0 6 7 10 15 10 8 0 15 -4 15 -10z m20 -55 c5
-14 12 -25 16 -25 3 0 4 6 1 13 -3 8 -1 20 3 28 7 11 14 9 35 -11 l27 -25 -34
-7 c-18 -4 -108 -6 -200 -6 -137 0 -168 3 -168 14 0 11 23 14 115 14 70 0 115
-4 115 -10 0 -5 5 -10 10 -10 6 0 10 10 10 23 0 18 6 23 30 25 24 2 32 -3 40
-23z"/>
<path d="M437 1309 c-125 -29 -227 -133 -262 -264 -17 -68 -19 -85 -6 -85 5 0
12 24 15 52 19 143 145 268 286 285 45 5 49 4 53 -18 4 -23 4 -23 3 1 l-2 25
161 0 161 0 -2 -25 c-1 -24 -1 -24 3 -1 4 22 8 23 54 18 63 -8 162 -60 200
-106 44 -53 77 -128 89 -201 14 -89 13 -387 -1 -396 -6 -3 -9 -15 -6 -25 3
-10 1 -22 -4 -25 -5 -3 -7 -9 -4 -14 3 -5 1 -11 -5 -15 -6 -4 -8 -11 -5 -16 4
-5 1 -9 -5 -9 -6 0 -8 -4 -5 -10 3 -5 1 -10 -6 -10 -7 0 -9 -3 -6 -6 4 -4 -3
-21 -14 -38 l-21 -31 26 30 c14 17 36 55 49 85 20 51 22 70 22 285 0 257 -6
288 -72 379 -42 58 -137 121 -204 135 -59 13 -438 13 -492 0z"/>
<path d="M438 1224 c-26 -8 -50 -19 -53 -24 -8 -13 -4 -13 38 5 53 22 471 22
524 0 49 -21 56 -10 7 12 -54 25 -444 30 -516 7z"/>
<path d="M800 1160 l0 -40 73 0 72 0 0 38 0 37 -73 3 -72 3 0 -41z m130 -7 c0
-21 -5 -23 -55 -23 -50 0 -55 2 -55 23 0 20 5 22 55 22 51 0 55 -2 55 -22z"/>
<path d="M978 1183 c-19 -5 -33 -37 -23 -53 10 -16 62 -12 69 6 5 14 9 13 25
-7 29 -37 49 -81 57 -124 4 -22 12 -43 18 -47 8 -5 7 -8 -2 -8 -10 0 -12 -52
-11 -245 1 -161 4 -243 11 -239 6 4 9 42 7 93 -2 47 -2 154 -1 238 l2 152 28
4 27 4 -26 2 c-23 1 -28 8 -38 48 -7 25 -19 60 -28 77 -15 31 -82 107 -93 105
-3 -1 -13 -3 -22 -6z m25 -37 c4 -9 0 -13 -11 -11 -9 2 -19 4 -22 4 -4 1 21
20 26 21 1 0 4 -6 7 -14z"/>
<path d="M307 1103 c-12 -11 -8 -23 8 -23 17 0 17 2 15 -133 -1 -79 1 -97 12
-91 11 6 11 5 0 -8 -9 -11 -12 -59 -11 -172 l1 -156 352 0 c194 0 356 -3 359
-7 4 -3 1 -13 -6 -21 -10 -13 -9 -14 11 -3 23 12 30 33 10 28 -10 -1 -14 61
-16 280 l-2 283 -358 2 c-279 2 -356 6 -354 16 2 13 -10 16 -21 5z m50 -55
c-3 -8 -6 -5 -6 6 -1 11 2 17 5 13 3 -3 4 -12 1 -19z m660 0 c-3 -8 -6 -5 -6
6 -1 11 2 17 5 13 3 -3 4 -12 1 -19z m-17 3 c0 -6 -4 -13 -10 -16 -5 -3 -8
-23 -5 -43 3 -20 2 -49 -1 -64 l-6 -28 -299 0 -299 0 0 80 0 80 310 0 c187 0
310 -4 310 -9z m10 -36 c0 -8 -2 -15 -4 -15 -2 0 -6 7 -10 15 -3 8 -1 15 4 15
6 0 10 -7 10 -15z m-647 -76 c-5 -5 -6 11 -3 34 4 41 5 41 8 8 2 -18 0 -37 -5
-42z m654 -19 c-1 -11 -5 -20 -9 -20 -4 0 -8 -7 -8 -15 0 -8 3 -15 8 -15 11 0
14 -91 3 -104 -5 -6 -11 -32 -14 -56 -2 -25 -4 14 -4 87 -1 91 3 133 10 137 7
2 13 5 14 5 1 1 1 -8 0 -19z m-660 -32 c-3 -7 -5 -2 -5 12 0 14 2 19 5 13 2
-7 2 -19 0 -25z m623 -88 l0 -80 -309 0 -309 0 5 -32 c4 -31 4 -32 -11 -13 -8
11 -10 22 -5 23 6 3 5 10 -2 18 -8 10 -8 14 0 14 6 0 11 18 11 44 0 24 3 58 6
75 l7 31 303 0 304 0 0 -80z m41 -76 c-5 -16 -10 -21 -10 -12 -1 18 10 51 15
45 2 -1 -1 -16 -5 -33z m-41 -104 l0 -79 -300 -3 -300 -3 0 83 0 82 300 0 300
0 0 -80z m-613 -17 c-3 -10 -5 -2 -5 17 0 19 2 27 5 18 2 -10 2 -26 0 -35z
m641 -42 c-15 -5 -18 3 -11 29 l7 25 6 -25 c3 -14 2 -27 -2 -29z m-651 -23
c-3 -8 -6 -5 -6 6 -1 11 2 17 5 13 3 -3 4 -12 1 -19z"/>
<path d="M1002 800 c0 -19 2 -27 5 -17 2 9 2 25 0 35 -3 9 -5 1 -5 -18z"/>
<path d="M1040 1101 c0 -6 5 -13 10 -16 6 -4 10 -108 10 -281 0 -151 3 -274 8
-274 9 0 8 528 -2 558 -7 22 -26 31 -26 13z"/>
<path d="M314 800 c0 -151 2 -213 3 -137 2 75 2 199 0 275 -1 75 -3 13 -3
-138z"/>
<path d="M1088 736 l3 -234 -27 -32 -27 -32 -14 26 c-15 28 -41 34 -61 14 -21
-21 -13 -47 21 -64 17 -9 29 -13 25 -9 -11 12 11 35 27 29 8 -3 21 6 31 21 13
20 19 23 25 13 5 -7 9 98 9 235 0 136 0 250 1 254 0 4 -3 9 -8 10 -4 2 -7
-102 -5 -231z m-85 -283 c-4 -10 -9 -11 -19 -2 -19 15 -18 18 5 16 11 -1 17
-6 14 -14z"/>
<path d="M198 953 c6 -2 18 -2 25 0 6 3 1 5 -13 5 -14 0 -19 -2 -12 -5z"/>
<path d="M162 753 c3 -189 4 -201 29 -253 14 -30 36 -66 48 -80 l23 -25 -21
31 c-11 17 -18 34 -14 38 3 3 1 6 -6 6 -7 0 -9 5 -6 10 3 6 1 10 -5 10 -6 0
-8 5 -5 10 3 6 1 10 -5 10 -6 0 -9 4 -5 9 3 5 0 13 -6 16 -5 4 -8 14 -5 22 3
8 3 20 -1 26 -4 7 -6 92 -4 189 2 131 0 178 -9 178 -9 0 -11 -51 -8 -197z"/>
<path d="M240 795 l0 -145 -26 0 c-15 0 -23 -4 -19 -10 4 -6 14 -9 23 -8 15 3
17 -9 20 -84 1 -49 7 -88 12 -88 6 0 10 93 10 240 0 153 -4 240 -10 240 -6 0
-10 -55 -10 -145z"/>
<path d="M1148 638 c9 -9 15 -9 24 0 9 9 7 12 -12 12 -19 0 -21 -3 -12 -12z"/>
<path d="M300 512 c0 -10 21 -32 31 -32 4 0 5 9 2 20 -5 19 -33 29 -33 12z"/>
<path d="M375 502 c22 -2 44 -8 50 -13 5 -5 42 -9 82 -9 74 0 85 -6 64 -39 -7
-11 -53 -16 -118 -12 -6 1 -14 11 -16 24 -3 16 -5 13 -6 -11 l-1 -33 78 3 77
3 -1 43 c-1 23 3 42 8 42 4 0 8 -3 8 -7 0 -5 38 -8 85 -8 47 0 85 3 85 7 0 4
57 9 128 10 70 2 -28 3 -218 3 -190 0 -327 -1 -305 -3z"/>
<path d="M350 471 c-18 -34 10 -68 44 -55 21 8 28 32 16 55 -14 25 -46 25 -60
0z m38 -21 c7 -11 11 -20 9 -20 -2 0 -12 9 -22 20 -10 11 -14 20 -9 20 5 0 15
-9 22 -20z"/>
<path d="M883 483 c15 -2 37 -2 50 0 12 2 0 4 -28 4 -27 0 -38 -2 -22 -4z"/>
<path d="M662 471 c-8 -4 -12 -19 -10 -32 4 -29 45 -34 61 -7 19 30 -19 60
-51 39z m30 -26 c0 -5 -5 -11 -11 -13 -6 -2 -11 4 -11 13 0 9 5 15 11 13 6 -2
11 -8 11 -13z"/>
<path d="M620 446 c0 -33 33 -66 65 -66 14 0 34 9 45 20 21 21 28 70 10 70 -5
0 -10 -10 -10 -23 0 -29 -18 -47 -45 -47 -26 0 -45 18 -45 41 0 10 -4 21 -10
24 -6 4 -10 -5 -10 -19z"/>
<path d="M270 390 c0 -12 55 -53 106 -78 36 -19 157 -43 144 -29 -3 2 -34 12
-70 21 -39 10 -88 32 -122 56 -32 21 -58 35 -58 30z"/>
<path d="M970 390 c-9 -6 -10 -10 -3 -10 6 0 15 5 18 10 8 12 4 12 -15 0z"/>
<path d="M553 283 c15 -2 39 -2 55 0 15 2 2 4 -28 4 -30 0 -43 -2 -27 -4z"/>
<path d="M663 283 c15 -2 37 -2 50 0 12 2 0 4 -28 4 -27 0 -38 -2 -22 -4z"/>
<path d="M803 333 c9 -2 23 -2 30 0 6 3 -1 5 -18 5 -16 0 -22 -2 -12 -5z"/>
<path d="M1204 255 c-18 -19 -23 -31 -19 -48 14 -46 68 -62 98 -29 24 26 21
68 -5 86 -31 22 -45 20 -74 -9z m76 -10 c17 -20 5 -62 -20 -70 -44 -14 -80 41
-48 73 17 17 53 15 68 -3z"/>
<path d="M1220 235 c0 -8 7 -15 15 -15 8 0 15 -7 15 -16 0 -11 -5 -14 -17 -9
-14 5 -15 4 -6 -6 10 -10 16 -9 29 2 15 12 14 15 -5 30 -19 16 -20 18 -4 22
14 4 13 5 -4 6 -14 1 -23 -5 -23 -14z"/>
<path d="M460 180 c0 -22 5 -40 10 -40 6 0 10 7 10 15 0 19 9 19 32 -2 10 -9
18 -11 18 -5 0 6 -5 14 -10 17 -8 5 -7 11 0 20 17 20 3 35 -31 35 -27 0 -29
-2 -29 -40z m53 15 c1 -5 -6 -11 -15 -13 -11 -2 -18 3 -18 13 0 17 30 18 33 0z"/>
<path d="M720 215 c0 -3 7 -22 16 -43 l17 -37 16 37 c9 21 23 39 31 42 11 3
10 4 -3 5 -11 1 -23 -11 -31 -30 l-13 -31 -11 31 c-10 27 -22 42 -22 26z"/>
<path d="M544 186 c-12 -33 23 -65 40 -37 4 5 -3 7 -13 4 -15 -4 -20 0 -18 16
1 12 7 21 15 21 7 0 10 -4 7 -10 -3 -5 -1 -10 5 -10 18 0 6 25 -13 28 -10 2
-20 -4 -23 -12z"/>
<path d="M606 191 c-3 -5 2 -7 13 -4 15 4 19 0 17 -13 -2 -10 -9 -20 -16 -22
-7 -3 -10 0 -6 7 4 6 2 11 -3 11 -6 0 -11 -7 -11 -15 0 -9 10 -15 26 -15 22 0
25 4 22 27 -3 28 -30 43 -42 24z"/>
<path d="M661 168 c1 -22 3 -26 6 -13 3 11 10 26 15 33 8 9 6 12 -6 12 -12 0
-16 -9 -15 -32z"/>
<path d="M790 170 c0 -16 5 -30 10 -30 6 0 10 14 10 30 0 17 -4 30 -10 30 -5
0 -10 -13 -10 -30z"/>
<path d="M824 185 c-13 -32 23 -63 40 -36 4 5 -3 7 -14 4 -15 -4 -20 0 -20 16
0 23 16 29 23 9 2 -7 8 -10 12 -6 10 10 -3 28 -21 28 -8 0 -17 -7 -20 -15z"/>
<path d="M882 169 c10 -30 11 -30 25 -9 8 11 12 26 10 33 -3 7 -9 1 -15 -13
-10 -24 -11 -24 -11 -2 -1 12 -5 22 -10 22 -6 0 -6 -12 1 -31z"/>
<path d="M930 180 c-6 -11 -9 -26 -7 -33 3 -7 10 1 16 17 14 35 7 47 -9 16z"/>
</g>
</svg>
