<?xml version="1.0" standalone="no"?>
<!DOCTYPE svg PUBLIC "-//W3C//DTD SVG 20010904//EN"
 "http://www.w3.org/TR/2001/REC-SVG-20010904/DTD/svg10.dtd">
<svg version="1.0" xmlns="http://www.w3.org/2000/svg"
 width="300.000000pt" height="300.000000pt" viewBox="0 0 300.000000 300.000000"
 preserveAspectRatio="xMidYMid meet">
<metadata>
Created by potrace 1.10, written by Peter Selinger 2001-2011
</metadata>
<g transform="translate(0.000000,300.000000) scale(0.100000,-0.100000)"
fill="#000000" stroke="none">
<path d="M1425 2689 c-301 -43 -514 -230 -598 -524 -13 -47 -21 -113 -24 -201
l-5 -132 -42 -12 c-69 -20 -236 -111 -317 -172 -128 -97 -227 -237 -264 -378
-19 -71 -19 -246 -1 -342 63 -330 327 -553 674 -571 216 -12 448 79 621 242
l54 50 61 -55 c76 -69 145 -115 238 -159 122 -58 184 -70 348 -70 130 1 153 4
225 28 229 76 398 253 465 487 30 105 38 290 16 385 -63 267 -285 472 -575
530 -62 13 -115 16 -205 13 -151 -6 -263 -40 -393 -119 l-88 -54 -95 0 c-87 0
-100 3 -149 30 -113 63 -175 171 -174 307 0 64 5 88 29 135 33 69 102 139 169
172 60 30 182 40 241 21 110 -36 204 -134 238 -246 l18 -59 206 3 c114 2 208
4 208 5 4 4 -27 141 -42 184 -60 178 -216 353 -384 430 -70 32 -170 61 -255
72 -86 12 -114 12 -200 0z m48 -39 c4 0 5 5 1 12 -10 16 174 3 246 -18 30 -8
61 -16 68 -16 6 -1 12 -5 12 -10 0 -4 3 -7 8 -6 13 4 82 -23 82 -33 0 -5 6 -9
14 -9 8 0 21 -6 28 -14 8 -7 23 -16 33 -20 19 -6 144 -116 132 -116 -3 0 10
-15 29 -34 19 -19 34 -41 34 -49 0 -8 7 -18 16 -21 8 -3 12 -10 9 -16 -3 -5
-2 -10 2 -10 20 0 85 -193 81 -241 l-2 -26 -176 1 -175 2 -24 59 c-12 32 -43
83 -67 113 -45 55 -122 115 -136 106 -4 -3 -8 -1 -8 4 0 30 -171 40 -244 15
-21 -7 -43 -10 -49 -6 -5 3 -7 1 -4 -4 4 -6 -8 -18 -26 -26 -29 -14 -97 -74
-122 -109 -40 -54 -79 -181 -69 -225 2 -10 5 -34 7 -53 2 -20 16 -60 30 -90
14 -29 23 -59 20 -64 -3 -6 -2 -8 2 -3 10 9 45 -21 45 -38 0 -7 14 -18 30 -25
17 -7 30 -16 30 -21 0 -13 57 -34 133 -49 63 -13 111 -9 182 13 24 8 85 50 85
59 0 5 4 7 8 4 5 -3 23 4 41 15 18 11 36 17 42 14 5 -4 9 -2 9 2 0 10 80 46
87 39 3 -3 17 0 32 6 60 24 216 31 306 13 102 -20 178 -40 206 -56 13 -7 27
-12 32 -11 4 1 7 -1 7 -6 0 -4 17 -16 38 -27 44 -23 128 -88 159 -124 12 -14
30 -34 40 -44 10 -10 18 -22 18 -27 0 -5 7 -17 15 -27 9 -10 23 -35 33 -56 17
-35 20 -46 31 -104 3 -13 8 -28 13 -35 27 -44 19 -261 -14 -377 -19 -67 -102
-231 -120 -238 -7 -3 -13 -9 -13 -15 0 -11 -50 -58 -62 -58 -5 0 -7 -3 -4 -8
6 -10 -114 -89 -156 -104 -18 -6 -35 -14 -38 -18 -13 -17 -87 -37 -175 -47
-88 -10 -235 -6 -235 7 0 3 -13 5 -30 4 -16 -1 -45 6 -63 16 -19 11 -37 17
-40 14 -3 -3 -16 0 -29 7 -12 7 -26 12 -30 11 -5 -1 -8 3 -8 9 0 5 -5 7 -10 4
-6 -3 -13 0 -16 9 -3 8 -12 12 -20 9 -8 -3 -14 0 -14 6 0 6 -9 11 -21 11 -11
0 -18 4 -15 8 2 4 -7 13 -22 20 -15 6 -39 23 -54 37 -15 14 -32 25 -38 25 -5
0 -10 7 -10 15 0 8 -3 15 -7 15 -5 0 -21 11 -37 25 -16 14 -35 25 -42 25 -7 0
-47 -30 -90 -67 -42 -38 -80 -67 -85 -65 -5 1 -9 -3 -9 -9 0 -5 -3 -8 -8 -5
-4 2 -16 -2 -27 -10 -10 -8 -15 -14 -9 -14 21 -1 -133 -71 -168 -77 -21 -3
-38 -8 -38 -12 0 -3 -10 -7 -22 -8 -13 -1 -41 -5 -63 -10 -39 -7 -196 -9 -245
-3 -14 2 -31 8 -39 14 -11 8 -13 8 -8 -1 5 -8 0 -9 -23 0 -16 6 -30 15 -30 19
0 4 -7 5 -15 2 -8 -4 -23 0 -32 7 -9 8 -17 12 -17 11 -1 -5 -60 21 -66 29 -3
3 -21 14 -40 24 -19 10 -52 36 -74 59 -21 23 -35 34 -31 26 11 -23 -32 29 -73
90 -38 55 -71 119 -91 175 -26 74 -48 275 -30 275 6 0 6 6 0 18 -11 20 -3 101
11 119 5 7 7 17 4 22 -4 5 -2 12 4 16 6 4 8 10 5 15 -3 5 2 15 11 24 8 9 13
20 9 25 -3 5 -1 12 5 16 5 3 17 22 26 41 10 20 32 51 49 70 18 19 30 34 26 34
-3 0 3 7 13 15 11 8 16 15 11 15 -5 0 2 8 15 17 14 10 29 17 33 15 5 -1 6 2 3
7 -8 12 34 42 47 34 6 -3 7 -1 3 5 -4 7 -2 12 5 12 7 0 28 14 46 32 19 18 33
26 33 18 0 -8 8 -4 20 10 11 13 20 20 20 16 0 -4 17 5 37 19 21 14 45 25 55
25 9 0 19 4 23 9 3 5 27 17 54 26 27 9 52 23 55 32 4 9 9 50 11 92 14 219 20
245 78 371 12 25 20 49 19 53 -1 5 2 6 7 3 5 -4 13 3 16 15 17 54 194 219 234
219 6 0 11 4 11 9 0 8 89 37 103 33 4 -1 7 2 7 7 0 8 48 21 125 34 11 2 24 0
30 -5 5 -4 13 -8 18 -8z"/>
<path d="M840 1429 c0 -5 -4 -8 -8 -5 -4 2 -27 -4 -50 -14 -23 -11 -42 -17
-42 -14 0 3 -10 -5 -22 -16 -12 -11 -28 -18 -35 -15 -8 2 -19 -6 -25 -20 -6
-14 -16 -25 -21 -25 -6 0 -8 -3 -5 -6 3 -3 -5 -16 -17 -28 -13 -13 -28 -41
-34 -62 -6 -22 -17 -49 -26 -61 -13 -19 -14 -33 -5 -90 6 -37 20 -87 30 -111
11 -24 17 -49 13 -55 -3 -5 -1 -7 5 -3 6 3 13 -3 17 -14 3 -11 10 -20 15 -20
4 0 25 -16 46 -36 61 -60 135 -88 229 -87 77 1 145 19 160 43 4 6 11 7 17 4 7
-5 8 -2 3 6 -5 8 -3 11 5 8 8 -2 28 11 45 29 l32 34 357 0 357 -1 32 -30 c18
-16 36 -30 40 -30 5 0 5 -5 1 -12 -4 -7 -3 -8 5 -4 6 4 23 -2 37 -13 14 -11
40 -23 58 -26 57 -10 156 -12 156 -3 0 6 5 8 12 6 21 -7 138 42 138 58 0 12
18 23 33 20 4 0 16 18 28 42 12 23 26 42 32 42 6 0 7 3 4 7 -4 3 3 22 15 41
23 37 28 127 13 206 -9 46 -50 122 -70 130 -8 3 -15 13 -15 21 0 9 -4 13 -10
10 -5 -3 -10 0 -10 7 0 14 -91 68 -116 68 -8 0 -13 4 -10 9 3 5 -4 9 -17 10
-93 4 -118 4 -161 -3 -27 -4 -56 -11 -65 -16 -9 -4 -29 -13 -46 -20 -16 -7
-38 -16 -48 -22 -10 -5 -22 -6 -27 -3 -6 4 -10 1 -10 -4 0 -6 -7 -11 -16 -11
-8 0 -22 -7 -31 -15 -12 -12 -18 -13 -29 -4 -12 9 -13 9 -9 -3 5 -11 -6 -18
-42 -28 -26 -7 -52 -16 -58 -21 -18 -13 -108 -24 -185 -22 -109 3 -120 4 -120
12 0 4 -6 8 -12 9 -32 2 -74 14 -109 32 -21 11 -45 20 -54 20 -8 0 -15 4 -15
9 0 5 -11 12 -25 15 -16 4 -23 11 -19 18 4 7 3 8 -5 4 -6 -4 -17 -3 -24 2 -40
33 -287 77 -287 51z m207 -53 c38 -13 113 -45 168 -70 128 -58 210 -79 310
-79 103 1 184 22 320 85 169 78 210 90 300 91 67 1 89 -3 135 -24 70 -33 126
-89 159 -159 37 -79 37 -193 -1 -265 -61 -116 -162 -178 -293 -179 -94 -1
-154 23 -217 86 l-38 38 -368 0 -368 0 -39 -40 c-60 -62 -115 -84 -210 -84
-96 0 -170 29 -232 91 -65 65 -88 123 -88 223 0 73 4 93 28 142 38 78 124 146
212 169 47 12 148 1 222 -25z m-490 -248 c-3 -8 -6 -5 -6 6 -1 11 2 17 5 13 3
-3 4 -12 1 -19z"/>
</g>
</svg>
