<?xml version="1.0" standalone="no"?>
<!DOCTYPE svg PUBLIC "-//W3C//DTD SVG 20010904//EN"
 "http://www.w3.org/TR/2001/REC-SVG-20010904/DTD/svg10.dtd">
<svg version="1.0" xmlns="http://www.w3.org/2000/svg"
 width="300.000000pt" height="300.000000pt" viewBox="0 0 300.000000 300.000000"
 preserveAspectRatio="xMidYMid meet">
<metadata>
Created by potrace 1.10, written by Peter Selinger 2001-2011
</metadata>
<g transform="translate(0.000000,300.000000) scale(0.100000,-0.100000)"
fill="#000000" stroke="none">
<path d="M708 2374 c-26 -8 -50 -19 -54 -25 -4 -7 1 -7 16 1 12 6 49 18 83 25
37 8 50 13 32 14 -16 0 -51 -7 -77 -15z"/>
<path d="M932 2383 c37 -2 100 -2 140 0 40 1 10 3 -67 3 -77 0 -110 -1 -73 -3z"/>
<path d="M1159 2379 c-9 -5 21 -9 77 -9 105 0 180 -22 259 -74 135 -90 223
-224 261 -398 13 -62 15 -120 9 -383 -7 -338 -16 -407 -65 -505 -52 -103 -121
-171 -225 -220 -60 -29 -184 -38 -294 -21 -66 10 -76 10 -109 -8 -71 -37 -108
-45 -116 -24 -3 7 -14 13 -25 13 -11 0 -35 18 -54 40 -19 22 -39 40 -45 40 -6
0 -44 11 -84 24 -120 39 -183 82 -262 179 -37 45 -123 215 -130 257 -3 14 -5
25 -6 25 -9 0 -22 248 -22 418 0 116 6 172 24 216 6 14 13 34 15 44 6 33 55
107 65 100 7 -3 8 -1 4 5 -7 11 27 64 67 104 9 10 17 23 17 28 0 6 12 15 26
20 14 6 23 14 19 20 -3 5 13 23 36 40 23 16 37 30 32 30 -22 0 -114 -94 -181
-183 -86 -115 -85 -114 -116 -224 -20 -70 -26 -115 -26 -190 0 -156 20 -413
36 -468 8 -27 14 -51 14 -53 -1 -9 78 -155 103 -190 38 -53 137 -135 195 -162
24 -12 78 -32 120 -45 94 -30 124 -62 141 -151 7 -32 16 -70 21 -84 5 -14 11
-56 15 -95 6 -77 25 -105 70 -105 l27 0 -2 83 c-1 45 5 113 13 152 9 38 14 73
11 76 -10 17 11 39 41 45 19 3 69 2 112 -2 43 -5 114 -6 158 -3 68 5 89 12
140 42 90 53 138 99 182 174 58 100 83 159 94 222 16 100 23 639 9 706 -14 68
-40 126 -52 119 -4 -3 -5 2 -2 10 3 9 1 16 -5 16 -6 0 -10 3 -10 8 3 17 -2 30
-20 53 -121 152 -224 235 -337 274 -51 17 -205 27 -225 14z m638 -571 c-2 -13
-4 -3 -4 22 0 25 2 35 4 23 2 -13 2 -33 0 -45z m-2 -363 c-4 -75 -9 -134 -12
-131 -3 2 -1 66 3 140 3 75 9 134 12 132 2 -3 1 -66 -3 -141z m-8 -187 c-3 -7
-5 -2 -5 12 0 14 2 19 5 13 2 -7 2 -19 0 -25z m-837 -533 c0 -18 45 -20 84 -5
28 10 29 10 20 -14 -3 -9 -14 -16 -24 -16 -11 0 -21 -4 -24 -9 -3 -5 -15 -7
-26 -4 -11 3 -20 0 -20 -6 0 -14 45 -14 71 -1 15 8 19 7 19 -4 0 -19 -31 -36
-64 -36 -14 0 -26 -5 -26 -11 0 -8 14 -10 40 -6 30 4 40 2 40 -9 0 -8 -5 -14
-11 -14 -7 0 -10 -28 -8 -85 4 -82 3 -85 -18 -85 -18 0 -23 7 -28 45 -4 25 -5
60 -3 80 2 20 -1 36 -8 39 -12 5 -28 60 -25 88 1 9 -2 19 -8 22 -11 7 -3 46
10 46 5 0 9 -7 9 -15z"/>
<path d="M1441 2293 c0 -4 16 -21 35 -36 19 -16 34 -25 33 -20 0 4 -16 21 -35
36 -19 16 -34 25 -33 20z"/>
<path d="M828 2223 c7 -3 16 -2 19 1 4 3 -2 6 -13 5 -11 0 -14 -3 -6 -6z"/>
<path d="M868 2223 c7 -3 16 -2 19 1 4 3 -2 6 -13 5 -11 0 -14 -3 -6 -6z"/>
<path d="M1545 2200 c10 -11 20 -20 23 -20 3 0 -3 9 -13 20 -10 11 -20 20 -23
20 -3 0 3 -9 13 -20z"/>
<path d="M2181 2131 c2 -54 -2 -75 -14 -89 -16 -18 -14 -32 5 -32 5 0 6 6 3
13 -4 6 0 4 8 -6 13 -16 15 -7 16 77 1 60 -2 97 -9 101 -8 5 -11 -14 -9 -64z"/>
<path d="M2242 2160 c1 -17 8 -30 15 -30 8 0 13 12 13 30 0 20 -5 30 -15 30
-11 0 -15 -9 -13 -30z"/>
<path d="M486 2145 c-11 -8 -15 -15 -9 -15 6 0 16 7 23 15 16 19 11 19 -14 0z"/>
<path d="M2295 2110 c-4 -6 -3 -10 2 -11 54 -5 90 -32 120 -89 21 -39 23 -56
23 -186 l0 -143 -32 -37 c-39 -44 -90 -67 -128 -59 l-27 6 -8 -83 c-13 -144
-12 -381 3 -385 9 -4 12 27 10 134 0 76 3 174 8 218 l9 80 46 5 c49 6 109 44
131 83 9 15 13 69 13 172 0 136 -2 154 -22 192 -33 61 -132 129 -148 103z"/>
<path d="M2148 2073 c-30 -35 -38 -63 -38 -139 0 -43 3 -75 6 -72 3 3 5 40 5
81 0 64 4 82 24 111 26 39 27 47 3 19z"/>
<path d="M2300 2076 c0 -2 7 -7 16 -10 8 -3 12 -2 9 4 -6 10 -25 14 -25 6z"/>
<path d="M2247 2040 c3 -11 9 -17 14 -14 17 10 64 -34 78 -72 13 -37 13 -38
-14 -60 l-27 -22 26 5 c26 5 26 5 26 -60 0 -38 5 -69 11 -73 8 -5 10 19 7 87
-4 110 -29 171 -81 207 -41 27 -47 27 -40 2z"/>
<path d="M2137 2003 c-4 -3 -7 -11 -7 -17 0 -6 5 -5 12 2 6 6 9 14 7 17 -3 3
-9 2 -12 -2z"/>
<path d="M2249 2007 c-6 -13 -7 -47 -1 -47 9 1 42 26 42 32 0 5 -39 19 -41 15z"/>
<path d="M2173 1975 c11 -26 19 -213 11 -227 -11 -18 -5 -78 12 -110 8 -16 10
-28 5 -28 -12 0 -22 -127 -27 -325 -3 -158 -3 -160 -29 -178 -33 -25 -49 -54
-29 -54 7 0 14 6 14 13 0 7 12 19 28 26 l27 13 8 195 c6 166 9 220 16 301 1 5
7 7 14 3 9 -6 9 -5 1 7 -7 8 -14 34 -17 59 -3 25 -6 52 -8 60 -1 8 -1 39 -1
68 2 42 5 52 20 53 10 0 12 3 5 6 -8 3 -13 26 -14 61 -1 44 -3 51 -9 32 -8
-24 -8 -23 -9 8 -1 17 -6 32 -12 32 -6 0 -9 -7 -6 -15z"/>
<path d="M1316 1915 c3 -16 10 -36 15 -44 7 -12 8 -6 3 19 -3 19 -10 39 -15
44 -5 5 -6 -3 -3 -19z"/>
<path d="M2232 1910 c0 -14 2 -19 5 -12 2 6 2 18 0 25 -3 6 -5 1 -5 -13z"/>
<path d="M2132 1850 c0 -19 2 -27 5 -17 2 9 2 25 0 35 -3 9 -5 1 -5 -18z"/>
<path d="M2151 1864 c0 -11 3 -14 6 -6 3 7 2 16 -1 19 -3 4 -6 -2 -5 -13z"/>
<path d="M2265 1862 c-6 -4 -12 -38 -14 -75 -2 -67 -2 -68 19 -57 11 6 25 8
30 5 5 -3 12 -1 15 5 4 6 3 10 -2 9 -4 -1 -18 2 -30 6 -31 10 -33 65 -3 65 21
0 24 8 14 34 -7 18 -14 19 -29 8z"/>
<path d="M793 1814 c15 -8 27 -20 27 -27 0 -8 -3 -8 -9 1 -15 25 -46 9 -49
-25 -3 -27 2 -34 26 -47 27 -14 31 -14 43 1 10 12 10 15 2 9 -7 -4 -13 -2 -13
3 0 6 5 11 10 11 6 0 10 13 10 29 0 31 -30 61 -60 61 -8 -1 -3 -7 13 -16z m37
-54 c0 -5 -12 -10 -26 -10 -14 0 -23 4 -19 10 3 6 15 10 26 10 10 0 19 -4 19
-10z"/>
<path d="M2151 1804 c0 -11 3 -14 6 -6 3 7 2 16 -1 19 -3 4 -6 -2 -5 -13z"/>
<path d="M2111 1794 c0 -11 3 -14 6 -6 3 7 2 16 -1 19 -3 4 -6 -2 -5 -13z"/>
<path d="M2130 1772 c0 -13 -4 -20 -10 -17 -5 3 -7 0 -4 -9 6 -16 34 -10 34 8
0 6 -5 18 -10 26 -8 12 -10 10 -10 -8z"/>
<path d="M2120 1691 c0 -17 4 -32 8 -35 4 -2 6 11 4 30 -5 42 -12 45 -12 5z"/>
<path d="M2330 1679 c0 -11 4 -18 10 -14 5 3 7 12 3 20 -7 21 -13 19 -13 -6z"/>
<path d="M2232 1660 c0 -19 2 -27 5 -17 2 9 2 25 0 35 -3 9 -5 1 -5 -18z"/>
<path d="M2282 1628 c-18 -11 -31 -22 -29 -24 8 -8 80 21 85 34 5 17 -18 13
-56 -10z"/>
<path d="M2149 1626 c16 -19 44 -21 39 -3 -3 6 -15 14 -28 15 -21 3 -22 2 -11
-12z"/>
<path d="M1362 1320 c0 -19 2 -27 5 -17 2 9 2 25 0 35 -3 9 -5 1 -5 -18z"/>
<path d="M1350 1207 c0 -42 4 -77 9 -77 11 0 8 136 -2 147 -4 3 -7 -28 -7 -70z"/>
<path d="M483 1244 c-7 -20 4 -30 43 -38 29 -7 31 -5 27 18 -3 14 -14 27 -26
30 -32 9 -37 7 -44 -10z m57 -14 c0 -5 -9 -10 -21 -10 -11 0 -17 5 -14 10 3 6
13 10 21 10 8 0 14 -4 14 -10z"/>
<path d="M570 1243 c-1 -42 32 -57 50 -23 6 11 7 20 1 20 -5 0 -12 -8 -16 -17
-6 -16 -8 -15 -20 7 -8 14 -14 20 -15 13z"/>
<path d="M637 1220 c-6 -25 0 -30 35 -30 25 0 29 4 26 22 -4 30 -54 36 -61 8z
m53 -10 c0 -5 -10 -10 -22 -10 -19 0 -20 2 -8 10 19 13 30 13 30 0z"/>
<path d="M711 1203 c1 -17 3 -21 6 -10 6 21 17 22 34 1 11 -14 13 -14 21 0 13
23 1 36 -33 36 -25 0 -29 -3 -28 -27z"/>
<path d="M793 1195 c0 -21 4 -25 28 -25 24 0 29 4 29 23 0 18 -6 23 -29 25
-24 2 -28 -1 -28 -23z m44 -11 c-3 -3 -12 -4 -19 -1 -8 3 -5 6 6 6 11 1 17 -2
13 -5z"/>
<path d="M863 1191 c1 -16 6 -19 32 -14 36 7 39 9 30 22 -3 6 -19 11 -35 11
-22 0 -28 -4 -27 -19z"/>
<path d="M940 1180 c0 -11 4 -20 10 -20 5 0 7 7 4 15 -5 11 1 15 17 15 17 0
20 -3 11 -9 -10 -6 -10 -10 2 -20 11 -9 15 -9 19 1 4 10 6 10 6 1 1 -16 41
-17 41 -2 0 8 5 7 15 -1 9 -7 25 -14 38 -16 12 -2 34 -7 50 -10 24 -6 27 -4
27 20 0 25 -3 26 -45 24 -25 0 -45 -5 -45 -10 0 -5 -11 -1 -24 7 -19 13 -25
13 -29 3 -4 -9 -6 -9 -6 2 -1 11 -14 16 -46 18 -40 2 -45 0 -45 -18z m210 -20
c-19 -13 -30 -13 -30 0 0 6 10 10 23 10 18 0 19 -2 7 -10z"/>
<path d="M2295 1100 c11 -4 34 -14 52 -20 42 -16 102 -74 120 -118 20 -49 19
-322 -2 -362 -24 -47 -62 -70 -115 -70 -56 0 -77 -19 -75 -69 2 -42 25 -55 25
-14 0 43 12 52 70 58 41 4 62 13 84 33 47 45 56 78 56 220 0 157 -15 217 -68
270 -39 39 -119 82 -149 81 -16 0 -15 -2 2 -9z"/>
<path d="M2235 1091 c3 -5 -5 -17 -17 -25 -22 -16 -22 -16 14 -16 43 0 59 17
33 37 -22 15 -39 17 -30 4z"/>
<path d="M2293 997 c2 -34 8 -70 12 -79 4 -9 4 -22 0 -28 -3 -5 -1 -10 6 -10
7 0 10 -11 7 -29 l-4 -28 33 20 c18 10 41 17 51 15 13 -4 18 1 20 19 3 36 -31
93 -83 140 l-47 42 5 -62z m59 -14 c28 -31 62 -92 55 -100 -3 -2 -23 1 -45 8
-30 8 -41 18 -45 35 -3 16 0 24 10 24 12 0 12 3 -1 16 -17 16 -22 44 -8 44 5
0 20 -12 34 -27z"/>
<path d="M2110 1013 c-8 -16 -15 -31 -17 -35 -2 -4 5 -7 14 -7 10 1 29 -2 43
-6 24 -7 24 -6 -5 18 -38 32 -29 42 18 22 41 -17 107 -20 107 -5 0 6 -16 10
-35 10 -20 0 -52 7 -72 15 -19 8 -36 15 -38 15 -1 0 -8 -12 -15 -27z"/>
<path d="M1357 1003 c-4 -3 -7 -13 -7 -22 1 -13 3 -13 11 2 11 19 8 33 -4 20z"/>
<path d="M2228 963 c-21 -2 -38 -9 -38 -14 0 -15 83 -6 88 9 2 6 0 11 -5 10
-4 -1 -25 -3 -45 -5z"/>
<path d="M1325 938 l-20 -21 23 12 c12 6 22 16 22 21 0 13 -2 12 -25 -12z"/>
<path d="M2111 945 c8 -39 169 -77 169 -39 0 11 -6 14 -21 9 -26 -9 -108 12
-133 34 -17 15 -18 15 -15 -4z"/>
<path d="M1204 918 l-19 -23 23 19 c21 18 27 26 19 26 -2 0 -12 -10 -23 -22z"/>
<path d="M1270 899 c-22 -18 -22 -19 -3 -10 12 6 25 16 28 21 9 15 3 12 -25
-11z"/>
<path d="M1220 900 c-9 -6 -10 -10 -3 -10 6 0 15 5 18 10 8 12 4 12 -15 0z"/>
<path d="M2070 895 c-6 -8 -10 -19 -8 -26 2 -6 9 0 16 15 13 29 10 33 -8 11z"/>
<path d="M2100 895 c0 -14 29 -35 49 -35 20 0 11 15 -19 32 -25 14 -30 14 -30
3z"/>
<path d="M1156 881 c-19 -21 -12 -28 13 -12 7 5 12 14 9 21 -2 7 -10 4 -22 -9z"/>
<path d="M2090 863 c0 -6 8 -25 17 -42 17 -29 17 -31 0 -48 -16 -16 -17 -16
-17 4 0 11 -7 34 -15 49 l-15 29 0 -28 c0 -16 9 -42 21 -58 l20 -29 -20 -26
c-36 -46 -20 -130 32 -170 13 -11 26 -29 28 -39 2 -10 9 -20 16 -22 7 -3 9 4
6 18 -5 16 -3 20 6 14 7 -4 10 -17 7 -30 -3 -13 -2 -26 3 -29 5 -3 12 6 15 20
5 18 12 24 22 20 9 -3 20 -6 25 -6 5 0 9 -11 9 -25 0 -14 5 -25 10 -25 12 0
13 12 1 43 -7 17 -20 26 -46 31 -80 15 -139 70 -139 129 0 18 11 51 24 73 14
21 23 45 22 52 -6 25 32 8 46 -21 7 -15 18 -27 25 -27 8 0 8 3 -1 12 -17 17
-15 38 5 60 15 17 15 18 0 18 -10 0 -17 -7 -17 -15 0 -8 -4 -15 -9 -15 -19 0
-41 13 -41 24 0 6 -9 25 -20 41 -11 17 -20 25 -20 18z"/>
<path d="M2184 861 c-14 -15 3 -22 48 -19 68 4 74 23 7 23 -28 0 -53 -2 -55
-4z"/>
<path d="M918 833 c6 -2 18 -2 25 0 6 3 1 5 -13 5 -14 0 -19 -2 -12 -5z"/>
<path d="M1005 820 c-3 -5 -1 -10 4 -10 6 0 11 5 11 10 0 6 -2 10 -4 10 -3 0
-8 -4 -11 -10z"/>
<path d="M1035 809 c4 -5 22 -9 42 -9 45 0 40 5 -10 13 -22 3 -35 2 -32 -4z"/>
<path d="M2233 803 c9 -2 25 -2 35 0 9 3 1 5 -18 5 -19 0 -27 -2 -17 -5z"/>
<path d="M981 784 c0 -11 3 -14 6 -6 3 7 2 16 -1 19 -3 4 -6 -2 -5 -13z"/>
<path d="M2385 778 c-51 -14 -62 -30 -66 -86 -2 -29 0 -52 5 -52 5 0 3 -7 -4
-15 -18 -22 -2 -18 28 6 25 20 25 21 5 15 -30 -10 -29 2 3 35 23 24 24 27 6
23 -33 -9 -34 13 -1 40 17 14 35 26 40 26 5 0 9 -20 9 -44 0 -34 -3 -43 -16
-42 -9 0 -18 -3 -20 -9 -2 -5 8 -10 24 -11 26 -1 27 1 30 57 1 31 -1 59 -5 62
-4 2 -21 0 -38 -5z"/>
<path d="M2217 753 c3 -7 6 -13 8 -13 2 0 5 6 8 13 3 8 -1 14 -8 14 -7 0 -11
-6 -8 -14z"/>
<path d="M2255 720 c-13 -5 -14 -9 -5 -9 8 0 24 4 35 9 13 5 14 9 5 9 -8 0
-24 -4 -35 -9z"/>
<path d="M2092 668 c5 -17 94 -61 110 -55 7 2 -7 10 -31 18 -24 7 -48 21 -55
31 -12 20 -30 24 -24 6z"/>
<path d="M2426 603 c-6 -14 -5 -15 5 -6 7 7 10 15 7 18 -3 3 -9 -2 -12 -12z"/>
<path d="M2215 570 c3 -5 11 -10 16 -10 6 0 7 5 4 10 -3 6 -11 10 -16 10 -6 0
-7 -4 -4 -10z"/>
</g>
</svg>
