<?xml version="1.0" standalone="no"?>
<!DOCTYPE svg PUBLIC "-//W3C//DTD SVG 20010904//EN"
 "http://www.w3.org/TR/2001/REC-SVG-20010904/DTD/svg10.dtd">
<svg version="1.0" xmlns="http://www.w3.org/2000/svg"
 width="175.000000pt" height="254.000000pt" viewBox="0 0 175.000000 254.000000"
 preserveAspectRatio="xMidYMid meet">
<metadata>
Created by potrace 1.10, written by Peter Selinger 2001-2011
</metadata>
<g transform="translate(0.000000,254.000000) scale(0.100000,-0.100000)"
fill="#000000" stroke="none">
<path d="M657 2426 c-47 -13 -121 -63 -120 -81 0 -6 -7 -15 -16 -22 -9 -7 -12
-13 -7 -13 6 0 1 -6 -10 -14 -18 -13 -19 -28 -19 -188 l0 -173 34 -48 c18 -27
29 -52 25 -56 -5 -4 -67 -50 -139 -101 -72 -52 -132 -98 -135 -102 -3 -4 -12
-3 -20 2 -28 18 -76 11 -98 -13 -40 -43 -25 -107 29 -126 61 -21 118 33 100
96 -9 30 -8 31 142 140 l150 109 24 -22 c12 -11 48 -26 80 -33 76 -15 97 -13
48 4 -22 8 -45 13 -52 10 -7 -2 -15 0 -19 6 -3 6 -12 8 -19 5 -7 -2 -16 2 -19
10 -3 9 -10 12 -16 9 -5 -3 -10 -1 -10 5 0 6 -11 16 -25 22 -14 6 -25 20 -25
30 0 11 -4 17 -9 13 -6 -3 -8 4 -6 16 3 15 0 19 -11 15 -11 -4 -12 -2 -4 14
15 27 12 43 -5 36 -13 -4 -13 -2 -5 14 13 25 13 206 -1 232 -7 13 -7 18 -1 14
16 -10 24 11 12 34 -9 16 -8 19 6 13 11 -4 15 -2 11 4 -4 6 0 14 9 17 9 4 14
9 10 13 -3 3 3 13 15 21 11 8 18 20 16 26 -3 7 1 13 9 13 7 0 10 -5 7 -10 -4
-6 -1 -7 6 -3 7 5 10 14 8 20 -3 7 1 13 9 13 7 0 11 -4 9 -8 -3 -4 4 -5 16 -2
12 3 18 11 15 20 -4 11 -1 11 14 3 23 -12 44 -4 34 13 -5 8 -3 8 7 0 8 -9 45
-13 105 -13 65 0 94 4 97 13 3 7 6 5 6 -5 1 -21 5 -22 32 -8 15 8 19 8 17 -2
-4 -16 24 -17 29 -1 10 30 -244 45 -340 19z m-409 -812 c15 -10 22 -25 22 -46
0 -42 -25 -68 -66 -68 -57 0 -85 69 -44 110 24 24 57 26 88 4z"/>
<path d="M176 1594 c-17 -45 5 -91 38 -78 22 9 20 41 -4 56 -26 17 -26 31 1
23 15 -5 19 -4 15 4 -11 16 -43 13 -50 -5z m38 -40 c7 -18 0 -34 -15 -34 -5 0
-9 11 -9 25 0 28 15 34 24 9z"/>
<path d="M1005 2401 c-4 -7 -2 -18 4 -24 6 -6 11 -7 11 -3 0 5 10 -3 21 -18
12 -15 27 -25 34 -23 6 3 12 -1 12 -9 0 -7 -4 -11 -9 -8 -5 4 -4 -3 3 -14 7
-12 17 -18 23 -15 5 4 7 -1 3 -11 -4 -10 -4 -23 0 -29 4 -6 6 -65 5 -130 -1
-66 3 -128 9 -138 7 -15 7 -19 -3 -17 -8 2 -12 -6 -11 -20 2 -13 -1 -21 -5
-18 -5 3 -9 -1 -10 -9 -1 -8 -3 -21 -4 -29 -1 -13 -38 -42 -38 -31 0 3 7 17
16 31 9 13 14 28 10 31 -4 4 -9 -2 -12 -13 -3 -11 -25 -32 -50 -48 -25 -16
-43 -31 -40 -33 3 -3 18 4 34 16 28 19 42 19 42 -1 0 -5 -4 -7 -9 -3 -6 3 -14
-3 -20 -12 -6 -10 -11 -14 -11 -10 0 4 -9 3 -20 -3 -13 -7 -20 -7 -20 -1 0 10
-51 41 -66 41 -3 0 -1 -7 6 -15 11 -13 8 -15 -14 -15 -19 0 -26 5 -26 20 0 12
5 17 13 14 7 -2 21 2 32 10 17 12 18 17 7 28 -11 11 -12 10 -7 -3 5 -13 0 -15
-25 -11 -28 4 -30 2 -30 -27 l0 -31 -87 1 c-89 1 -154 16 -161 37 -4 13 10 15
84 12 49 -2 77 11 54 25 -5 3 -10 1 -10 -4 0 -13 -59 -14 -78 -2 -19 12 8 21
63 21 37 0 44 -3 49 -24 12 -47 69 -40 78 9 4 19 1 25 -12 25 -19 0 -46 -27
-37 -36 9 -9 28 6 22 17 -4 5 -1 9 5 9 20 0 5 -35 -16 -38 -25 -4 -42 27 -22
40 9 5 5 8 -12 10 -14 1 36 5 110 8 l135 5 -2 30 c-2 29 -2 29 6 5 6 -16 9 33
10 137 1 96 5 164 11 168 6 4 10 -7 10 -24 0 -17 5 -31 10 -31 13 0 13 12 0
45 -5 14 -14 24 -19 20 -5 -3 -12 -1 -16 5 -4 6 -10 8 -14 6 -4 -3 -7 5 -7 17
1 17 -5 22 -21 21 -13 0 -23 3 -23 8 0 4 -20 8 -45 8 -42 0 -45 -2 -45 -26 0
-25 2 -26 50 -22 28 1 51 0 53 -4 1 -4 12 -9 24 -11 12 -2 26 -6 29 -10 4 -4
-95 -7 -219 -7 -153 0 -227 3 -227 11 0 5 6 7 13 3 6 -4 8 -3 4 1 -12 14 -35
14 -45 2 -14 -19 -25 -70 -12 -62 5 3 10 17 10 30 0 13 5 27 12 31 8 5 9 2 5
-10 -4 -10 -7 -29 -7 -42 0 -15 -6 -24 -15 -24 -13 0 -15 -22 -15 -140 0 -79
4 -140 9 -140 6 0 7 52 4 129 -4 89 -2 130 6 135 8 5 11 -31 11 -128 0 -117 2
-137 18 -148 19 -14 28 -48 13 -48 -23 0 -41 14 -41 31 0 10 -4 19 -10 19 -34
0 13 -56 72 -86 46 -24 60 -26 186 -26 77 0 129 -3 122 -8 -8 -5 -18 -6 -22
-4 -4 3 -8 1 -8 -5 0 -5 -8 -12 -17 -14 -16 -4 27 0 78 6 9 1 108 -69 222
-155 l205 -157 -5 -39 c-5 -34 -2 -41 28 -66 38 -33 72 -29 107 11 60 67 -32
159 -106 107 -12 -8 -22 -11 -22 -6 0 5 -88 76 -195 157 -107 82 -195 151
-195 155 0 3 17 16 38 29 51 31 92 98 97 156 4 43 7 201 6 253 -1 13 -5 20
-11 17 -7 -4 -9 2 -5 17 4 16 -4 37 -25 68 -27 40 -36 45 -30 15 1 -5 -2 -6
-7 -2 -4 5 -8 15 -8 23 0 7 -3 13 -7 11 -4 -1 -13 7 -21 17 -10 14 -16 16 -22
7z m-45 -81 c0 -5 -16 -10 -36 -10 -21 0 -33 4 -29 10 3 6 19 10 36 10 16 0
29 -4 29 -10z m-335 -391 c22 -5 24 -7 8 -8 -53 -3 -53 -2 -51 183 l2 171 6
-170 5 -170 30 -6z m365 286 l0 -45 -184 0 -184 0 2 45 1 45 182 0 183 0 0
-45z m-383 -7 c-3 -8 -6 -5 -6 6 -1 11 2 17 5 13 3 -3 4 -12 1 -19z m420 -20
c-3 -8 -6 -5 -6 6 -1 11 2 17 5 13 3 -3 4 -12 1 -19z m-37 -84 l0 -44 -186 2
-187 3 -2 33 c-2 17 2 32 7 32 7 0 7 4 0 13 -8 9 28 11 179 9 l189 -3 0 -45z
m23 31 c-3 -9 -8 -14 -10 -11 -3 3 -2 9 2 15 9 16 15 13 8 -4z m14 -62 c-3
-10 -5 -2 -5 17 0 19 2 27 5 18 2 -10 2 -26 0 -35z m-37 -78 l0 -45 -180 0
-180 1 0 45 0 44 180 0 180 0 0 -45z m40 30 c0 -8 -2 -15 -4 -15 -2 0 -6 7
-10 15 -3 8 -1 15 4 15 6 0 10 -7 10 -15z m-413 -37 c-3 -8 -6 -5 -6 6 -1 11
2 17 5 13 3 -3 4 -12 1 -19z m121 -65 c-10 -2 -26 -2 -35 0 -10 3 -2 5 17 5
19 0 27 -2 18 -5z m760 -450 c31 -28 35 -56 11 -86 -15 -20 -30 -27 -54 -27
-36 0 -50 12 -60 52 -5 21 -1 33 19 52 29 30 56 33 84 9z"/>
<path d="M758 1994 c-16 -8 -28 -19 -28 -24 0 -18 26 -10 50 15 26 28 18 31
-22 9z"/>
<path d="M1437 1463 c-4 -3 -7 -15 -7 -25 0 -15 5 -18 20 -13 23 7 39 -20 22
-37 -8 -8 -16 -7 -28 3 -15 12 -17 12 -12 -1 2 -8 16 -15 29 -15 20 0 24 5 24
30 0 23 -5 31 -25 36 l-25 6 25 11 c23 10 23 11 4 11 -11 1 -24 -2 -27 -6z"/>
<path d="M702 2380 c-12 -20 -10 -20 108 -20 118 0 120 0 108 20 -7 11 -14 16
-16 10 -2 -6 -41 -10 -92 -10 -51 0 -90 4 -92 10 -2 6 -9 1 -16 -10z"/>
<path d="M658 2363 c7 -3 16 -2 19 1 4 3 -2 6 -13 5 -11 0 -14 -3 -6 -6z"/>
<path d="M948 2363 c7 -3 16 -2 19 1 4 3 -2 6 -13 5 -11 0 -14 -3 -6 -6z"/>
<path d="M650 2341 c0 -5 -8 -7 -19 -4 -21 5 -36 -21 -18 -34 7 -5 38 -7 70
-5 52 4 57 6 57 28 0 22 -4 24 -45 24 -25 0 -45 -4 -45 -9z m80 -21 c0 -5 -16
-10 -35 -10 -19 0 -35 5 -35 10 0 6 16 10 35 10 19 0 35 -4 35 -10z"/>
<path d="M750 2303 c0 -21 4 -23 60 -23 56 0 60 2 60 23 0 20 -4 22 -60 22
-56 0 -60 -2 -60 -22z m53 0 c-7 -2 -19 -2 -25 0 -7 3 -2 5 12 5 14 0 19 -2
13 -5z"/>
<path d="M1050 2074 c0 -157 3 -153 -112 -156 -61 -1 -64 -2 -22 -5 41 -3 53
-8 57 -23 7 -29 34 -24 50 8 7 15 19 26 25 25 9 -2 12 33 12 132 0 83 4 135
10 135 6 0 10 4 10 8 0 5 -7 9 -15 9 -13 0 -15 -22 -15 -133z"/>
<path d="M650 1850 c8 -5 24 -10 34 -10 26 0 18 6 -19 14 -22 5 -26 4 -15 -4z"/>
<path d="M958 1853 c7 -3 16 -2 19 1 4 3 -2 6 -13 5 -11 0 -14 -3 -6 -6z"/>
<path d="M743 1833 c9 -2 23 -2 30 0 6 3 -1 5 -18 5 -16 0 -22 -2 -12 -5z"/>
<path d="M776 1763 c4 -10 10 -100 12 -200 l4 -183 -22 0 c-23 0 -95 -39 -87
-47 3 -2 20 6 40 17 48 28 121 29 176 1 22 -12 41 -18 41 -13 0 11 -66 42 -90
42 -18 0 -20 8 -22 103 l-2 102 -3 -97 c-2 -54 -8 -98 -13 -98 -13 0 -13 300
0 320 7 11 10 -6 11 -55 l2 -70 7 65 c4 36 10 80 14 98 l8 32 -42 0 c-36 0
-41 -2 -34 -17z"/>
<path d="M770 1311 c-38 -12 -93 -42 -87 -47 3 -3 18 1 34 9 15 8 38 18 51 21
l22 7 0 -167 0 -168 -31 -25 c-26 -22 -31 -35 -36 -87 -7 -74 9 -126 42 -144
24 -13 25 -16 25 -132 0 -98 -3 -118 -15 -118 -8 0 -15 -7 -15 -15 0 -8 5 -15
10 -15 6 0 10 4 10 9 0 16 51 19 66 4 12 -13 14 -12 14 1 0 9 -7 16 -15 16
-12 0 -15 20 -15 120 0 94 3 120 13 120 8 0 22 9 33 21 16 17 19 37 19 106 0
84 -1 86 -32 112 l-33 27 0 167 c0 185 -2 181 65 147 45 -23 45 -23 45 -12 0
12 -68 40 -110 46 -19 3 -46 1 -60 -3z m50 -181 c0 -107 -4 -170 -10 -170 -6
0 -10 63 -10 170 0 107 4 170 10 170 6 0 10 -63 10 -170z m38 -219 c13 -16 14
-162 1 -175 -3 -3 -19 -9 -36 -12 -49 -10 -73 22 -73 94 0 31 3 67 6 78 11 42
73 52 102 15z m-38 -336 c0 -70 -4 -115 -10 -115 -6 0 -10 45 -10 115 0 70 4
115 10 115 6 0 10 -45 10 -115z"/>
<path d="M790 845 c-7 -8 -10 -22 -6 -30 7 -20 40 -19 57 1 11 14 10 18 -6 30
-24 18 -30 18 -45 -1z"/>
<path d="M784 428 c-3 -5 -12 -7 -20 -4 -7 3 -25 -9 -39 -25 -23 -28 -25 -39
-25 -117 0 -94 12 -131 48 -147 12 -5 22 -13 22 -18 0 -4 11 -5 25 -1 15 4 32
1 40 -6 12 -10 15 -10 15 1 0 8 10 19 23 24 40 18 59 71 54 158 -3 69 -7 81
-32 107 -15 16 -32 27 -36 24 -4 -2 -10 0 -13 5 -7 11 -55 11 -62 -1z m95 -43
c12 -12 16 -36 16 -104 0 -111 -13 -131 -85 -131 -63 0 -81 21 -87 102 -6 80
6 129 38 146 30 16 96 9 118 -13z"/>
<path d="M787 313 c-12 -12 -7 -60 7 -72 11 -9 19 -9 35 1 24 15 25 17 11 52
-9 25 -38 35 -53 19z m37 -11 c2 -4 -4 -8 -14 -8 -10 0 -16 4 -14 8 3 4 9 8
14 8 5 0 11 -4 14 -8z"/>
</g>
</svg>
