<?xml version="1.0" standalone="no"?>
<!DOCTYPE svg PUBLIC "-//W3C//DTD SVG 20010904//EN"
 "http://www.w3.org/TR/2001/REC-SVG-20010904/DTD/svg10.dtd">
<svg version="1.0" xmlns="http://www.w3.org/2000/svg"
 width="216.000000pt" height="144.000000pt" viewBox="0 0 216.000000 144.000000"
 preserveAspectRatio="xMidYMid meet">
<metadata>
Created by potrace 1.10, written by Peter Selinger 2001-2011
</metadata>
<g transform="translate(0.000000,144.000000) scale(0.100000,-0.100000)"
fill="#000000" stroke="none">
<path d="M405 1378 c-67 -24 -131 -83 -168 -155 -21 -41 -21 -68 0 -104 16
-26 16 -29 0 -47 -38 -42 -15 -137 53 -226 27 -36 60 -83 72 -105 45 -80 102
-149 144 -174 54 -33 47 -12 -10 30 -24 17 -59 56 -79 86 -55 83 -69 166 -46
279 l11 56 44 -20 c24 -10 48 -17 53 -14 4 3 0 -29 -11 -72 -23 -94 -20 -231
6 -277 10 -17 14 -21 11 -10 -21 64 -25 158 -11 241 16 94 20 104 38 86 7 -7
19 -12 28 -12 9 1 3 7 -12 16 -16 8 -28 19 -28 24 0 14 12 12 38 -6 13 -9 26
-13 29 -10 3 3 -6 11 -21 17 -14 7 -26 15 -26 18 1 3 14 22 30 41 23 27 33 31
42 22 7 -7 17 -12 22 -12 6 0 1 8 -11 18 l-23 17 44 57 c25 31 66 72 92 92 26
20 41 36 33 36 -26 1 19 21 57 25 19 3 43 9 52 13 18 9 60 8 119 -3 32 -5 36
-4 25 7 -15 15 -186 22 -244 9 -28 -7 -38 -5 -42 5 -3 8 -12 11 -22 7 -12 -4
-15 -3 -10 5 10 16 -37 26 -87 18 -89 -15 -195 -107 -247 -217 -15 -33 -31
-56 -34 -51 -9 15 49 125 93 174 24 26 66 59 98 74 31 16 51 30 45 32 -22 7
-114 -52 -159 -102 -45 -51 -93 -133 -93 -161 0 -39 -52 6 -65 56 -9 37 50
127 108 166 65 44 117 56 202 50 44 -4 63 -3 50 3 -28 12 -154 11 -190 -2z
m225 -37 c-98 -19 -204 -109 -253 -213 -28 -58 -33 -78 -19 -78 4 -1 26 -4 49
-9 55 -11 95 7 126 56 34 52 92 110 146 144 62 40 74 36 20 -5 -47 -35 -97
-93 -144 -164 -20 -31 -31 -39 -36 -30 -6 9 -9 6 -9 -10 0 -29 -22 -37 -52
-21 -13 7 -26 12 -31 11 -4 -1 -39 9 -77 22 -72 26 -94 25 -104 0 -4 -11 -2
-11 13 -2 21 13 84 3 100 -15 7 -10 7 -25 0 -53 -6 -21 -9 -73 -7 -115 l5 -77
-49 67 c-60 82 -87 163 -67 200 17 31 63 45 80 25 10 -12 16 -4 35 42 51 126
182 235 279 232 29 0 29 -1 -5 -7z m62 -25 c15 -8 39 -13 53 -10 39 7 30 -3
-29 -31 -64 -30 -144 -100 -187 -161 -38 -56 -60 -68 -115 -59 -54 8 -55 20
-13 93 40 71 100 129 162 158 60 27 91 30 129 10z m122 -4 c2 -4 -4 -8 -15 -8
-10 0 -19 4 -19 8 0 4 6 8 14 8 8 0 17 -4 20 -8z"/>
<path d="M967 1290 c-116 -20 -226 -103 -329 -249 -34 -47 -65 -88 -69 -91
-10 -7 -35 -108 -44 -177 -8 -63 12 -196 27 -186 7 3 8 1 4 -5 -4 -7 -4 -18 1
-24 4 -7 8 -17 8 -23 0 -5 14 -12 30 -16 17 -4 47 -14 68 -23 111 -48 246 0
367 131 149 161 190 249 190 405 0 75 1 80 43 137 41 59 43 59 97 63 l55 4
-60 2 -60 2 -39 -61 -39 -61 -14 54 c-12 50 -41 88 -66 88 -6 0 -2 -7 9 -15
11 -10 2 -8 -23 5 -24 11 -43 23 -43 26 0 3 6 2 13 -2 8 -5 9 -4 2 4 -15 16
-74 21 -128 12z m36 -37 c-5 -13 -2 -15 11 -10 19 8 96 -11 96 -24 0 -19 -36
-16 -86 6 -31 14 -64 25 -73 25 -21 0 -125 -49 -119 -56 3 -2 22 5 42 17 42
25 104 23 170 -5 57 -25 38 -29 -29 -6 -32 11 -68 20 -79 19 -12 -1 -6 -5 15
-9 19 -5 60 -18 90 -30 53 -19 55 -22 51 -50 -2 -17 0 -30 4 -30 19 0 34 17
29 32 -4 9 -2 19 4 23 7 3 8 0 5 -9 -3 -9 -1 -16 5 -16 15 0 14 14 -3 53 -13
31 -12 33 8 34 11 1 16 -1 9 -4 -8 -3 -8 -13 3 -39 23 -56 27 -156 9 -245 -19
-92 -65 -166 -175 -279 -77 -79 -142 -115 -233 -130 -36 -6 -74 -13 -84 -16
-16 -6 -15 -4 2 10 20 17 20 17 0 12 -11 -3 -25 -2 -32 2 -6 4 26 7 70 7 69 0
91 4 137 27 73 36 130 84 130 110 0 25 27 58 46 58 15 0 82 88 106 140 29 62
43 261 18 245 -4 -3 -6 -24 -3 -47 3 -39 -1 -49 -49 -112 -62 -81 -78 -91 -78
-47 0 31 -21 43 -35 21 -3 -5 -1 -10 4 -10 6 0 11 -12 11 -27 -1 -26 -2 -26
-12 -9 -14 25 -27 146 -16 152 12 8 10 54 -3 54 -6 0 -9 7 -5 15 6 17 -29 22
-39 5 -8 -13 -25 -13 -25 0 0 19 -30 83 -36 77 -3 -3 0 -16 7 -29 l12 -23 -27
24 c-14 14 -28 23 -30 20 -7 -7 -36 -112 -32 -116 2 -2 16 1 31 7 15 6 31 8
34 4 9 -9 -32 -35 -47 -29 -15 6 -92 -31 -92 -44 0 -10 -26 -22 -57 -26 -11
-2 -31 -6 -43 -10 -19 -6 -16 2 21 51 73 101 93 123 102 117 4 -3 0 -15 -10
-26 -9 -12 4 -2 30 23 52 49 61 63 21 31 -27 -21 -56 -19 -34 3 6 6 14 11 18
11 18 1 52 27 47 35 -4 6 1 7 11 3 13 -5 15 -3 9 8 -4 8 -5 11 -1 8 4 -4 32 4
64 17 70 29 114 32 105 7z m117 -57 c0 -2 3 -11 6 -20 4 -11 1 -16 -10 -16 -9
0 -16 5 -16 11 0 5 -4 7 -10 4 -6 -3 -7 1 -4 9 5 14 34 23 34 12z m79 -85 c1
-35 -5 -22 -12 24 -5 28 -4 34 3 20 5 -11 9 -31 9 -44z m-343 -13 c-44 -24
-49 -22 -41 15 11 48 14 49 44 25 l28 -23 -31 -17z m67 -10 c-2 -5 0 -8 5 -8
5 0 12 -11 14 -25 3 -14 1 -25 -3 -25 -5 0 -9 -9 -9 -20 0 -11 -4 -20 -9 -20
-6 0 -7 16 -4 35 5 30 3 35 -15 35 -21 0 -32 -18 -32 -51 0 -14 -26 -32 -100
-69 -87 -44 -100 -48 -100 -31 0 21 -29 36 -43 22 -5 -5 -10 -24 -11 -43 l-1
-35 70 32 c38 18 104 49 144 70 l75 37 18 -22 c11 -13 18 -39 18 -64 0 -22 4
-56 9 -74 10 -34 5 -35 -31 -4 -23 20 -48 0 -48 -38 0 -24 -9 -31 -92 -71
-113 -54 -109 -53 -107 -42 4 24 -3 34 -23 31 -18 -2 -24 -12 -29 -41 -5 -34
-4 -37 15 -32 18 5 18 4 -3 -8 -21 -12 -26 -12 -42 2 -20 16 -25 26 -10 17 13
-8 18 14 12 49 -6 29 -5 30 134 97 196 95 197 95 190 121 -5 17 -4 19 4 7 9
-13 11 -12 11 3 0 21 -27 34 -41 20 -6 -6 -11 -22 -13 -37 -3 -24 -15 -33 -96
-72 -51 -24 -94 -44 -95 -44 -1 0 -5 9 -8 20 -11 42 -53 17 -59 -34 -5 -49
-28 -44 -28 6 0 31 -3 39 -10 28 -5 -8 -10 -11 -10 -6 0 5 8 18 18 29 9 11 12
17 5 14 -14 -9 -27 9 -13 18 6 4 9 22 8 40 -3 42 0 44 48 49 42 4 94 24 94 37
0 11 39 31 65 34 11 1 25 3 32 4 7 0 27 15 44 32 28 27 29 30 9 24 -15 -5 -20
-4 -16 4 4 5 20 9 35 8 16 -1 27 -5 24 -9z m45 -39 c-3 -8 -7 -3 -11 10 -4 17
-3 21 5 13 5 -5 8 -16 6 -23z m238 -31 c-15 -143 -24 -167 -103 -275 -89 -122
-145 -174 -236 -218 -37 -19 -65 -30 -63 -26 3 4 34 22 68 39 77 39 130 88
219 207 75 100 99 164 99 265 0 51 5 70 18 70 3 0 2 -28 -2 -62z m-70 -87
c-17 -74 -81 -177 -113 -184 -12 -2 -20 -1 -18 3 3 5 -1 10 -9 13 -10 4 -12 0
-9 -14 7 -24 -15 -52 -35 -44 -12 4 -11 0 3 -21 9 -14 15 -27 13 -28 -2 -1
-19 -13 -38 -27 -48 -36 -94 -58 -152 -75 -41 -13 -51 -13 -62 -1 -9 9 -11 19
-5 28 12 19 11 39 -1 39 -5 0 -7 -6 -4 -13 3 -8 -2 -20 -10 -27 -9 -7 -13 -17
-9 -24 3 -6 0 -6 -7 1 -12 11 -11 15 5 26 10 8 15 19 11 25 -10 16 13 25 29
12 8 -7 13 -19 12 -28 -1 -10 3 -18 8 -19 6 -2 10 12 10 30 0 26 -4 33 -23 35
-28 4 -55 -16 -48 -35 3 -7 -1 -13 -9 -13 -8 0 -15 -6 -15 -14 0 -12 -6 -12
-35 -3 -19 6 -35 13 -35 17 0 4 18 15 40 25 22 10 37 21 35 25 -6 9 44 32 55
25 12 -7 90 32 90 45 0 8 34 24 55 25 6 1 31 9 58 19 38 15 47 23 47 42 0 22
10 29 34 25 19 -4 46 11 46 26 0 16 90 156 97 150 2 -2 -3 -32 -11 -66z m-569
-301 c11 -26 12 -40 2 -34 -24 14 -30 62 -22 164 l8 105 3 -110 c1 -60 5 -117
9 -125z m354 138 c-33 -26 -43 -22 -18 6 12 13 26 22 31 19 5 -4 -1 -14 -13
-25z m-151 -73 c-14 -8 -29 -14 -35 -14 -5 0 1 6 15 14 14 8 30 14 35 14 6 0
-1 -6 -15 -14z m-162 -144 c11 -6 10 -10 -4 -15 -9 -3 -19 -4 -22 -1 -3 3 1 5
9 5 11 0 11 2 -1 10 -8 5 -10 10 -5 10 6 0 16 -4 23 -9z m149 -47 c-3 -3 -12
-4 -19 -1 -8 3 -5 6 6 6 11 1 17 -2 13 -5z"/>
<path d="M689 1049 c-7 -15 -8 -24 0 -32 14 -14 41 9 41 34 0 26 -27 24 -41
-2z m31 -3 c0 -8 -4 -17 -9 -21 -6 -3 -9 4 -8 15 1 23 17 28 17 6z"/>
<path d="M1000 776 c0 -2 9 -6 20 -9 11 -3 18 -1 14 4 -5 9 -34 13 -34 5z"/>
<path d="M957 744 c-9 -9 4 -35 14 -28 5 3 9 12 9 20 0 14 -12 19 -23 8z"/>
<path d="M837 679 c-17 -23 -13 -49 8 -49 18 0 37 26 33 46 -5 26 -24 28 -41
3z m33 -9 c0 -12 -26 -30 -33 -24 -10 10 3 31 18 31 8 0 15 -4 15 -7z"/>
<path d="M1417 1262 c6 -4 13 -21 16 -37 l4 -30 2 32 c0 17 7 34 14 36 6 3 -1
6 -18 6 -16 0 -25 -3 -18 -7z"/>
<path d="M1690 1256 c0 -8 7 -16 15 -20 8 -3 15 -11 15 -17 0 -8 -5 -7 -17 2
-14 12 -16 12 -12 0 8 -22 28 -25 35 -6 4 9 -1 22 -12 31 -17 14 -17 15 -1 10
9 -3 17 -1 17 4 0 6 -9 10 -20 10 -11 0 -20 -6 -20 -14z"/>
<path d="M1813 1235 c0 -22 2 -30 4 -17 2 12 2 30 0 40 -3 9 -5 -1 -4 -23z"/>
<path d="M1863 1256 c3 -8 -1 -22 -8 -33 -14 -17 -14 -17 -15 5 0 15 4 21 12
16 7 -4 8 -3 4 5 -4 6 -12 9 -17 6 -10 -7 -12 -38 -3 -47 10 -11 44 4 45 21 1
9 4 5 9 -9 l8 -25 1 26 c1 25 -15 49 -32 49 -5 0 -7 -6 -4 -14z"/>
<path d="M1464 1248 c-4 -7 -3 -8 4 -4 7 4 12 2 12 -3 0 -6 -4 -11 -10 -11 -5
0 -10 -7 -10 -16 0 -26 25 -9 28 19 3 27 -11 36 -24 15z"/>
<path d="M1503 1243 c-3 -6 -3 -20 0 -30 3 -13 5 -12 7 7 l2 25 8 -25 c8 -24
8 -24 9 -2 1 33 18 27 26 -9 5 -22 10 -28 15 -18 5 7 26 13 47 14 30 0 38 4
37 18 -1 9 2 17 7 17 5 0 9 4 9 8 0 5 -13 9 -30 9 -32 0 -40 -11 -14 -21 8 -3
12 -11 8 -17 -4 -7 -15 -1 -29 17 -20 25 -25 27 -39 15 -9 -7 -16 -9 -16 -4 0
13 -42 11 -47 -4z m87 -13 c0 -5 -4 -10 -10 -10 -5 0 -10 5 -10 10 0 6 5 10
10 10 6 0 10 -4 10 -10z"/>
<path d="M1740 1229 c0 -15 5 -19 15 -15 8 3 15 0 15 -6 0 -6 3 -9 6 -5 3 3 3
15 -1 26 -8 27 -35 27 -35 0z"/>
<path d="M1788 1225 c2 -14 6 -25 8 -25 2 0 4 11 4 25 0 14 -4 25 -9 25 -4 0
-6 -11 -3 -25z"/>
<path d="M1585 845 c-22 -9 -50 -13 -62 -10 -18 4 -23 1 -23 -14 0 -10 -19
-34 -42 -53 -62 -51 -190 -229 -206 -286 -30 -110 -10 -304 35 -344 10 -9 54
-28 98 -43 71 -24 85 -26 131 -16 83 16 153 57 227 133 55 57 65 73 56 84 -9
11 -9 13 2 9 18 -7 84 79 107 138 11 30 16 76 16 162 1 158 -12 189 -99 223
-76 30 -184 38 -240 17z m82 -11 c-3 -3 -12 -4 -19 -1 -8 3 -5 6 6 6 11 1 17
-2 13 -5z m-116 -18 c8 5 9 3 4 -6 -6 -10 -4 -12 8 -7 24 9 21 0 -4 -14 -17
-8 -20 -8 -14 1 5 8 3 11 -6 8 -8 -3 -14 -10 -14 -15 0 -6 -4 -15 -9 -20 -5
-5 -6 -3 -2 5 16 28 -13 9 -61 -40 -74 -76 -164 -206 -179 -258 -7 -25 -13
-38 -13 -30 -2 34 20 84 66 148 26 37 47 68 45 69 -4 5 104 110 131 128 23 15
25 20 15 34 -12 14 -11 14 4 3 9 -8 23 -10 29 -6z m69 4 c-8 -5 -19 -10 -25
-10 -5 0 -3 5 5 10 8 5 20 10 25 10 6 0 3 -5 -5 -10z m188 -19 c26 -11 55 -21
64 -24 22 -8 46 -115 42 -192 -2 -58 -21 -155 -30 -155 -2 0 -4 23 -4 51 0 27
3 48 8 46 4 -3 7 26 7 64 0 38 -3 69 -7 69 -4 0 -9 26 -11 58 -2 31 -4 -30 -5
-135 -2 -178 -4 -195 -22 -213 -11 -11 -25 -20 -30 -20 -6 0 -9 -4 -8 -9 2 -5
-6 -17 -17 -26 -13 -10 -16 -18 -8 -21 20 -9 -117 -133 -183 -165 -49 -24 -74
-31 -116 -29 -85 3 -96 5 -92 12 6 10 -34 20 -48 12 -7 -4 -10 -4 -6 1 5 5 0
14 -10 21 -40 28 -57 180 -32 289 8 38 8 50 -2 58 -9 6 -8 7 5 3 9 -3 17 -2
17 2 0 5 20 36 45 70 25 35 43 67 40 73 -4 5 -3 8 2 7 5 -2 32 20 59 48 53 54
109 94 159 112 48 17 132 14 183 -7z m-551 -433 c-2 -13 -4 -5 -4 17 -1 22 1
32 4 23 2 -10 2 -28 0 -40z m0 -80 c-2 -13 -4 -5 -4 17 -1 22 1 32 4 23 2 -10
2 -28 0 -40z"/>
<path d="M1751 786 c-6 -7 -12 -25 -13 -39 -1 -14 -6 -23 -10 -21 -4 3 -21 -2
-38 -11 l-30 -16 0 -214 c0 -144 3 -215 10 -215 6 0 25 7 41 16 25 12 33 13
46 3 12 -11 14 -10 13 2 -5 30 1 39 22 39 17 0 19 3 10 12 -9 9 -17 7 -34 -8
-22 -19 -70 -44 -86 -44 -4 0 -7 89 -7 197 l0 198 38 17 c20 9 37 22 37 29 0
8 4 8 15 -1 13 -10 19 -10 35 5 11 10 16 24 13 33 -12 32 -43 41 -62 18z m32
-23 c-10 -8 -13 -12 -7 -9 6 3 11 -1 11 -9 0 -19 -11 -19 -27 0 -16 19 4 47
26 38 12 -4 12 -8 -3 -20z"/>
<path d="M1396 574 c-20 -20 -20 -38 0 -55 20 -17 49 0 50 30 2 30 -30 46 -50
25z m39 -12 c-5 -4 -10 -13 -10 -21 0 -21 -21 -25 -29 -6 -8 23 1 35 27 35 12
0 18 -4 12 -8z"/>
<path d="M1306 383 c-3 -3 -6 -32 -6 -64 0 -47 4 -60 19 -69 27 -14 32 -1 21
51 l-9 44 2 -42 c3 -46 -7 -57 -17 -20 -9 35 -7 87 4 87 6 0 10 -4 10 -10 0
-5 5 -10 10 -10 6 0 10 4 10 10 0 12 -35 31 -44 23z"/>
<path d="M1390 191 c-7 -15 -6 -24 6 -36 31 -31 82 6 55 39 -18 22 -48 20 -61
-3z m40 2 c0 -5 -4 -15 -10 -23 -11 -18 -25 -7 -17 15 6 15 27 21 27 8z m15
-23 c3 -5 1 -10 -4 -10 -6 0 -11 5 -11 10 0 6 2 10 4 10 3 0 8 -4 11 -10z"/>
</g>
</svg>
