<?xml version="1.0" standalone="no"?>
<!DOCTYPE svg PUBLIC "-//W3C//DTD SVG 20010904//EN"
 "http://www.w3.org/TR/2001/REC-SVG-20010904/DTD/svg10.dtd">
<svg version="1.0" xmlns="http://www.w3.org/2000/svg"
 width="900.000000pt" height="900.000000pt" viewBox="0 0 900.000000 900.000000"
 preserveAspectRatio="xMidYMid meet">
<metadata>
Created by potrace 1.10, written by Peter Selinger 2001-2011
</metadata>
<g transform="translate(0.000000,900.000000) scale(0.100000,-0.100000)"
fill="#000000" stroke="none">
<path d="M4160 7835 c-8 -10 -31 -15 -66 -15 -29 0 -71 -6 -91 -14 -21 -8 -63
-17 -93 -21 -30 -3 -59 -10 -65 -14 -5 -5 -39 -12 -75 -15 -36 -4 -69 -11 -75
-15 -5 -5 -41 -11 -79 -15 -55 -6 -79 -14 -121 -42 -73 -48 -106 -90 -166
-208 -28 -56 -54 -108 -59 -116 -12 -21 -99 -208 -117 -250 -8 -19 -21 -48
-28 -65 -7 -16 -20 -47 -29 -67 -35 -79 -72 -164 -92 -213 -6 -16 -20 -48 -30
-70 -9 -22 -24 -56 -32 -75 -9 -19 -22 -51 -30 -70 -9 -19 -22 -51 -30 -70 -9
-19 -22 -51 -30 -70 -9 -19 -21 -48 -28 -65 -7 -16 -27 -60 -43 -98 -17 -37
-31 -69 -31 -71 0 -3 -14 -35 -31 -73 -17 -37 -37 -84 -46 -103 -8 -19 -21
-50 -29 -67 -18 -41 -38 -87 -59 -138 -9 -22 -22 -53 -30 -70 -7 -16 -20 -46
-28 -65 -8 -19 -22 -51 -30 -70 -8 -19 -22 -51 -30 -70 -8 -19 -22 -51 -30
-70 -8 -19 -23 -53 -33 -75 -9 -22 -24 -56 -32 -75 -9 -19 -22 -51 -30 -70 -9
-19 -22 -51 -30 -70 -8 -19 -21 -47 -29 -62 -7 -14 -13 -33 -13 -41 0 -8 -7
-20 -15 -27 -8 -7 -15 -21 -15 -30 0 -10 -6 -31 -14 -47 -35 -69 -76 -159 -76
-168 0 -9 -27 -68 -76 -168 -8 -16 -14 -33 -14 -38 0 -5 -14 -40 -31 -77 -18
-37 -38 -83 -47 -102 -8 -19 -21 -48 -28 -63 -8 -16 -14 -33 -14 -38 0 -5 -14
-39 -31 -76 -50 -109 -62 -136 -77 -173 -29 -69 -42 -101 -56 -132 -8 -18 -18
-44 -24 -58 -6 -14 -19 -45 -30 -70 -10 -25 -27 -65 -37 -90 -22 -58 -44 -108
-62 -142 -7 -14 -13 -31 -13 -37 0 -6 -13 -40 -30 -74 -16 -35 -30 -69 -30
-75 0 -6 -6 -23 -14 -39 -40 -80 -46 -106 -46 -193 0 -49 4 -91 8 -94 5 -3 61
-111 126 -241 65 -129 122 -238 127 -241 5 -3 9 -13 9 -23 0 -10 7 -24 15 -31
8 -7 15 -18 15 -26 0 -7 11 -29 24 -49 l25 -36 -19 -43 c-22 -48 -15 -93 19
-130 28 -31 91 -138 147 -251 45 -93 58 -109 179 -228 121 -120 464 -407 485
-407 5 0 62 -30 127 -66 65 -37 152 -85 193 -107 41 -22 91 -50 110 -62 51
-32 157 -85 204 -102 23 -8 165 -25 321 -38 154 -14 343 -30 420 -37 120 -10
161 -9 278 4 181 22 202 33 336 178 204 221 575 595 629 635 30 22 94 75 141
118 68 61 97 81 140 94 30 8 72 24 95 34 49 22 119 24 203 4 97 -23 179 0 219
59 21 34 5 62 -44 75 -20 6 -108 11 -195 12 -156 3 -157 2 -185 -23 -15 -14
-45 -31 -67 -38 -92 -29 -122 -44 -180 -87 -114 -86 -259 -208 -335 -282 -41
-40 -95 -90 -120 -110 -25 -20 -50 -43 -57 -51 -9 -12 -14 -12 -24 -3 -13 13
-18 1 92 228 37 77 77 164 88 193 12 30 32 70 46 90 14 20 25 43 25 51 0 8 15
32 33 55 43 54 107 144 107 152 0 3 17 32 37 63 40 62 131 133 193 151 21 6
75 8 131 4 104 -7 118 -3 179 49 50 43 70 90 70 160 l0 60 -62 58 c-34 33 -71
59 -81 59 -25 0 -57 18 -86 49 -28 30 -29 51 -5 157 8 38 18 89 21 114 3 25 9
50 13 55 8 12 39 99 76 218 20 65 24 91 16 99 -8 8 -13 6 -17 -8 -4 -10 -10
-26 -15 -34 -5 -8 -21 -40 -35 -70 -15 -30 -46 -95 -71 -143 -31 -62 -43 -99
-42 -125 0 -21 -4 -46 -10 -57 -18 -31 -52 -113 -52 -124 0 -5 -8 -24 -17 -43
-9 -18 -22 -45 -30 -60 -20 -40 -16 -48 25 -48 20 -1 48 -7 62 -15 14 -8 41
-15 60 -15 19 0 44 -7 54 -15 11 -8 33 -15 48 -15 43 0 78 -43 78 -94 0 -40
-27 -104 -55 -133 -16 -16 -68 -17 -96 -3 -10 6 -47 15 -82 20 -34 5 -75 12
-92 15 -27 6 -33 2 -59 -40 -26 -42 -31 -45 -65 -44 -49 3 -54 -1 -89 -69 -93
-181 -117 -220 -152 -253 -22 -20 -40 -43 -40 -50 0 -8 -20 -55 -45 -106 -25
-51 -66 -137 -92 -190 -25 -54 -50 -105 -54 -113 -5 -8 -12 -22 -15 -30 -10
-25 -66 -144 -75 -160 -5 -8 -12 -22 -15 -30 -8 -17 -153 -309 -195 -390 -54
-106 -124 -150 -236 -150 -57 0 -64 7 -33 35 11 10 20 26 20 35 0 10 7 20 15
24 8 3 15 14 15 24 0 11 7 25 15 32 8 7 15 23 15 36 0 12 4 25 9 28 13 8 51
89 51 109 0 9 4 18 9 22 6 3 20 27 32 53 12 26 25 54 30 62 5 8 12 22 15 30 3
8 12 27 20 42 8 14 14 33 14 41 0 8 7 20 15 27 8 7 15 23 15 35 0 12 7 28 15
35 8 7 15 20 15 30 0 10 7 23 15 30 8 7 15 20 15 30 0 10 7 23 15 30 8 7 15
23 15 35 0 12 7 28 15 35 8 7 15 18 15 25 0 7 14 37 30 68 17 31 30 63 30 71
0 7 7 19 15 26 8 7 15 20 15 30 0 10 7 23 15 30 8 7 15 23 15 35 0 12 7 28 15
35 8 7 15 20 15 30 0 10 7 23 15 30 8 7 15 20 15 29 0 9 7 25 15 35 8 11 15
27 15 37 0 9 7 22 15 29 8 7 15 20 15 30 0 10 7 23 15 30 8 7 15 23 15 35 0
12 7 28 15 35 8 7 15 20 15 30 0 10 7 23 15 30 8 7 15 21 15 31 0 9 7 24 15
33 8 8 15 23 15 34 0 11 7 25 15 32 8 7 15 20 15 30 0 10 7 23 15 30 8 7 15
23 15 35 0 12 7 28 15 35 8 7 15 20 15 30 0 10 7 23 15 30 8 7 15 23 15 35 0
12 7 28 15 35 8 7 15 20 15 30 0 10 7 23 15 30 8 7 15 20 15 29 0 9 7 25 15
35 8 11 15 27 15 37 0 9 7 22 15 29 8 7 15 23 15 36 0 12 4 25 9 29 6 3 20 27
32 53 12 26 28 59 35 74 8 14 14 36 14 47 0 12 7 24 15 27 8 4 15 14 15 24 0
10 7 23 15 30 8 7 15 23 15 35 0 12 7 28 15 35 8 7 15 23 15 35 0 13 7 25 15
29 8 3 15 16 15 29 0 14 7 30 15 37 8 7 15 18 15 25 0 12 18 52 42 95 4 8 11
22 14 30 3 8 12 28 20 43 7 16 14 34 14 42 0 7 7 18 15 25 8 7 15 23 15 35 0
12 7 28 15 35 8 7 15 21 15 32 0 10 7 21 15 24 8 4 15 16 15 28 0 11 7 30 15
40 8 11 15 27 15 37 0 9 7 22 15 29 8 7 15 23 15 35 0 12 7 28 15 35 8 7 15
20 15 30 0 10 7 23 15 30 8 7 15 23 15 35 0 12 7 28 15 35 8 7 15 23 15 35 0
12 7 28 15 35 8 7 15 20 15 30 0 10 7 23 15 30 8 7 15 23 15 35 0 12 7 28 15
35 8 7 15 20 15 30 0 10 7 23 15 30 8 7 15 23 15 35 0 12 7 28 15 35 8 7 15
23 15 35 0 12 7 28 15 35 8 7 15 20 15 30 0 10 7 23 15 30 8 7 15 23 15 35 0
12 7 28 15 35 8 7 15 20 15 30 0 10 7 23 15 30 8 7 15 20 15 29 0 10 14 44 30
76 17 32 30 67 30 76 0 10 4 20 9 23 13 9 51 89 51 109 0 10 7 20 15 23 8 4
15 16 15 28 0 11 7 30 15 40 8 11 15 27 15 37 0 9 7 22 15 29 8 7 15 23 15 35
0 12 7 28 15 35 8 7 15 23 15 37 0 13 7 26 15 29 8 4 15 16 15 28 0 11 7 30
15 40 8 11 15 27 15 37 0 9 7 22 15 29 8 7 15 20 15 30 0 10 7 23 15 30 8 7
15 23 15 35 0 12 7 28 15 35 8 7 15 23 15 35 0 12 7 28 15 35 8 7 15 20 15 30
0 10 7 23 15 30 8 7 15 23 15 37 0 13 7 26 15 29 8 4 15 14 15 23 0 10 7 26
15 37 8 10 15 32 15 47 0 15 7 30 15 33 8 4 15 13 15 21 0 8 16 49 36 91 20
42 41 88 46 102 5 14 16 38 24 53 8 16 14 37 14 48 0 11 7 22 15 25 8 3 17 21
21 40 3 19 10 34 14 34 5 0 11 9 15 20 6 18 8 19 31 4 13 -9 27 -27 30 -41 11
-41 -40 -167 -198 -493 -17 -36 -35 -73 -40 -82 -4 -10 -8 -24 -8 -31 0 -8
-13 -41 -29 -73 -61 -121 -101 -212 -101 -226 0 -9 -6 -21 -14 -27 -8 -6 -16
-22 -19 -34 -7 -30 -51 -132 -64 -149 -5 -7 -22 -42 -36 -78 -50 -126 -74
-180 -90 -198 -10 -10 -17 -28 -17 -40 0 -12 -13 -48 -30 -80 -16 -33 -30 -66
-30 -73 0 -8 -9 -29 -20 -47 -11 -18 -20 -39 -20 -47 0 -8 -9 -23 -21 -34 -12
-11 -18 -24 -14 -30 3 -7 -11 -49 -32 -94 -81 -170 -93 -198 -93 -214 0 -9 -6
-24 -14 -32 -8 -9 -24 -45 -36 -81 -12 -36 -35 -91 -51 -123 -16 -33 -29 -66
-29 -75 0 -9 -9 -34 -19 -56 -34 -72 -51 -118 -51 -138 0 -11 -8 -33 -17 -49
-17 -28 -14 -47 6 -34 6 3 11 15 11 26 0 10 4 19 8 19 12 0 153 285 257 515 7
17 27 59 44 95 16 36 42 92 56 125 31 69 56 124 98 215 17 36 36 79 43 95 7
17 27 62 44 100 18 39 38 84 45 100 7 17 27 59 43 95 47 100 93 202 107 235 7
17 27 59 43 95 47 100 93 202 107 235 7 17 28 62 46 100 18 39 38 84 45 100 7
17 26 59 42 95 17 36 45 97 62 135 17 39 36 78 41 87 21 40 48 137 54 193 l6
61 -87 102 c-48 56 -93 102 -100 102 -18 0 -18 -6 3 -41 14 -24 15 -33 5 -49
-6 -11 -12 -26 -12 -35 0 -8 -7 -31 -16 -52 -9 -21 -22 -53 -30 -71 -24 -57
-46 -108 -91 -209 -9 -21 -22 -50 -30 -65 -7 -14 -13 -33 -13 -41 0 -8 -7 -20
-15 -27 -8 -7 -15 -23 -15 -35 0 -12 -7 -28 -15 -35 -8 -7 -15 -20 -15 -29 0
-10 -7 -26 -15 -37 -8 -10 -15 -26 -15 -35 0 -9 -7 -22 -15 -29 -8 -7 -15 -23
-15 -35 0 -12 -7 -28 -15 -35 -8 -7 -15 -20 -15 -29 0 -9 -7 -25 -15 -35 -8
-11 -15 -27 -15 -37 0 -9 -7 -22 -15 -29 -8 -7 -15 -23 -15 -35 0 -12 -7 -28
-15 -35 -8 -7 -15 -20 -15 -29 0 -10 -7 -26 -15 -37 -8 -10 -15 -26 -15 -35 0
-9 -7 -22 -15 -29 -8 -7 -15 -23 -15 -35 0 -12 -7 -28 -15 -35 -8 -7 -15 -20
-15 -29 0 -10 -7 -26 -15 -37 -8 -10 -15 -26 -15 -35 0 -9 -7 -22 -15 -29 -8
-7 -15 -23 -15 -35 0 -12 -7 -28 -15 -35 -8 -7 -15 -19 -15 -27 0 -13 -15 -48
-41 -93 -5 -8 -12 -22 -15 -30 -9 -24 -35 -83 -50 -113 -8 -16 -14 -34 -14
-42 0 -7 -7 -18 -15 -25 -8 -7 -15 -23 -15 -35 0 -12 -7 -28 -15 -35 -8 -7
-15 -20 -15 -29 0 -10 -7 -26 -15 -37 -8 -10 -15 -26 -15 -35 0 -9 -7 -22 -15
-29 -8 -7 -15 -23 -15 -35 0 -12 -7 -28 -15 -35 -8 -7 -15 -20 -15 -30 0 -10
-7 -23 -15 -30 -8 -7 -15 -23 -15 -35 0 -12 -7 -28 -15 -35 -8 -7 -15 -20 -15
-29 0 -10 -7 -26 -15 -37 -8 -10 -15 -26 -15 -35 0 -9 -7 -22 -15 -29 -8 -7
-15 -23 -15 -35 0 -12 -7 -28 -15 -35 -8 -7 -15 -19 -15 -27 0 -13 -15 -48
-41 -93 -5 -8 -12 -22 -15 -30 -3 -8 -12 -31 -21 -50 -8 -19 -22 -51 -30 -70
-8 -19 -19 -42 -24 -50 -5 -8 -12 -22 -15 -30 -11 -29 -37 -85 -46 -100 -4 -8
-11 -22 -14 -30 -10 -27 -36 -85 -45 -100 -5 -8 -12 -22 -15 -30 -3 -8 -12
-28 -20 -43 -7 -16 -14 -34 -14 -42 0 -7 -7 -18 -15 -25 -8 -7 -15 -23 -15
-35 0 -12 -7 -28 -15 -35 -8 -7 -15 -20 -15 -30 0 -10 -7 -23 -15 -30 -8 -7
-15 -20 -15 -29 0 -10 -7 -26 -15 -37 -8 -10 -15 -26 -15 -35 0 -9 -7 -22 -15
-29 -8 -7 -15 -21 -15 -31 0 -9 -7 -24 -15 -33 -8 -8 -15 -23 -15 -34 0 -11
-7 -25 -15 -32 -8 -7 -15 -20 -15 -30 0 -10 -7 -23 -15 -30 -8 -7 -15 -23 -15
-35 0 -12 -7 -28 -15 -35 -8 -7 -15 -18 -15 -24 0 -7 -13 -38 -29 -69 -16 -31
-31 -67 -35 -81 -3 -14 -11 -26 -16 -26 -6 0 -10 -7 -10 -16 0 -9 -6 -28 -14
-42 -7 -15 -22 -45 -31 -67 -10 -22 -22 -47 -27 -55 -4 -8 -11 -22 -14 -30 -3
-8 -10 -22 -15 -30 -5 -8 -12 -22 -15 -30 -10 -27 -36 -85 -45 -100 -5 -8 -12
-22 -15 -30 -3 -8 -10 -22 -15 -30 -5 -8 -12 -22 -15 -30 -10 -27 -36 -85 -45
-100 -5 -8 -12 -22 -15 -30 -3 -8 -10 -22 -15 -30 -5 -8 -12 -22 -15 -30 -10
-27 -36 -85 -45 -100 -5 -8 -12 -22 -15 -30 -10 -27 -36 -85 -45 -100 -5 -8
-12 -22 -15 -30 -3 -8 -19 -42 -35 -75 -16 -33 -29 -65 -29 -71 0 -6 -7 -17
-15 -24 -8 -7 -15 -23 -15 -35 0 -12 -7 -28 -15 -35 -8 -7 -15 -20 -15 -29 0
-9 -7 -25 -15 -35 -8 -11 -15 -27 -15 -37 0 -9 -7 -22 -15 -29 -8 -7 -15 -23
-15 -37 0 -13 -7 -26 -15 -29 -8 -4 -15 -16 -15 -29 0 -12 -7 -28 -15 -35 -8
-7 -15 -20 -15 -30 0 -10 -7 -23 -15 -30 -8 -7 -15 -23 -15 -35 0 -12 -7 -28
-15 -35 -8 -7 -15 -20 -15 -29 0 -9 -7 -25 -15 -35 -8 -11 -15 -27 -15 -37 0
-9 -7 -22 -15 -29 -8 -7 -15 -20 -15 -30 0 -10 -7 -23 -15 -30 -8 -7 -15 -23
-15 -35 0 -12 -7 -28 -15 -35 -8 -7 -15 -20 -15 -30 0 -10 -7 -23 -15 -30 -8
-7 -15 -20 -15 -30 0 -10 -7 -23 -15 -30 -8 -7 -15 -23 -15 -36 0 -12 -4 -26
-10 -29 -6 -3 -10 -15 -10 -25 0 -30 -63 -53 -109 -40 -20 5 -63 10 -96 11
-33 0 -85 5 -115 10 -30 5 -108 13 -173 19 -65 6 -137 15 -160 20 -23 5 -74
10 -113 10 -106 0 -239 47 -334 119 -19 14 -43 31 -52 36 -32 19 -134 90 -210
147 -42 32 -79 58 -83 58 -3 0 -76 53 -163 119 -115 87 -201 163 -323 287 -92
93 -184 190 -205 215 -22 25 -56 66 -77 91 -21 25 -71 90 -111 143 -68 91 -72
100 -62 126 13 36 26 36 56 4 43 -45 56 -27 15 21 -14 16 -28 38 -31 49 -4 11
-20 39 -35 62 -16 23 -29 49 -29 57 0 9 -11 38 -24 65 -13 27 -27 67 -31 88
-4 21 -10 43 -15 48 -4 6 -11 39 -14 75 -4 35 -11 71 -16 80 -8 15 -34 240
-33 285 6 250 34 392 137 686 83 236 213 534 267 610 25 36 89 159 89 173 0 6
7 24 15 39 8 16 21 51 29 78 15 48 35 98 102 251 19 43 34 80 34 83 0 6 51
119 80 180 11 22 20 44 20 49 0 5 20 52 44 105 24 53 56 122 70 153 14 31 26
59 26 62 0 3 11 29 24 58 13 29 41 94 61 143 21 50 51 119 68 155 16 36 36 79
43 95 7 17 24 56 38 87 14 31 26 63 26 71 0 8 7 20 15 27 8 7 15 19 15 27 0
16 55 144 111 258 22 44 39 90 39 102 0 12 5 25 10 28 6 3 10 15 10 25 0 10 6
25 14 32 12 12 42 79 113 253 23 56 53 119 134 275 79 153 109 215 109 224 0
6 20 30 45 53 39 36 57 44 123 58 42 9 87 20 100 26 13 5 44 9 70 9 26 0 65 5
87 11 22 6 62 14 88 19 27 5 54 13 60 18 10 8 114 23 157 23 62 0 280 -13 300
-18 59 -16 310 -25 310 -12 0 15 -16 17 -157 23 -72 2 -141 10 -152 16 -12 6
-74 14 -138 17 -66 4 -128 12 -143 20 -32 16 -35 16 -50 -2z m-2488 -4467 c3
-7 3 -78 1 -158 -3 -133 9 -259 28 -285 9 -13 9 -65 -1 -65 -14 0 -39 37 -74
112 -20 42 -40 80 -46 83 -15 9 -12 76 4 123 8 22 18 62 21 89 4 26 13 55 20
63 6 8 15 23 18 33 7 20 23 23 29 5z"/>
<path d="M4846 7752 c-10 -17 10 -23 87 -29 40 -3 87 -11 106 -19 18 -8 53
-14 77 -14 23 0 45 -4 49 -9 9 -16 95 -25 108 -12 16 16 -8 31 -49 31 -18 0
-45 7 -60 15 -16 8 -48 15 -72 15 -24 0 -52 5 -63 10 -28 16 -175 25 -183 12z"/>
<path d="M5290 7656 c0 -12 10 -16 42 -16 47 0 42 14 -9 25 -26 5 -33 3 -33
-9z"/>
<path d="M5408 7632 c-29 -6 -20 -19 17 -26 19 -4 47 -13 62 -21 15 -8 38 -15
49 -15 12 0 27 -7 34 -15 7 -8 25 -15 40 -15 15 0 33 -7 40 -15 7 -8 21 -15
30 -15 10 0 33 -8 52 -17 18 -9 45 -22 60 -30 14 -7 35 -13 46 -13 11 0 22 -7
26 -15 3 -8 14 -15 25 -15 10 0 32 -7 47 -15 16 -8 37 -15 47 -15 9 0 26 -6
37 -12 15 -10 22 -10 31 -1 9 9 6 13 -14 18 -14 4 -31 13 -38 21 -6 8 -19 14
-29 14 -10 0 -23 7 -30 15 -7 8 -20 15 -30 15 -10 0 -23 7 -30 15 -7 8 -23 15
-35 15 -12 0 -28 7 -35 15 -7 8 -23 15 -35 15 -12 0 -28 7 -35 15 -7 8 -25 15
-40 15 -15 0 -33 7 -40 15 -7 8 -27 15 -45 15 -18 0 -38 6 -44 14 -7 8 -28 16
-49 19 -20 2 -50 9 -67 14 -16 5 -38 7 -47 5z"/>
<path d="M4092 7303 c-29 -6 -18 -23 15 -23 27 0 93 -36 93 -50 0 -22 -24 -20
-59 4 -50 35 -99 34 -142 -1 -48 -41 -99 -98 -116 -130 -23 -44 -53 -135 -53
-160 0 -60 60 -150 97 -145 18 3 22 -2 25 -30 3 -31 5 -33 38 -30 29 2 48 15
111 81 79 81 105 125 134 224 19 66 16 129 -9 156 -9 10 -16 28 -16 42 0 16
-11 31 -33 47 -33 22 -41 23 -85 15z m99 -150 c2 -36 -3 -58 -17 -66 -8 -4
-14 -14 -14 -22 0 -8 -11 -22 -24 -30 -14 -9 -44 -45 -67 -81 -38 -56 -47 -64
-74 -64 -47 0 -68 29 -68 92 -1 90 72 178 148 178 31 0 38 -4 49 -31 14 -33
19 -31 30 14 7 30 35 37 37 10z m-110 -277 c-11 -26 -31 -36 -31 -14 0 13 31
50 37 44 2 -2 -1 -15 -6 -30z m-26 -46 c0 -15 -52 -33 -67 -23 -11 6 42 43 57
39 6 -2 10 -9 10 -16z"/>
<path d="M6040 7262 c-36 -11 -37 -38 -2 -45 16 -3 38 -4 48 -1 12 3 27 -3 39
-16 10 -11 36 -23 59 -27 29 -4 52 -18 83 -50 24 -23 52 -43 63 -43 23 0 54
-17 81 -42 10 -10 33 -24 51 -33 38 -18 94 -55 123 -82 21 -20 154 -87 160
-81 6 6 -20 34 -50 54 -16 10 -48 32 -71 49 -23 16 -51 37 -64 45 -12 8 -32
22 -44 31 -60 45 -185 128 -213 143 -18 9 -40 25 -50 35 -47 49 -153 81 -213
63z"/>
<path d="M5922 7228 c-7 -7 -12 -19 -12 -27 0 -11 4 -10 20 4 21 19 26 35 12
35 -4 0 -13 -5 -20 -12z"/>
<path d="M6755 6930 c3 -5 13 -10 21 -10 8 0 14 5 14 10 0 6 -9 10 -21 10 -11
0 -17 -4 -14 -10z"/>
<path d="M6800 6906 c0 -9 7 -16 16 -16 17 0 14 22 -4 28 -7 2 -12 -3 -12 -12z"/>
<path d="M2772 4843 c2 -13 15 -19 48 -21 24 -2 50 -8 57 -14 7 -5 17 -7 23
-3 27 17 232 -148 288 -232 8 -13 21 -23 29 -23 51 0 -108 213 -175 234 -12 4
-22 11 -22 15 0 20 -145 61 -216 61 -28 0 -35 -4 -32 -17z"/>
<path d="M2677 4829 c8 -8 19 -8 40 -1 28 10 28 10 -11 11 -29 1 -37 -2 -29
-10z"/>
<path d="M3048 4553 c-16 -15 -15 -19 9 -53 15 -20 41 -43 57 -50 17 -7 46
-27 65 -43 19 -16 46 -33 62 -39 26 -9 27 -12 34 -110 4 -56 9 -144 11 -197 2
-53 5 -118 6 -144 2 -30 -2 -53 -10 -59 -9 -8 -9 -14 -2 -23 7 -8 12 -77 13
-169 1 -85 6 -158 10 -162 4 -4 7 14 7 40 0 26 7 61 16 78 37 71 43 592 9 675
-8 20 -15 45 -15 57 0 36 -33 119 -62 156 -25 31 -28 33 -28 13 0 -33 -19 -38
-45 -13 -25 24 -55 21 -55 -5 0 -17 -9 -19 -29 -6 -9 6 -12 19 -8 40 5 25 3
31 -11 31 -10 0 -25 -7 -34 -17z"/>
<path d="M2307 4444 c-37 -38 -67 -73 -67 -77 0 -5 -16 -28 -35 -51 -35 -43
-47 -96 -22 -96 6 0 22 15 34 33 12 17 39 55 58 82 69 96 106 156 103 167 -3
7 -34 -20 -71 -58z"/>
<path d="M3474 4369 c3 -19 11 -65 17 -104 5 -38 16 -92 24 -120 11 -36 14
-83 11 -167 -3 -89 -1 -121 10 -135 21 -28 20 290 -1 340 -8 20 -15 53 -15 74
0 21 -7 51 -15 67 -8 15 -15 37 -15 47 0 10 -5 21 -12 25 -8 5 -9 -2 -4 -27z"/>
<path d="M3060 4285 c0 -9 6 -12 15 -9 8 4 15 10 15 15 0 5 -7 9 -15 9 -8 0
-15 -7 -15 -15z"/>
<path d="M2813 3943 c-15 -5 -17 -29 -4 -37 14 -9 41 4 41 19 0 15 -19 24 -37
18z"/>
<path d="M2100 3917 c0 -16 47 -39 135 -67 39 -11 79 -25 90 -30 66 -30 105
-43 140 -50 44 -9 112 -27 222 -59 115 -33 130 -28 96 31 -16 26 -23 29 -58
27 -41 -3 -105 7 -140 20 -46 18 -93 34 -145 48 -30 8 -59 19 -64 24 -6 5 -25
9 -42 9 -18 0 -35 4 -38 9 -3 5 -23 12 -43 16 -21 4 -42 10 -48 15 -5 4 -31
10 -57 13 -35 5 -48 3 -48 -6z"/>
<path d="M3079 3759 c-12 -12 -32 -45 -46 -74 -19 -43 -23 -67 -21 -117 3 -58
5 -63 30 -72 22 -8 32 -6 49 10 56 51 84 169 56 237 -18 42 -37 47 -68 16z"/>
<path d="M2742 3580 c-12 -16 -22 -39 -22 -51 0 -11 -14 -41 -30 -66 -44 -65
-60 -99 -60 -129 0 -22 2 -25 15 -14 8 7 15 18 15 25 0 8 6 26 14 42 8 15 22
45 31 66 9 22 25 47 35 57 18 18 38 86 28 95 -2 3 -14 -9 -26 -25z"/>
<path d="M1980 3475 c-23 -28 -8 -49 38 -51 23 -1 45 2 48 7 3 5 0 9 -6 9 -6
0 -15 11 -20 25 -11 28 -41 33 -60 10z"/>
<path d="M3450 3433 c0 -24 3 -33 9 -25 7 12 4 62 -5 62 -2 0 -4 -17 -4 -37z"/>
<path d="M3416 3329 c-3 -18 -2 -37 3 -42 14 -14 25 37 13 58 -7 14 -10 11
-16 -16z"/>
<path d="M3387 3253 c-10 -10 -8 -53 2 -53 10 0 21 24 21 46 0 15 -12 19 -23
7z"/>
<path d="M3224 3225 c-4 -9 -2 -21 4 -27 15 -15 44 -1 40 19 -4 23 -36 29 -44
8z"/>
<path d="M3354 3153 c-3 -10 -10 -25 -15 -33 -5 -8 -12 -23 -16 -33 -9 -29
-133 -267 -143 -277 -3 -3 -31 -44 -63 -91 -108 -162 -286 -331 -427 -406
-120 -64 -172 -76 -330 -77 -123 -1 -150 2 -173 17 -14 9 -31 17 -36 17 -6 0
-33 14 -61 31 -50 31 -74 33 -51 5 22 -26 135 -95 185 -111 80 -27 278 -11
396 33 65 24 176 87 229 129 120 96 280 281 320 371 6 12 15 22 20 22 5 0 11
8 15 18 3 9 10 24 15 32 5 8 12 22 15 30 4 8 17 33 31 55 13 22 24 47 25 56 0
9 7 22 15 29 8 7 15 23 15 35 0 13 7 25 15 29 9 3 15 18 15 34 0 16 7 35 15
42 17 14 21 60 5 60 -6 0 -13 -8 -16 -17z"/>
<path d="M6525 3150 c-22 -24 -13 -39 10 -16 9 9 21 16 26 16 6 0 7 5 4 10 -9
15 -20 12 -40 -10z"/>
<path d="M6369 3022 c-104 -94 -129 -117 -151 -139 -9 -10 -45 -43 -79 -73
-87 -76 -249 -238 -280 -280 -15 -19 -45 -54 -68 -78 -22 -23 -41 -48 -41 -55
0 -7 -18 -36 -40 -66 -28 -38 -40 -63 -40 -87 0 -21 5 -34 13 -33 6 0 46 24
87 53 55 38 88 71 121 120 26 38 87 110 137 160 49 50 149 159 221 241 73 83
142 160 153 173 51 56 88 108 88 125 0 34 -36 16 -121 -61z"/>
<path d="M5337 2899 c-37 -48 -86 -143 -108 -208 -11 -29 -24 -60 -31 -68 -8
-11 -8 -17 2 -26 10 -9 14 -9 17 0 2 6 19 31 37 55 18 24 43 70 56 103 13 33
28 64 32 70 4 5 8 21 8 35 0 14 5 31 11 37 6 6 9 17 7 24 -3 8 -15 -1 -31 -22z"/>
<path d="M5422 2838 c-7 -7 -12 -15 -12 -19 0 -13 62 -29 109 -28 l46 1 -33
12 c-19 6 -38 19 -43 29 -11 20 -49 23 -67 5z"/>
<path d="M2291 2730 c-19 -11 -47 -24 -62 -29 -44 -15 -37 -45 17 -84 45 -33
47 -33 80 -18 40 19 43 31 9 31 -14 0 -25 5 -25 10 0 6 11 10 25 10 14 0 25
-4 25 -10 0 -5 18 -10 40 -10 31 0 52 -9 97 -44 32 -23 77 -55 101 -70 23 -14
42 -34 42 -43 0 -14 -11 -15 -92 -10 -107 7 -218 22 -300 43 -98 24 -124 13
-75 -32 37 -35 84 -54 134 -54 26 -1 84 -7 128 -15 122 -22 161 -20 204 13 20
15 45 32 56 38 11 6 20 18 20 26 0 9 -47 50 -105 93 -58 42 -116 85 -130 96
-14 11 -43 33 -64 49 -45 34 -77 37 -125 10z"/>
<path d="M3261 2688 c-5 -13 -20 -34 -33 -48 -13 -14 -46 -54 -73 -90 -55 -72
-167 -185 -232 -232 -24 -17 -43 -35 -43 -39 0 -3 -9 -9 -20 -12 -22 -6 -27
-27 -7 -27 16 0 81 45 156 109 66 57 169 175 226 262 51 76 62 99 46 99 -6 0
-15 -10 -20 -22z"/>
<path d="M2795 2229 c-4 -6 -4 -13 -1 -16 8 -8 36 5 36 17 0 13 -27 13 -35 -1z"/>
</g>
</svg>
