<?xml version="1.0" encoding="utf-8"?>
<!-- Generator: Adobe Illustrator 22.0.1, SVG Export Plug-In . SVG Version: 6.00 Build 0)  -->
<svg version="1.1" id="Слой_1" xmlns="http://www.w3.org/2000/svg" xmlns:xlink="http://www.w3.org/1999/xlink" x="0px" y="0px"
	 viewBox="0 0 120 195" style="enable-background:new 0 0 120 195;" xml:space="preserve">
<style type="text/css">
	.st0{fill:#FFFFFF;stroke:#000000;stroke-miterlimit:10;}
</style>
<polyline class="st0" points="88.3,2.7 88.3,2.3 88.6,2.3 "/>
<polyline class="st0" points="88.6,194.3 88.6,194.3 88.3,194 88.3,193.7 "/>
<polyline class="st0" points="86.3,114.1 86.3,116.3 86,117 86,119 "/>
<line class="st0" x1="2.5" y1="114.1" x2="2.5" y2="119"/>
<polyline class="st0" points="5.4,113.4 5.7,113.4 6.1,113.4 "/>
<polyline class="st0" points="82.7,113.4 82.4,113.4 82.1,113.4 "/>
<polyline class="st0" points="86.3,192.7 86.3,193.3 86,193.3 86,193.7 85.7,193.7 85.4,194 85,194 "/>
<polyline class="st0" points="4.1,113.4 4.4,113.4 4.8,113.4 "/>
<polyline class="st0" points="3.1,114.4 3.5,114.4 3.8,114.4 4.1,114.4 "/>
<polyline class="st0" points="84.4,114.4 84.1,114.4 83.7,114.4 "/>
<polyline class="st0" points="85.4,113.4 85,113.4 84.7,113.4 84.4,113.4 "/>
<polyline class="st0" points="86,114.4 85.7,114.4 85.4,114.4 "/>
<polyline class="st0" points="86.7,193 86.7,193.7 86.3,194 86,194 85.7,194.3 85.4,194.3 "/>
<polyline class="st0" points="85.4,2.3 86.3,2.3 86.3,2.7 86.7,3 86.7,3.6 "/>
<line class="st0" x1="85.4" y1="113.1" x2="85" y2="113.1"/>
<polyline class="st0" points="85,194 85.7,194 86,193.7 86.3,193.3 86.3,192.7 "/>
<polyline class="st0" points="2.5,113.1 2.8,113.1 3.1,113.1 "/>
<line class="st0" x1="86.3" y1="124.5" x2="86.3" y2="124.5"/>
<line class="st0" x1="2.5" y1="115.7" x2="2.5" y2="119"/>
<polyline class="st0" points="101.7,194.3 108.3,193 113.5,189.4 117.1,184.2 118.5,177.9 "/>
<polyline class="st0" points="118.5,18.7 117.1,12.5 113.5,6.9 108.3,3.3 101.7,2.3 "/>
<polyline class="st0" points="18.2,2.3 12,3.3 6.7,6.9 3.1,12.5 1.8,18.7 "/>
<polyline class="st0" points="1.8,177.9 3.1,184.2 6.7,189.4 12,193 18.2,194.3 "/>
<polyline class="st0" points="2.1,177.9 3.5,183.8 6.7,189.1 12,192.7 18.2,194 "/>
<polyline class="st0" points="2.1,177.9 3.5,183.8 7.1,189.1 12,192.7 18.2,194 "/>
<polyline class="st0" points="18.2,3 12.3,4.3 7.1,7.6 3.8,12.8 2.5,18.7 "/>
<polyline class="st0" points="117.5,18.7 116.5,12.8 112.9,7.6 108,4.3 101.7,3 "/>
<polyline class="st0" points="101.7,193.7 108,192.4 112.9,189.1 116.5,183.8 117.5,177.9 "/>
<polyline class="st0" points="2.5,177.9 3.8,183.8 7.1,189.1 12.3,192.4 18.2,193.7 "/>
<polyline class="st0" points="18.2,3.3 12.3,4.3 7.4,7.9 4.1,12.8 2.8,18.7 "/>
<polyline class="st0" points="117.5,18.7 116.2,12.8 112.9,7.9 108,4.3 101.7,3.3 "/>
<polyline class="st0" points="101.7,193.3 108,192 112.9,188.8 116.2,183.8 117.5,177.9 "/>
<polyline class="st0" points="2.8,177.9 4.1,183.8 7.4,188.8 12.3,192 18.2,193.3 "/>
<polyline class="st0" points="109.6,18.7 108.6,14.8 105.7,12.2 101.7,10.9 "/>
<polyline class="st0" points="101.7,185.5 105.7,184.5 108.6,181.5 109.6,177.9 "/>
<polyline class="st0" points="10.7,177.9 11.6,181.5 14.6,184.5 18.2,185.5 "/>
<polyline class="st0" points="18.2,10.9 14.6,12.2 11.6,14.8 10.7,18.7 "/>
<polyline class="st0" points="100.4,88.5 103.4,87.5 104.7,84.6 103.4,81.6 100.4,80.3 "/>
<polyline class="st0" points="55.2,80.3 52.3,81.6 51.3,84.6 52.3,87.5 55.2,88.5 "/>
<polyline class="st0" points="55.2,81.9 53.6,82.6 52.9,84.6 53.6,86.2 55.2,86.9 "/>
<polyline class="st0" points="69,86.9 70.6,86.2 71.6,84.6 70.6,82.6 69,81.9 "/>
<polyline class="st0" points="69,86.9 70.6,86.2 71.3,84.6 70.6,82.9 69,82.3 "/>
<polyline class="st0" points="55.2,82.3 53.6,82.9 52.9,84.6 53.6,86.2 55.2,86.9 "/>
<polyline class="st0" points="69,86.9 70.6,86.2 71.3,84.6 70.6,82.9 69,82.3 "/>
<polyline class="st0" points="55.2,82.3 53.6,82.9 52.9,84.6 53.6,86.2 55.2,86.9 "/>
<line class="st0" x1="86" y1="4.3" x2="86" y2="3.6"/>
<line class="st0" x1="85.4" y1="3" x2="84.7" y2="3"/>
<polyline class="st0" points="89.3,3 89,3 89,3.3 "/>
<polyline class="st0" points="89,193 89,193.3 89.3,193.7 "/>
<line class="st0" x1="89.3" y1="3.3" x2="89" y2="3.3"/>
<line class="st0" x1="89" y1="193" x2="89.3" y2="193.3"/>
<line class="st0" x1="89" y1="10.9" x2="89" y2="3.3"/>
<line class="st0" x1="89.6" y1="10.9" x2="89.3" y2="3.3"/>
<line class="st0" x1="89.3" y1="193.3" x2="89.6" y2="185.5"/>
<line class="st0" x1="89" y1="193" x2="89" y2="185.5"/>
<line class="st0" x1="85.4" y1="185.5" x2="85.7" y2="192.4"/>
<polyline class="st0" points="86,185.5 86,192 85.7,192.4 84.7,193.3 "/>
<polyline class="st0" points="86,192 85.7,193 84.7,193.7 "/>
<line class="st0" x1="86" y1="3.6" x2="85.4" y2="3"/>
<line class="st0" x1="85.7" y1="4" x2="86" y2="4.3"/>
<line class="st0" x1="85.7" y1="4" x2="84.7" y2="3.3"/>
<line class="st0" x1="86" y1="10.9" x2="86" y2="4.3"/>
<line class="st0" x1="85.4" y1="10.9" x2="85.7" y2="4"/>
<line class="st0" x1="118.5" y1="16.1" x2="118.5" y2="16.1"/>
<line class="st0" x1="18.2" y1="194.3" x2="86.7" y2="194.3"/>
<line class="st0" x1="88.6" y1="194.3" x2="101.7" y2="194.3"/>
<line class="st0" x1="85" y1="194" x2="18.2" y2="194"/>
<line class="st0" x1="85" y1="194" x2="18.2" y2="194"/>
<line class="st0" x1="101.7" y1="193.7" x2="89.3" y2="193.7"/>
<line class="st0" x1="84.7" y1="193.7" x2="18.2" y2="193.7"/>
<line class="st0" x1="101.7" y1="193.3" x2="89.3" y2="193.3"/>
<line class="st0" x1="84.7" y1="193.3" x2="18.2" y2="193.3"/>
<line class="st0" x1="18.2" y1="185.5" x2="86" y2="185.5"/>
<line class="st0" x1="89" y1="185.5" x2="101.7" y2="185.5"/>
<line class="st0" x1="2.1" y1="177.9" x2="1.8" y2="177.9"/>
<line class="st0" x1="2.1" y1="177.9" x2="10.7" y2="177.9"/>
<line class="st0" x1="109.6" y1="177.9" x2="118.5" y2="177.9"/>
<line class="st0" x1="1.8" y1="18.7" x2="1.8" y2="177.9"/>
<line class="st0" x1="2.1" y1="177.9" x2="2.1" y2="119"/>
<line class="st0" x1="2.1" y1="177.9" x2="2.1" y2="119"/>
<line class="st0" x1="2.5" y1="18.7" x2="2.5" y2="113.1"/>
<line class="st0" x1="2.5" y1="177.9" x2="2.5" y2="114.4"/>
<line class="st0" x1="2.8" y1="18.7" x2="2.8" y2="113.1"/>
<line class="st0" x1="2.8" y1="177.9" x2="2.8" y2="114.4"/>
<line class="st0" x1="3.1" y1="113.4" x2="3.1" y2="114.1"/>
<line class="st0" x1="3.5" y1="114.4" x2="3.5" y2="113.4"/>
<line class="st0" x1="3.8" y1="114.4" x2="3.8" y2="113.4"/>
<line class="st0" x1="5.7" y1="113.4" x2="5.7" y2="113.4"/>
<line class="st0" x1="84.7" y1="3" x2="85.4" y2="2.3"/>
<line class="st0" x1="7.4" y1="113.4" x2="7.4" y2="113.4"/>
<line class="st0" x1="7.7" y1="113.4" x2="7.7" y2="113.4"/>
<line class="st0" x1="10.7" y1="18.7" x2="10.7" y2="113.1"/>
<polyline class="st0" points="10.7,113.4 10.7,114.4 10.7,177.9 "/>
<line class="st0" x1="86" y1="4.3" x2="86.7" y2="3.6"/>
<line class="st0" x1="15.9" y1="113.4" x2="15.9" y2="113.4"/>
<line class="st0" x1="18.2" y1="194" x2="18.2" y2="194.3"/>
<line class="st0" x1="18.2" y1="194" x2="18.2" y2="185.5"/>
<line class="st0" x1="18.2" y1="10.9" x2="18.2" y2="2.3"/>
<line class="st0" x1="85" y1="194" x2="84.7" y2="193.7"/>
<line class="st0" x1="85.4" y1="194.3" x2="85" y2="194"/>
<line class="st0" x1="86.3" y1="192.7" x2="86" y2="192"/>
<line class="st0" x1="86.7" y1="193" x2="86.3" y2="192.7"/>
<line class="st0" x1="20.8" y1="113.4" x2="20.8" y2="113.4"/>
<line class="st0" x1="22.5" y1="113.4" x2="22.5" y2="113.4"/>
<line class="st0" x1="28" y1="113.4" x2="28" y2="113.4"/>
<line class="st0" x1="22.5" y1="113.4" x2="22.5" y2="113.4"/>
<line class="st0" x1="2.5" y1="114.4" x2="2.5" y2="114.1"/>
<line class="st0" x1="3.5" y1="114.4" x2="3.1" y2="114.1"/>
<line class="st0" x1="7.4" y1="113.4" x2="7.4" y2="113.4"/>
<line class="st0" x1="86" y1="114.4" x2="86.3" y2="114.1"/>
<line class="st0" x1="85.4" y1="114.4" x2="85.4" y2="114.1"/>
<line class="st0" x1="5.4" y1="113.4" x2="5.4" y2="113.4"/>
<line class="st0" x1="3.1" y1="113.4" x2="3.5" y2="113.4"/>
<line class="st0" x1="3.1" y1="113.4" x2="3.5" y2="113.4"/>
<line class="st0" x1="5.4" y1="113.4" x2="5.4" y2="113.4"/>
<line class="st0" x1="85.4" y1="113.4" x2="85.4" y2="113.4"/>
<line class="st0" x1="85.4" y1="113.4" x2="85.4" y2="113.4"/>
<line class="st0" x1="83.4" y1="113.4" x2="83.1" y2="113.4"/>
<line class="st0" x1="83.4" y1="113.4" x2="83.4" y2="113.4"/>
<line class="st0" x1="3.1" y1="113.4" x2="3.1" y2="113.4"/>
<line class="st0" x1="86.3" y1="114.1" x2="86.3" y2="114.1"/>
<line class="st0" x1="2.1" y1="119" x2="2.1" y2="119"/>
<line class="st0" x1="86.3" y1="119" x2="86.3" y2="119"/>
<line class="st0" x1="10.7" y1="114.4" x2="85.4" y2="114.4"/>
<line class="st0" x1="10.7" y1="114.4" x2="84.4" y2="114.4"/>
<line class="st0" x1="2.5" y1="114.1" x2="3.1" y2="114.1"/>
<line class="st0" x1="85.4" y1="114.1" x2="86.3" y2="114.1"/>
<line class="st0" x1="2.5" y1="114.1" x2="3.1" y2="114.1"/>
<line class="st0" x1="85.4" y1="114.1" x2="86" y2="114.1"/>
<line class="st0" x1="10.7" y1="113.4" x2="84.4" y2="113.4"/>
<line class="st0" x1="82.7" y1="113.4" x2="80.8" y2="113.4"/>
<line class="st0" x1="15.9" y1="113.4" x2="28" y2="113.4"/>
<line class="st0" x1="80.8" y1="113.4" x2="28" y2="113.4"/>
<line class="st0" x1="15.9" y1="113.4" x2="7.7" y2="113.4"/>
<line class="st0" x1="3.1" y1="113.4" x2="5.4" y2="113.4"/>
<line class="st0" x1="83.4" y1="113.4" x2="85.4" y2="113.4"/>
<line class="st0" x1="2.5" y1="113.4" x2="5.7" y2="113.4"/>
<line class="st0" x1="83.1" y1="113.4" x2="86.3" y2="113.4"/>
<line class="st0" x1="83.1" y1="113.4" x2="81.1" y2="113.4"/>
<line class="st0" x1="7.4" y1="113.4" x2="5.7" y2="113.4"/>
<line class="st0" x1="10.7" y1="113.4" x2="81.1" y2="113.4"/>
<line class="st0" x1="10.7" y1="113.1" x2="85.4" y2="113.1"/>
<line class="st0" x1="2.5" y1="114.1" x2="2.5" y2="114.1"/>
<line class="st0" x1="85.4" y1="113.4" x2="85.4" y2="113.4"/>
<line class="st0" x1="55.2" y1="82.3" x2="55.2" y2="82.3"/>
<line class="st0" x1="55.2" y1="86.9" x2="55.2" y2="86.9"/>
<line class="st0" x1="83.1" y1="113.4" x2="83.1" y2="113.4"/>
<line class="st0" x1="86" y1="113.1" x2="86.3" y2="113.4"/>
<line class="st0" x1="69" y1="82.3" x2="69" y2="82.3"/>
<line class="st0" x1="69" y1="86.9" x2="69" y2="86.9"/>
<line class="st0" x1="5.7" y1="113.4" x2="5.7" y2="113.4"/>
<line class="st0" x1="2.5" y1="113.4" x2="2.5" y2="113.1"/>
<line class="st0" x1="81.1" y1="113.4" x2="81.1" y2="113.4"/>
<line class="st0" x1="55.2" y1="88.5" x2="86" y2="88.5"/>
<line class="st0" x1="89" y1="88.5" x2="100.4" y2="88.5"/>
<line class="st0" x1="80.8" y1="113.4" x2="80.8" y2="113.4"/>
<line class="st0" x1="81.1" y1="113.4" x2="81.1" y2="113.4"/>
<line class="st0" x1="83.1" y1="113.4" x2="83.1" y2="113.4"/>
<line class="st0" x1="84.4" y1="114.4" x2="84.4" y2="113.4"/>
<line class="st0" x1="84.7" y1="193.7" x2="84.7" y2="193.3"/>
<line class="st0" x1="84.7" y1="3.3" x2="84.7" y2="3"/>
<polyline class="st0" points="55.2,86.9 69,86.9 55.2,86.9 "/>
<line class="st0" x1="69" y1="86.9" x2="55.2" y2="86.9"/>
<line class="st0" x1="55.2" y1="82.3" x2="69" y2="82.3"/>
<line class="st0" x1="55.2" y1="82.3" x2="69" y2="82.3"/>
<line class="st0" x1="69" y1="81.9" x2="55.2" y2="81.9"/>
<line class="st0" x1="86" y1="80.3" x2="55.2" y2="80.3"/>
<line class="st0" x1="89" y1="80.3" x2="100.4" y2="80.3"/>
<polyline class="st0" points="85.4,114.4 85.4,113.4 85.4,114.1 "/>
<line class="st0" x1="85.4" y1="114.4" x2="85.4" y2="185.5"/>
<line class="st0" x1="85.4" y1="113.1" x2="85.4" y2="88.5"/>
<line class="st0" x1="85.4" y1="80.3" x2="85.4" y2="10.9"/>
<line class="st0" x1="86" y1="114.4" x2="86" y2="185.5"/>
<line class="st0" x1="86" y1="113.1" x2="86" y2="88.5"/>
<line class="st0" x1="86" y1="80.3" x2="86" y2="10.9"/>
<line class="st0" x1="86" y1="88.5" x2="86" y2="80.3"/>
<line class="st0" x1="86.3" y1="192.7" x2="86.3" y2="119"/>
<line class="st0" x1="86.3" y1="192.7" x2="86.3" y2="119"/>
<line class="st0" x1="86.7" y1="194.3" x2="86.7" y2="2.3"/>
<line class="st0" x1="88.3" y1="2.7" x2="88.3" y2="193.7"/>
<line class="st0" x1="89" y1="88.5" x2="89" y2="80.3"/>
<line class="st0" x1="89" y1="185.5" x2="89" y2="88.5"/>
<line class="st0" x1="89" y1="80.3" x2="89" y2="10.9"/>
<line class="st0" x1="89.3" y1="3" x2="89.3" y2="3.3"/>
<line class="st0" x1="89.3" y1="193.3" x2="89.3" y2="193.7"/>
<line class="st0" x1="89.3" y1="88.5" x2="89.3" y2="80.3"/>
<line class="st0" x1="89.6" y1="185.5" x2="89.6" y2="88.5"/>
<line class="st0" x1="89.6" y1="80.3" x2="89.6" y2="10.9"/>
<line class="st0" x1="101.7" y1="194.3" x2="101.7" y2="185.5"/>
<line class="st0" x1="101.7" y1="10.9" x2="101.7" y2="2.3"/>
<line class="st0" x1="109.6" y1="177.9" x2="109.6" y2="18.7"/>
<line class="st0" x1="117.5" y1="18.7" x2="117.5" y2="177.9"/>
<line class="st0" x1="117.5" y1="18.7" x2="117.5" y2="177.9"/>
<line class="st0" x1="118.5" y1="177.9" x2="118.5" y2="18.7"/>
<line class="st0" x1="89" y1="193" x2="88.3" y2="193.7"/>
<line class="st0" x1="89.3" y1="193.7" x2="88.6" y2="194.3"/>
<line class="st0" x1="1.8" y1="18.7" x2="10.7" y2="18.7"/>
<line class="st0" x1="109.6" y1="18.7" x2="118.5" y2="18.7"/>
<line class="st0" x1="18.2" y1="10.9" x2="86" y2="10.9"/>
<line class="st0" x1="89" y1="10.9" x2="101.7" y2="10.9"/>
<line class="st0" x1="88.3" y1="2.7" x2="89" y2="3.3"/>
<line class="st0" x1="88.6" y1="2.3" x2="89.3" y2="3"/>
<line class="st0" x1="84.7" y1="3.3" x2="18.2" y2="3.3"/>
<line class="st0" x1="89.3" y1="3.3" x2="101.7" y2="3.3"/>
<line class="st0" x1="84.7" y1="3" x2="18.2" y2="3"/>
<line class="st0" x1="89.3" y1="3" x2="101.7" y2="3"/>
<line class="st0" x1="101.7" y1="2.3" x2="88.6" y2="2.3"/>
<line class="st0" x1="18.2" y1="2.3" x2="86.7" y2="2.3"/>
</svg>
