<?xml version="1.0" standalone="no"?>
<!DOCTYPE svg PUBLIC "-//W3C//DTD SVG 20010904//EN"
 "http://www.w3.org/TR/2001/REC-SVG-20010904/DTD/svg10.dtd">
<svg version="1.0" xmlns="http://www.w3.org/2000/svg"
 width="257.000000pt" height="262.000000pt" viewBox="0 0 257.000000 262.000000"
 preserveAspectRatio="xMidYMid meet">
<metadata>
Created by potrace 1.10, written by Peter Selinger 2001-2011
</metadata>
<g transform="translate(0.000000,262.000000) scale(0.100000,-0.100000)"
fill="#000000" stroke="none">
<path d="M691 2499 c-269 -53 -485 -241 -578 -505 l-28 -79 0 -605 0 -605 23
-70 c52 -156 142 -286 259 -374 65 -49 159 -101 213 -116 22 -6 23 -5 10 8 -8
8 -35 26 -60 39 -199 110 -325 250 -388 433 -40 116 -43 168 -40 725 l4 535
26 83 c62 197 205 361 394 453 140 68 155 69 744 69 289 0 548 -4 575 -9 283
-52 487 -226 582 -496 l28 -80 0 -585 c0 -570 -1 -587 -22 -664 -25 -92 -95
-212 -172 -297 -58 -65 -132 -119 -228 -167 -68 -35 -90 -56 -45 -42 102 29
239 123 318 218 30 37 75 108 99 157 76 155 76 155 75 785 0 524 -1 562 -20
636 -69 267 -274 470 -545 539 l-98 25 -541 -1 c-297 -1 -561 -5 -585 -10z"/>
<path d="M760 1910 c0 -29 1 -30 48 -30 46 0 47 1 47 30 0 29 -1 30 -47 30
-47 0 -48 -1 -48 -30z"/>
<path d="M887 1908 c25 -43 39 -45 62 -7 25 40 17 53 -10 19 l-20 -25 -16 23
c-24 34 -37 26 -16 -10z"/>
<path d="M987 1933 c-4 -3 -7 -17 -7 -30 0 -21 4 -23 48 -23 46 0 47 1 47 30
0 28 -2 30 -41 30 -22 0 -44 -3 -47 -7z"/>
<path d="M1097 1933 c-11 -10 -8 -53 3 -53 6 0 10 9 10 20 0 14 7 20 21 20 11
0 18 -4 15 -9 -3 -4 3 -16 14 -26 11 -10 20 -16 21 -14 11 70 12 69 -34 69
-24 0 -47 -3 -50 -7z"/>
<path d="M1219 1938 c-1 -2 -2 -15 -3 -30 -2 -26 0 -28 40 -28 48 0 56 7 47
38 -4 18 -13 22 -44 22 -22 0 -40 -1 -40 -2z"/>
<path d="M1329 1938 c-5 -17 -4 -50 3 -54 4 -3 8 0 8 5 0 6 18 11 40 11 33 0
40 3 40 20 0 17 -7 20 -45 20 -25 0 -45 -1 -46 -2z"/>
<path d="M1440 1910 c0 -16 5 -30 10 -30 6 0 10 9 10 20 0 28 16 25 46 -7 16
-18 24 -22 20 -11 -3 10 -1 20 4 23 6 4 10 13 10 21 0 10 -13 14 -50 14 -49 0
-50 -1 -50 -30z"/>
<path d="M1559 1938 c-8 -24 -7 -58 1 -58 5 0 10 14 10 30 0 17 -2 30 -5 30
-3 0 -5 -1 -6 -2z"/>
<path d="M1587 1933 c-11 -10 -8 -53 3 -53 6 0 10 7 10 15 0 19 15 19 45 -1
13 -9 29 -13 35 -9 13 8 13 55 0 55 -5 0 -10 -7 -10 -15 0 -19 -19 -19 -44 0
-22 17 -29 18 -39 8z"/>
<path d="M1704 1925 c-12 -31 4 -45 51 -45 47 0 48 1 39 38 -5 18 -13 22 -45
22 -26 0 -42 -5 -45 -15z m36 -20 c0 -8 -4 -15 -9 -15 -5 0 -11 7 -15 15 -3 9
0 15 9 15 8 0 15 -7 15 -15z"/>
<path d="M622 1818 c-7 -7 -11 -23 -11 -37 2 -23 2 -23 6 -4 6 30 22 41 68 46
l40 4 -45 1 c-26 1 -51 -3 -58 -10z"/>
<path d="M883 1823 c20 -2 54 -2 75 0 20 2 3 4 -38 4 -41 0 -58 -2 -37 -4z"/>
<path d="M1088 1823 c12 -2 30 -2 40 0 9 3 -1 5 -23 4 -22 0 -30 -2 -17 -4z"/>
<path d="M1603 1823 c9 -2 25 -2 35 0 9 3 1 5 -18 5 -19 0 -27 -2 -17 -5z"/>
<path d="M1863 1820 c20 -4 41 -10 45 -14 4 -4 10 -58 13 -119 l5 -112 2 108
c2 132 -4 147 -61 146 l-42 -1 38 -8z"/>
<path d="M640 1795 c-16 -19 -11 -522 6 -536 7 -5 265 -8 635 -7 l624 3 2 265
c1 177 -1 268 -9 277 -8 10 -134 13 -628 13 -530 0 -619 -2 -630 -15z m1226
-19 c18 -13 19 -30 22 -248 3 -203 2 -236 -12 -247 -20 -17 -1193 -18 -1210
-1 -15 15 -21 463 -7 488 10 19 31 19 599 21 494 1 591 -1 608 -13z"/>
<path d="M690 1750 c0 -5 5 -9 12 -7 8 1 11 -10 9 -34 -1 -21 2 -40 8 -44 10
-6 16 25 13 67 -1 11 3 15 13 12 8 -4 15 -1 15 5 0 6 -16 11 -35 11 -19 0 -35
-4 -35 -10z"/>
<path d="M1481 1741 c-31 -5 -58 -31 -33 -31 6 0 12 6 15 13 7 20 60 -14 67
-43 6 -24 7 -23 19 12 19 57 10 63 -68 49z"/>
<path d="M830 1706 c0 -19 5 -38 10 -41 6 -4 10 10 10 34 0 23 -4 41 -10 41
-5 0 -10 -15 -10 -34z"/>
<path d="M800 1690 c0 -18 4 -29 10 -25 6 3 10 15 10 25 0 10 -4 22 -10 25 -6
4 -10 -7 -10 -25z"/>
<path d="M1462 1688 c7 -19 38 -22 38 -4 0 10 -9 16 -21 16 -12 0 -19 -5 -17
-12z"/>
<path d="M1130 1605 c0 -11 11 -15 40 -15 l40 0 0 -55 0 -55 -38 0 c-53 0 -72
-23 -72 -86 0 -28 5 -55 12 -62 14 -14 98 -16 98 -2 0 6 -21 10 -46 10 -38 0
-45 3 -40 16 3 9 6 36 6 60 0 44 0 44 36 44 19 0 42 6 50 14 18 18 18 105 0
129 -17 22 -86 24 -86 2z"/>
<path d="M1337 1614 c-13 -14 6 -24 44 -24 l39 0 0 -55 0 -55 -39 0 c-22 0
-43 -4 -46 -10 -4 -6 12 -10 40 -10 39 0 46 -3 41 -16 -3 -9 -6 -36 -6 -60 l0
-44 -40 0 c-22 0 -40 -4 -40 -10 0 -17 68 -11 90 7 23 20 28 101 8 121 -9 9
-10 15 -2 20 18 11 24 112 8 112 -8 0 -14 7 -14 15 0 11 -11 15 -38 15 -21 0
-42 -3 -45 -6z"/>
<path d="M1550 1605 c0 -11 11 -15 40 -15 l40 0 0 -55 c0 -30 5 -55 10 -55 13
0 13 96 0 121 -14 24 -90 28 -90 4z"/>
<path d="M1687 1523 c-12 -11 -8 -23 8 -23 8 0 15 7 15 15 0 16 -12 20 -23 8z"/>
<path d="M1721 1496 c-18 -22 2 -26 23 -5 16 16 17 19 4 19 -9 0 -21 -6 -27
-14z"/>
<path d="M1540 1470 c0 -5 18 -10 40 -10 22 0 40 5 40 10 0 6 -18 10 -40 10
-22 0 -40 -4 -40 -10z"/>
<path d="M1626 1444 c-3 -9 -6 -36 -6 -60 l0 -44 -40 0 c-22 0 -40 -4 -40 -10
0 -15 72 -12 93 4 12 10 17 27 17 64 0 51 -13 75 -24 46z"/>
<path d="M1717 1453 c-12 -19 1 -33 26 -32 16 1 17 3 5 6 -9 2 -18 12 -20 21
-3 13 -6 14 -11 5z"/>
<path d="M1460 1336 c0 -9 7 -16 16 -16 17 0 14 22 -4 28 -7 2 -12 -3 -12 -12z"/>
<path d="M612 1433 c-2 -181 -1 -193 17 -203 27 -14 1255 -14 1282 0 13 8 19
21 18 43 -1 21 -3 25 -6 12 -3 -11 -12 -28 -21 -37 -14 -17 -57 -18 -627 -18
-569 0 -614 1 -634 18 -20 16 -21 28 -24 197 l-2 180 -3 -192z"/>
<path d="M1923 1505 c0 -38 2 -53 4 -32 2 20 2 52 0 70 -2 17 -4 1 -4 -38z"/>
<path d="M907 1133 c-12 -11 -8 -23 8 -23 8 0 15 7 15 15 0 16 -12 20 -23 8z"/>
<path d="M990 1125 c0 -8 5 -15 10 -15 6 0 10 -13 10 -29 0 -17 5 -33 10 -36
9 -6 14 10 13 43 -1 6 3 12 8 12 5 0 9 5 9 10 0 6 -9 10 -20 10 -11 0 -20 5
-20 10 0 6 -4 10 -10 10 -5 0 -10 -7 -10 -15z"/>
<path d="M1123 1123 c-13 -2 -23 -7 -23 -11 0 -4 -3 -17 -6 -29 -4 -14 -2 -23
5 -23 6 0 11 9 11 19 0 14 8 21 28 23 15 2 26 7 25 13 -2 12 -11 13 -40 8z"/>
<path d="M550 1095 c0 -22 4 -25 35 -25 31 0 35 3 35 25 0 22 -4 25 -35 25
-31 0 -35 -3 -35 -25z"/>
<path d="M670 1096 c-12 -34 -13 -46 -1 -46 11 0 26 59 17 67 -3 3 -10 -6 -16
-21z"/>
<path d="M713 1081 c2 -29 6 -34 29 -35 23 -1 26 2 25 26 -2 35 17 38 21 3 5
-38 20 -30 20 10 l0 35 -49 -2 -49 -2 3 -35z"/>
<path d="M934 1106 c-10 -25 0 -61 19 -64 20 -4 24 24 5 31 -10 4 -10 8 1 15
7 5 10 15 7 21 -10 15 -26 14 -32 -3z"/>
<path d="M1320 1083 c0 -39 1 -41 28 -38 16 1 33 5 39 8 6 4 13 3 17 0 3 -4
15 -7 25 -8 15 -1 18 6 18 36 0 27 -3 36 -13 32 -8 -3 -14 -16 -14 -30 0 -13
-4 -21 -10 -18 -5 3 -10 18 -10 33 0 29 -15 20 -23 -13 -4 -17 -5 -17 -6 4 -1
15 -6 21 -15 18 -7 -3 -19 0 -25 6 -8 8 -11 0 -11 -30z"/>
<path d="M1474 1085 c-14 -45 -4 -55 13 -14 15 36 16 49 5 49 -4 0 -12 -16
-18 -35z"/>
<path d="M1521 1092 c-28 -39 -21 -52 26 -49 45 2 49 14 20 51 l-24 29 -22
-31z"/>
<path d="M1856 1085 c-19 -44 -19 -45 -7 -45 11 0 36 69 28 77 -3 3 -13 -12
-21 -32z"/>
<path d="M1900 1103 c0 -10 9 -29 20 -43 l20 -25 24 30 c14 17 24 35 22 40 -1
6 -21 11 -44 13 -35 3 -42 0 -42 -15z"/>
<path d="M1062 1085 c-14 -31 -15 -45 -4 -45 5 0 13 16 19 35 13 40 2 47 -15
10z"/>
<path d="M1714 1101 c-2 -2 -4 -17 -4 -31 0 -25 3 -28 41 -28 27 -1 39 3 36
11 -3 7 -10 11 -16 10 -6 -2 -11 3 -11 10 0 23 31 15 43 -10 15 -33 27 -28 27
12 l0 34 -56 -2 c-31 -1 -58 -4 -60 -6z"/>
<path d="M630 1080 c0 -15 -7 -20 -25 -20 -14 0 -25 -4 -25 -10 0 -16 37 -12
54 6 18 17 21 44 6 44 -5 0 -10 -9 -10 -20z"/>
<path d="M1180 1075 c0 -20 -5 -25 -25 -25 -14 0 -25 -4 -25 -10 0 -14 43 -13
58 2 15 15 16 58 2 58 -5 0 -10 -11 -10 -25z"/>
<path d="M573 1001 c-35 -22 -49 -64 -34 -104 15 -39 40 -47 151 -47 94 0 103
2 125 25 34 33 34 83 -1 116 -23 21 -36 24 -117 27 -78 2 -97 0 -124 -17z
m228 -30 c24 -30 24 -56 -1 -81 -17 -17 -33 -20 -112 -20 -100 0 -109 3 -127
38 -9 18 -9 28 1 50 15 32 48 40 152 37 59 -1 71 -4 87 -24z"/>
<path d="M980 1014 c-61 -25 -79 -96 -35 -139 23 -23 31 -25 130 -25 102 0
107 1 130 26 32 34 32 75 1 110 -22 26 -29 28 -117 31 -52 1 -101 0 -109 -3z
m190 -27 c32 -16 40 -70 14 -98 -14 -16 -31 -19 -111 -19 -80 0 -96 3 -113 20
-25 25 -26 62 -2 83 28 26 170 35 212 14z"/>
<path d="M1354 1006 c-20 -9 -35 -25 -42 -45 -13 -36 -8 -56 21 -88 19 -21 29
-23 128 -23 l107 0 26 31 c14 17 26 37 26 44 0 34 -22 67 -55 80 -43 19 -169
19 -211 1z m224 -34 c17 -22 15 -62 -5 -84 -13 -15 -32 -18 -111 -18 -106 0
-132 12 -132 59 0 48 13 56 102 61 101 6 129 3 146 -18z"/>
<path d="M1794 1011 c-69 -7 -90 -20 -99 -61 -7 -32 15 -84 40 -94 9 -3 63 -6
119 -6 96 0 104 2 126 25 32 34 31 79 -2 112 -29 29 -79 36 -184 24z m168 -38
c22 -20 23 -61 1 -85 -13 -15 -32 -18 -114 -18 -109 0 -129 9 -129 60 0 50 21
60 127 60 76 0 100 -4 115 -17z"/>
<path d="M978 695 c-87 -48 -89 -192 -3 -245 30 -19 49 -20 306 -20 252 0 276
2 303 19 89 59 88 198 -3 246 -43 22 -562 22 -603 0z m601 -51 c38 -32 49 -80
27 -122 -32 -62 -34 -62 -328 -62 l-268 0 -32 29 c-28 25 -33 36 -33 75 0 36
6 51 29 75 l30 31 272 0 272 0 31 -26z"/>
<path d="M1055 600 c-4 -6 33 -10 105 -10 72 0 109 4 105 10 -3 6 -50 10 -105
10 -55 0 -102 -4 -105 -10z"/>
<path d="M1300 600 c0 -6 42 -10 105 -10 99 0 106 -1 114 -22 5 -15 10 -18 15
-9 5 7 0 21 -10 32 -15 16 -31 19 -121 19 -62 0 -103 -4 -103 -10z"/>
<path d="M1024 579 c-3 -6 -1 -16 5 -22 8 -8 11 -5 11 11 0 24 -5 28 -16 11z"/>
<path d="M1055 550 c-3 -5 0 -13 8 -15 24 -10 202 -1 202 10 0 14 -201 19
-210 5z"/>
<path d="M1300 545 c0 -12 18 -15 105 -15 87 0 105 3 105 15 0 12 -18 15 -105
15 -87 0 -105 -3 -105 -15z"/>
<path d="M703 95 c34 -16 1136 -14 1162 2 16 10 -101 12 -582 11 -419 -2 -596
-6 -580 -13z"/>
</g>
</svg>
