<?xml version="1.0" standalone="no"?>
<!DOCTYPE svg PUBLIC "-//W3C//DTD SVG 20010904//EN"
 "http://www.w3.org/TR/2001/REC-SVG-20010904/DTD/svg10.dtd">
<svg version="1.0" xmlns="http://www.w3.org/2000/svg"
 width="300.000000pt" height="300.000000pt" viewBox="0 0 300.000000 300.000000"
 preserveAspectRatio="xMidYMid meet">
<metadata>
Created by potrace 1.10, written by Peter Selinger 2001-2011
</metadata>
<g transform="translate(0.000000,300.000000) scale(0.100000,-0.100000)"
fill="#000000" stroke="none">
<path d="M1586 2429 c55 -58 165 -152 171 -146 3 4 -16 26 -43 50 -27 25 -68
63 -92 86 -49 47 -80 56 -36 10z"/>
<path d="M1511 2413 c1 -11 171 -165 188 -171 27 -9 4 18 -84 97 -85 76 -106
91 -104 74z"/>
<path d="M1456 2381 c-3 -5 13 -25 37 -46 23 -20 66 -60 94 -88 32 -31 56 -47
61 -42 5 6 -30 45 -89 98 -54 48 -100 83 -103 78z"/>
<path d="M1406 2343 c-7 -7 93 -113 106 -113 5 0 22 -16 39 -35 30 -34 49 -44
49 -26 0 14 -187 181 -194 174z"/>
<path d="M1350 2301 c0 -4 36 -42 79 -83 100 -94 110 -102 117 -95 5 5 -26 37
-133 140 -49 46 -63 55 -63 38z"/>
<path d="M1296 2261 c-4 -5 6 -19 21 -31 16 -11 58 -51 95 -87 37 -37 71 -63
75 -60 8 9 -29 48 -119 128 -36 33 -69 55 -72 50z"/>
<path d="M1857 2198 c37 -35 106 -99 153 -144 47 -45 103 -96 125 -114 44 -36
-18 25 -207 203 -69 64 -128 117 -132 117 -4 0 24 -28 61 -62z"/>
<path d="M1746 2225 c-11 -8 -15 -15 -9 -15 6 0 16 7 23 15 16 19 11 19 -14 0z"/>
<path d="M1025 2195 c-22 -13 -45 -28 -52 -34 -7 -6 -16 -11 -21 -11 -5 0 -15
-7 -22 -15 -7 -9 -15 -13 -18 -10 -7 7 -115 -55 -125 -72 -4 -7 -14 -13 -21
-13 -8 0 -17 -7 -20 -16 -3 -8 -11 -12 -16 -9 -15 9 -73 -37 -107 -85 -15 -22
-32 -40 -38 -40 -20 -1 -66 -116 -71 -177 -8 -98 38 -232 133 -391 72 -118
231 -328 323 -422 l82 -85 -71 80 c-104 119 -268 338 -328 440 -59 99 -105
210 -122 296 -13 63 -4 125 28 187 43 83 172 191 345 286 79 44 153 93 161
107 8 12 8 12 -40 -16z"/>
<path d="M1700 2190 c-8 -5 -12 -12 -9 -15 4 -3 12 1 19 10 14 17 11 19 -10 5z"/>
<path d="M1765 2179 c-5 -5 -21 -17 -34 -27 -14 -11 -20 -21 -14 -25 12 -8 85
47 76 57 -8 8 -16 7 -28 -5z"/>
<path d="M1659 2153 c-13 -16 -12 -17 4 -4 9 7 17 15 17 17 0 8 -8 3 -21 -13z"/>
<path d="M1772 2127 c-24 -14 -30 -23 -23 -30 8 -8 19 -4 38 16 34 34 28 40
-15 14z"/>
<path d="M1767 2079 c-56 -43 -69 -50 -82 -39 -12 10 -18 10 -30 0 -13 -11
-18 -10 -29 5 -7 11 -18 15 -25 11 -9 -6 -8 -12 4 -26 11 -12 13 -20 5 -25 -5
-3 -8 -11 -4 -16 3 -5 10 -7 15 -3 5 3 6 10 3 16 -5 7 -1 9 9 5 10 -4 16 -2
14 5 -1 7 8 13 21 14 12 1 22 0 22 -2 0 -2 -37 -31 -82 -65 -75 -56 -141 -87
-122 -58 5 8 3 9 -6 4 -10 -6 -12 -4 -7 8 4 11 2 14 -9 10 -17 -6 -18 -15 -2
-31 16 -16 -4 -16 -21 1 -11 10 -12 7 -6 -13 11 -35 15 -38 31 -16 8 11 14 16
14 12 0 -5 7 -2 16 5 15 12 16 11 10 -7 -6 -18 13 -40 111 -133 65 -61 125
-111 134 -111 26 0 344 248 344 269 0 23 -217 231 -242 231 -10 0 -49 -23 -86
-51z m166 -24 l68 -64 -90 -68 c-49 -37 -93 -76 -96 -86 -10 -28 -46 -57 -71
-57 -12 0 -36 -12 -53 -26 -17 -14 -35 -24 -40 -22 -23 9 -132 120 -129 132 4
17 315 256 332 256 6 -1 42 -30 79 -65z m-309 -21 c3 -8 2 -12 -4 -9 -6 3 -10
10 -10 16 0 14 7 11 14 -7z m376 -115 c0 -5 4 -8 9 -4 12 7 24 -12 16 -25 -3
-5 -14 -2 -25 8 -22 18 -26 32 -10 32 6 0 10 -5 10 -11z m55 1 c3 -5 1 -10 -4
-10 -6 0 -11 5 -11 10 0 6 2 10 4 10 3 0 8 -4 11 -10z m-64 -59 c-15 -10 -51
7 -51 23 0 6 5 5 12 -2 7 -7 17 -12 22 -12 6 0 5 5 -2 12 -7 7 -12 17 -12 22
0 6 10 0 23 -12 18 -19 19 -24 8 -31z m56 12 c-8 -10 -31 -26 -49 -36 -32 -17
-32 -17 -8 0 14 10 34 27 45 39 24 24 35 22 12 -3z m-112 -23 c4 -6 11 -8 16
-5 5 4 9 2 9 -4 0 -21 -17 -19 -43 5 -15 14 -27 27 -27 30 0 7 38 -15 45 -26z
m-35 -19 c0 -5 3 -18 7 -28 6 -17 5 -17 -15 1 -26 22 -28 36 -7 36 8 0 15 -4
15 -9z m-2 -48 c22 -8 17 -13 -54 -66 -43 -31 -85 -57 -94 -57 -9 0 -27 11
-39 24 -20 21 -21 27 -9 45 7 12 20 22 28 23 30 3 36 4 65 21 17 9 26 16 21
17 -6 0 -1 6 10 14 16 12 21 12 34 1 9 -8 26 -18 38 -22z m42 17 c0 -5 -4 -10
-10 -10 -5 0 -10 5 -10 10 0 6 5 10 10 10 6 0 10 -4 10 -10z"/>
<path d="M1900 2011 c0 -16 30 -33 46 -27 16 6 15 8 -2 21 -21 16 -44 19 -44
6z"/>
<path d="M1884 1987 c5 -15 2 -17 -17 -12 -21 6 -21 6 -3 -9 21 -17 46 -21 46
-8 0 5 -7 17 -16 28 -14 17 -15 17 -10 1z"/>
<path d="M1830 1948 c0 -7 4 -19 9 -27 8 -12 12 -12 26 3 20 19 19 21 -12 30
-16 5 -23 3 -23 -6z"/>
<path d="M1803 1926 c4 -11 1 -13 -10 -9 -11 4 -14 2 -9 -5 5 -8 2 -10 -8 -6
-9 3 -16 1 -16 -4 0 -15 43 -27 48 -13 2 6 8 9 13 5 10 -6 12 7 3 30 -3 9 -11
16 -16 16 -6 0 -8 -7 -5 -14z"/>
<path d="M1621 1904 c-11 -15 -21 -38 -21 -51 0 -31 28 -85 41 -78 5 4 3 15
-6 28 -19 28 -19 67 1 95 23 33 10 38 -15 6z"/>
<path d="M1650 1890 c-14 -26 -9 -82 8 -88 9 -3 10 3 2 23 -8 21 -7 33 5 51
17 27 19 34 5 34 -5 0 -14 -9 -20 -20z"/>
<path d="M1692 1878 c-30 -30 -3 -72 44 -66 34 4 53 31 38 56 -13 21 -64 28
-82 10z m61 -21 c4 3 7 2 7 -3 0 -12 -21 -34 -32 -34 -4 0 -8 7 -8 16 0 8 -4
12 -10 9 -14 -9 -12 9 2 23 10 10 15 10 24 -2 6 -9 14 -13 17 -9z"/>
<path d="M1589 2103 c-13 -16 -12 -17 4 -4 9 7 17 15 17 17 0 8 -8 3 -21 -13z"/>
<path d="M1672 2105 c-14 -8 -19 -15 -13 -19 13 -8 51 10 51 24 0 13 -9 11
-38 -5z"/>
<path d="M1530 2059 l-35 -30 37 23 c21 13 38 26 38 31 0 10 -2 9 -40 -24z"/>
<path d="M1713 2077 c-23 -10 -31 -27 -13 -27 6 0 10 5 10 11 0 5 4 8 9 4 5
-3 13 0 16 6 10 16 3 18 -22 6z"/>
<path d="M1020 2062 c0 -4 10 -16 23 -26 12 -10 54 -50 94 -89 40 -39 75 -68
79 -64 7 7 -175 187 -188 187 -5 0 -8 -3 -8 -8z"/>
<path d="M970 2022 c0 -13 174 -182 188 -182 25 0 10 19 -82 103 -92 85 -106
95 -106 79z m145 -130 c-3 -3 -11 0 -18 7 -9 10 -8 11 6 5 10 -3 15 -9 12 -12z"/>
<path d="M1350 1929 c-126 -93 -177 -134 -140 -113 28 16 280 205 280 210 0 7
-3 5 -140 -97z"/>
<path d="M910 1985 c0 -13 132 -135 141 -130 5 4 9 0 9 -8 0 -18 38 -53 47
-43 4 4 -35 47 -87 96 -84 81 -110 101 -110 85z"/>
<path d="M860 1942 c0 -13 174 -182 188 -182 6 0 12 2 12 5 0 8 -184 185 -192
185 -5 0 -8 -3 -8 -8z"/>
<path d="M800 1902 c0 -16 108 -114 119 -108 6 4 9 1 7 -6 -5 -15 61 -74 72
-63 7 7 -175 185 -190 185 -4 0 -8 -4 -8 -8z"/>
<path d="M2129 1879 l-24 -20 28 17 c15 9 27 18 27 20 0 8 -8 4 -31 -17z"/>
<path d="M1404 1865 c4 -10 -1 -14 -17 -12 -17 1 -22 -3 -21 -20 0 -13 -3 -23
-8 -23 -4 0 -8 5 -8 10 0 6 -4 10 -10 10 -5 0 -6 -8 -3 -17 5 -12 2 -15 -10
-10 -9 3 -17 3 -17 -1 0 -5 -16 -6 -35 -4 -32 4 -35 2 -35 -20 0 -14 11 -35
24 -47 24 -23 25 -23 55 -5 23 14 28 21 19 31 -7 9 -7 13 0 13 6 0 9 7 5 16
-5 13 -2 15 17 9 14 -5 20 -3 16 3 -3 6 4 12 16 14 17 2 22 9 20 22 -3 18 -2
19 15 5 16 -12 17 -12 6 2 -7 9 -10 18 -7 21 2 3 -3 8 -12 12 -12 4 -15 2 -10
-9z m-4 -35 c0 -5 -7 -10 -15 -10 -8 0 -15 5 -15 10 0 6 7 10 15 10 8 0 15 -4
15 -10z m-87 -58 c15 -17 15 -19 -5 -36 -20 -17 -21 -17 -40 1 -22 22 -15 53
12 53 9 0 24 -8 33 -18z m17 8 c0 -5 -2 -10 -4 -10 -3 0 -8 5 -11 10 -3 6 -1
10 4 10 6 0 11 -4 11 -10z"/>
<path d="M1265 1760 c3 -5 13 -10 21 -10 8 0 12 5 9 10 -3 6 -13 10 -21 10 -8
0 -12 -4 -9 -10z"/>
<path d="M2196 1872 c-6 -11 193 -197 202 -188 3 4 -11 24 -33 44 -22 20 -68
63 -102 95 -33 32 -64 54 -67 49z"/>
<path d="M750 1863 c0 -13 174 -183 188 -183 6 0 12 2 12 4 0 6 -180 181 -191
184 -5 2 -9 0 -9 -5z"/>
<path d="M1466 1821 c-3 -5 0 -14 8 -20 10 -9 15 -8 19 3 9 22 -15 37 -27 17z"/>
<path d="M2200 1765 c76 -78 139 -130 147 -122 7 8 -175 181 -196 185 -9 2 13
-26 49 -63z"/>
<path d="M1090 1739 c-52 -39 -102 -74 -110 -79 -12 -7 25 -48 170 -192 101
-101 173 -170 160 -154 -14 15 -94 96 -178 179 -168 167 -161 151 -92 197 28
19 132 99 145 111 23 23 -7 3 -95 -62z"/>
<path d="M1440 1806 c0 -2 8 -10 18 -17 15 -13 16 -12 3 4 -13 16 -21 21 -21
13z"/>
<path d="M1999 1783 c-13 -16 -12 -17 4 -4 9 7 17 15 17 17 0 8 -8 3 -21 -13z"/>
<path d="M1413 1775 c-11 -8 -23 -11 -27 -8 -3 3 -6 2 -6 -4 0 -12 30 -26 38
-18 3 3 0 5 -7 5 -7 0 -9 5 -6 10 5 8 11 8 20 0 9 -8 14 -7 18 4 9 22 -7 27
-30 11z"/>
<path d="M2090 1784 c0 -12 184 -183 198 -184 23 0 10 15 -84 100 -93 83 -114
99 -114 84z"/>
<path d="M1959 1753 c-13 -16 -12 -17 4 -4 9 7 17 15 17 17 0 8 -8 3 -21 -13z"/>
<path d="M643 1708 c0 -34 4 -48 14 -48 9 0 11 5 7 12 -4 7 -11 28 -15 48 -6
33 -7 32 -6 -12z"/>
<path d="M1199 1728 c-31 -26 -36 -68 -8 -68 23 0 24 4 3 25 -9 9 -13 19 -10
23 4 3 10 2 14 -4 4 -6 16 -14 26 -18 19 -6 19 -6 3 12 -24 26 -21 39 3 17 26
-24 33 -16 11 11 -17 21 -17 21 -42 2z"/>
<path d="M1466 1741 c-3 -5 1 -14 9 -21 12 -10 15 -10 15 3 0 19 -16 31 -24
18z"/>
<path d="M1540 1730 c0 -12 -7 -20 -16 -20 -8 0 -29 -13 -45 -29 -16 -16 -42
-32 -57 -34 -19 -3 -16 -4 14 -6 60 -2 94 -31 96 -84 l1 -42 4 38 c3 28 7 36
16 29 8 -7 21 -3 41 13 l29 23 -29 25 c-16 14 -31 23 -34 21 -2 -3 2 -9 10
-14 13 -8 12 -10 -2 -10 -14 0 -16 9 -13 55 1 30 -1 55 -6 55 -5 0 -9 -9 -9
-20z m0 -46 c0 -4 -8 -13 -17 -21 -17 -14 -17 -14 1 -9 14 5 17 2 12 -10 -3
-8 -6 -20 -6 -25 0 -6 -5 -7 -10 -4 -6 4 -7 11 -4 17 4 6 2 8 -4 4 -6 -3 -14
-1 -19 6 -11 18 -13 39 -3 33 5 -3 11 -1 15 5 7 11 35 14 35 4z m50 -68 c0
-16 -27 -29 -41 -20 -19 11 -9 34 16 34 15 0 25 -6 25 -14z"/>
<path d="M2090 1684 c81 -82 139 -129 148 -119 4 4 -6 18 -23 32 -16 14 -60
54 -96 89 -88 84 -112 83 -29 -2z"/>
<path d="M2501 1734 c0 -11 3 -14 6 -6 3 7 2 16 -1 19 -3 4 -6 -2 -5 -13z"/>
<path d="M1343 1721 c-12 -11 -23 -19 -25 -18 -2 1 4 -5 14 -14 9 -9 15 -19
12 -21 -2 -3 2 -11 10 -18 13 -10 19 -9 33 6 17 16 17 17 1 11 -10 -3 -20 -2
-23 3 -4 6 3 10 14 10 11 0 23 5 27 11 4 8 9 7 15 -2 4 -7 11 -10 16 -6 12 13
-19 26 -38 16 -28 -15 -47 -11 -25 6 10 7 15 18 11 24 -9 16 -18 14 -42 -8z
m10 -25 c4 -10 1 -13 -8 -9 -8 3 -12 9 -9 14 7 12 11 11 17 -5z"/>
<path d="M1919 1723 c-13 -16 -12 -17 4 -4 9 7 17 15 17 17 0 8 -8 3 -21 -13z"/>
<path d="M1980 1703 c0 -14 195 -191 204 -185 6 3 -35 47 -90 98 -93 88 -114
104 -114 87z"/>
<path d="M2498 1685 c-4 -16 -9 -39 -13 -50 -3 -11 1 -7 10 8 9 16 15 38 13
50 -3 19 -5 17 -10 -8z"/>
<path d="M1149 1673 c5 -10 10 -22 11 -28 2 -14 10 -21 10 -9 0 22 -13 54 -22
54 -5 0 -5 -7 1 -17z"/>
<path d="M1246 1664 c-20 -20 -21 -19 14 -19 17 -1 30 2 30 6 0 4 8 10 18 13
13 4 13 4 -3 3 -11 -1 -25 2 -32 6 -6 4 -19 0 -27 -9z"/>
<path d="M477 1617 c12 -144 90 -292 302 -577 96 -129 374 -420 384 -403 4 6
-7 24 -24 40 -43 39 -211 207 -229 230 -299 365 -384 509 -433 738 -3 11 -3
-1 0 -28z"/>
<path d="M1129 1652 c6 -10 7 -22 4 -26 -3 -3 -1 -6 5 -6 16 0 9 43 -7 48 -10
3 -10 0 -2 -16z"/>
<path d="M1930 1662 c0 -18 189 -194 201 -186 8 5 -4 22 -37 52 -27 25 -72 67
-101 94 -51 48 -63 55 -63 40z"/>
<path d="M652 1625 c0 -16 2 -22 5 -12 2 9 2 23 0 30 -3 6 -5 -1 -5 -18z"/>
<path d="M1071 1634 c-27 -20 -17 -37 18 -30 25 6 26 6 6 -10 -18 -15 -18 -16
-2 -10 10 3 21 6 23 6 2 0 4 7 4 16 0 13 -6 15 -27 9 -18 -4 -25 -3 -18 3 6 6
19 12 30 14 17 3 18 5 4 10 -9 4 -26 0 -38 -8z"/>
<path d="M1330 1642 c0 -6 -7 -9 -16 -8 -9 0 -18 -7 -19 -16 -4 -22 8 -23 28
-3 8 8 17 11 21 8 3 -4 6 -1 6 5 0 6 -4 14 -10 17 -5 3 -10 2 -10 -3z"/>
<path d="M1210 1629 c0 -5 -4 -7 -10 -4 -6 3 -7 -1 -4 -9 9 -23 24 -20 24 4 0
11 -2 20 -5 20 -3 0 -5 -5 -5 -11z"/>
<path d="M686 1617 c2 -7 14 -19 27 -26 21 -13 21 -12 -2 13 -27 29 -33 32
-25 13z"/>
<path d="M1367 1612 c-31 -34 -20 -85 24 -107 35 -19 80 -19 104 -2 23 18 5
30 -27 18 -12 -4 -32 -5 -42 -1 -18 6 -18 7 4 23 21 15 22 17 6 23 -10 4 -22
2 -29 -5 -6 -6 -15 -11 -19 -11 -14 0 -9 38 7 53 8 8 11 17 8 21 -10 10 -19 7
-36 -12z"/>
<path d="M1638 1623 c6 -2 18 -2 25 0 6 3 1 5 -13 5 -14 0 -19 -2 -12 -5z"/>
<path d="M1260 1609 c0 -5 5 -7 10 -4 6 3 10 8 10 11 0 2 -4 4 -10 4 -5 0 -10
-5 -10 -11z"/>
<path d="M1615 1569 c-56 -46 -63 -57 -41 -65 18 -7 128 74 123 90 -7 22 -33
15 -82 -25z"/>
<path d="M1733 1584 l-28 -26 33 22 c29 20 39 30 28 30 -3 0 -18 -12 -33 -26z"/>
<path d="M1142 1578 c-26 -16 -30 -23 -21 -34 9 -11 15 -12 26 -2 11 9 16 9
23 -1 5 -9 10 -10 14 -2 4 6 2 11 -4 11 -6 0 -8 4 -5 10 4 6 -1 7 -12 3 -16
-6 -16 -5 -4 10 13 16 15 16 31 2 19 -17 45 -11 55 13 5 13 1 12 -15 -3 -21
-19 -23 -19 -35 -2 -15 20 -12 20 -53 -5z"/>
<path d="M1253 1565 c-7 -7 -18 -15 -25 -18 -7 -2 -11 -7 -8 -10 3 -3 16 3 30
13 14 10 23 21 20 23 -3 3 -10 -1 -17 -8z"/>
<path d="M770 1535 c19 -19 36 -35 39 -35 3 0 -10 16 -29 35 -19 19 -36 35
-39 35 -3 0 10 -16 29 -35z"/>
<path d="M651 1544 c-2 -47 22 -142 46 -179 33 -50 594 -617 648 -655 90 -62
217 -73 315 -27 35 16 134 85 212 149 37 29 106 84 155 123 48 38 90 72 93 75
3 3 46 37 96 76 116 91 134 107 134 116 0 4 -8 1 -17 -7 -54 -45 -509 -406
-568 -450 -141 -105 -262 -121 -398 -53 -35 17 -599 576 -658 651 -13 18 -29
63 -40 115 -9 48 -18 78 -18 66z"/>
<path d="M1246 1524 c-26 -25 -20 -79 10 -103 31 -24 91 -28 119 -8 25 19 4
30 -30 17 -57 -22 -111 42 -71 83 14 14 12 27 -5 27 -4 0 -15 -7 -23 -16z"/>
<path d="M2475 1530 c-3 -5 -1 -10 4 -10 6 0 11 5 11 10 0 6 -2 10 -4 10 -3 0
-8 -4 -11 -10z"/>
<path d="M1157 1515 c3 -8 9 -12 14 -9 12 7 11 11 -5 17 -10 4 -13 1 -9 -8z"/>
<path d="M1195 1520 c-3 -5 -1 -10 4 -10 6 0 11 5 11 10 0 6 -2 10 -4 10 -3 0
-8 -4 -11 -10z"/>
<path d="M1522 1476 c-10 -14 -22 -22 -26 -19 -3 3 -6 1 -6 -6 0 -7 -5 -9 -12
-5 -9 5 -8 2 1 -9 13 -17 15 -17 35 0 28 24 36 35 30 45 -3 4 -1 8 5 8 5 0 12
-5 14 -10 3 -6 4 -5 3 2 -4 22 -24 19 -44 -6z"/>
<path d="M2366 1492 c-4 -7 -9 -106 -7 -140 1 -7 6 -10 12 -6 6 3 8 16 5 28
-3 12 -2 45 3 74 7 46 1 67 -13 44z"/>
<path d="M820 1480 c0 -5 5 -10 11 -10 5 0 7 5 4 10 -3 6 -8 10 -11 10 -2 0
-4 -4 -4 -10z"/>
<path d="M1589 1473 c-13 -16 -12 -17 4 -4 9 7 17 15 17 17 0 8 -8 3 -21 -13z"/>
<path d="M2492 1450 c0 -19 2 -27 5 -17 2 9 2 25 0 35 -3 9 -5 1 -5 -18z"/>
<path d="M787 1409 c8 -34 12 -67 9 -74 -5 -14 60 -82 69 -73 3 3 -10 19 -30
37 -20 17 -32 31 -26 31 17 0 73 -59 66 -70 -6 -9 131 -153 422 -446 98 -99
286 -118 412 -42 48 29 193 141 211 163 8 10 -25 -14 -74 -53 -137 -109 -193
-135 -296 -140 -96 -4 -166 15 -239 68 l-41 30 0 68 c0 59 -3 72 -23 90 -25
23 -37 28 -37 13 0 -5 9 -11 20 -14 17 -4 20 -14 20 -57 0 -28 -4 -49 -8 -46
-5 3 -7 18 -4 34 3 23 -3 34 -27 55 -34 28 -40 47 -15 47 14 0 14 2 0 15 -8 8
-19 15 -25 15 -6 0 -11 4 -11 9 0 14 -50 71 -63 71 -6 0 1 -12 15 -27 16 -18
28 -45 32 -74 6 -40 13 -51 46 -74 22 -15 40 -35 40 -44 0 -9 -23 7 -58 42
-51 51 -58 62 -54 89 4 26 -1 36 -23 54 -26 20 -27 24 -14 40 9 11 9 15 2 10
-8 -4 -13 -1 -13 8 0 9 -7 16 -15 16 -8 0 -15 6 -15 13 0 7 -14 26 -32 43
l-32 29 22 -29 c12 -15 24 -50 28 -76 5 -41 13 -54 45 -80 22 -17 39 -36 39
-43 0 -6 -26 15 -58 46 -51 50 -58 62 -54 88 3 23 -2 37 -24 61 -20 21 -25 32
-16 35 10 4 10 8 1 19 -6 8 -15 11 -20 8 -5 -3 -13 5 -18 18 -10 26 -61 77
-61 61 0 -5 9 -18 20 -28 10 -9 24 -42 30 -72 9 -44 17 -56 38 -66 31 -13 42
-26 42 -47 0 -8 -24 9 -53 39 -42 41 -53 58 -49 76 3 18 -5 32 -33 56 -33 30
-35 34 -20 45 19 14 12 34 -11 34 -8 0 -20 14 -25 30 -19 53 -27 32 -12 -31z"/>
<path d="M1549 1443 c-13 -16 -12 -17 4 -4 9 7 17 15 17 17 0 8 -8 3 -21 -13z"/>
<path d="M1650 1451 c0 -15 198 -192 204 -183 6 9 -181 192 -196 192 -5 0 -8
-4 -8 -9z"/>
<path d="M2311 1446 c-13 -16 -11 -141 2 -141 4 0 9 35 10 78 1 42 2 77 1 77
-1 0 -7 -6 -13 -14z"/>
<path d="M880 1426 c0 -2 8 -10 18 -17 15 -13 16 -12 3 4 -13 16 -21 21 -21
13z"/>
<path d="M1406 1409 c-17 -13 -23 -25 -19 -37 6 -14 4 -15 -9 -5 -12 11 -18
10 -32 -6 -13 -15 -14 -20 -3 -29 9 -8 19 -6 37 9 14 10 42 33 64 49 21 17 35
30 30 31 -5 0 -17 2 -26 4 -10 2 -29 -6 -42 -16z m54 5 c0 -8 -19 -13 -24 -6
-3 5 1 9 9 9 8 0 15 -2 15 -3z m-40 -28 c0 -11 -19 -15 -25 -6 -3 5 1 10 9 10
9 0 16 -2 16 -4z"/>
<path d="M720 1385 c19 -19 36 -35 39 -35 3 0 -10 16 -29 35 -19 19 -36 35
-39 35 -3 0 10 -16 29 -35z"/>
<path d="M1597 1414 c-8 -8 180 -188 201 -192 24 -6 12 9 -89 106 -97 94 -101
97 -112 86z"/>
<path d="M2262 1408 c-14 -14 -16 -148 -3 -148 5 0 11 35 13 78 4 90 5 85 -10
70z"/>
<path d="M1469 1383 c-13 -16 -12 -17 4 -4 16 13 21 21 13 21 -2 0 -10 -8 -17
-17z"/>
<path d="M2471 1363 c-7 -15 -26 -45 -44 -67 -22 -29 -24 -35 -8 -21 25 22 76
103 69 110 -3 3 -10 -7 -17 -22z"/>
<path d="M1540 1372 c0 -13 184 -192 198 -192 25 0 10 19 -87 108 -97 89 -111
100 -111 84z"/>
<path d="M1415 1344 l-30 -26 33 22 c17 12 32 23 32 26 0 7 -4 5 -35 -22z"/>
<path d="M2195 1347 c-9 -34 -2 -120 10 -124 6 -2 10 26 10 72 0 74 -9 97 -20
52z"/>
<path d="M2343 1277 c-92 -75 -141 -117 -103 -91 41 29 210 165 210 169 0 8
-1 8 -107 -78z"/>
<path d="M1486 1331 c-9 -13 192 -203 206 -195 7 5 -25 42 -91 106 -57 54
-105 98 -106 98 -2 0 -6 -4 -9 -9z"/>
<path d="M1359 1303 c-13 -16 -12 -17 4 -4 9 7 17 15 17 17 0 8 -8 3 -21 -13z"/>
<path d="M1430 1286 c0 -7 43 -53 96 -102 96 -89 114 -103 114 -87 0 13 -145
154 -153 148 -4 -3 -5 -2 -2 2 6 7 -34 53 -47 53 -4 0 -8 -6 -8 -14z"/>
<path d="M1375 1250 c-5 -8 27 -45 91 -106 55 -51 102 -93 107 -94 19 -1 0 22
-92 114 -67 66 -101 94 -106 86z"/>
<path d="M2369 1243 c-13 -16 -12 -17 4 -4 16 13 21 21 13 21 -2 0 -10 -8 -17
-17z"/>
<path d="M2072 1084 c-73 -57 -132 -106 -132 -109 0 -13 21 -1 75 45 33 28 66
50 74 50 8 0 11 3 8 6 -6 6 61 61 109 90 11 6 14 13 8 17 -6 3 -70 -41 -142
-99z"/>
<path d="M1925 1149 c-10 -15 5 -139 16 -139 4 0 7 34 6 75 -2 71 -8 88 -22
64z"/>
<path d="M1878 1114 c-14 -13 -9 -144 5 -144 8 0 11 16 9 52 -5 87 -7 100 -14
92z"/>
<path d="M1821 1066 c-15 -18 -3 -149 13 -143 6 3 9 11 6 18 -3 8 -5 42 -5 77
0 34 -1 62 -1 62 -1 0 -7 -6 -13 -14z"/>
<path d="M1768 1024 c-5 -4 -8 -38 -8 -76 0 -49 4 -68 13 -68 10 0 12 16 10
63 -5 83 -7 90 -15 81z"/>
<path d="M1595 960 l-30 -8 27 -1 c15 0 30 4 33 9 3 6 5 9 3 9 -2 -1 -16 -5
-33 -9z"/>
<path d="M1538 943 c7 -3 16 -2 19 1 4 3 -2 6 -13 5 -11 0 -14 -3 -6 -6z"/>
<path d="M1366 874 c-8 -22 -9 -21 15 -27 24 -7 39 21 18 34 -20 12 -26 11
-33 -7z"/>
<path d="M1427 859 c15 -15 105 -22 136 -9 16 7 7 9 -38 10 -33 0 -71 3 -85 6
-20 6 -23 4 -13 -7z"/>
<path d="M1593 850 c3 -14 0 -20 -11 -20 -8 0 -13 -2 -10 -5 3 -4 17 -3 31 0
31 8 34 45 4 45 -14 0 -18 -5 -14 -20z"/>
<path d="M1450 820 c25 -8 117 -13 109 -6 -2 2 -33 6 -69 9 -39 3 -55 2 -40
-3z"/>
<path d="M1270 665 c13 -14 26 -25 28 -25 3 0 -5 11 -18 25 -13 14 -26 25 -28
25 -3 0 5 -11 18 -25z"/>
<path d="M1155 606 c-7 -15 5 -32 63 -88 64 -62 75 -69 99 -63 67 16 85 82 36
126 l-28 24 23 -26 c41 -47 16 -103 -44 -96 -36 5 -131 89 -137 121 -3 20 -4
20 -12 2z"/>
</g>
</svg>
