<?xml version="1.0" standalone="no"?>
<!DOCTYPE svg PUBLIC "-//W3C//DTD SVG 20010904//EN"
 "http://www.w3.org/TR/2001/REC-SVG-20010904/DTD/svg10.dtd">
<svg version="1.0" xmlns="http://www.w3.org/2000/svg"
 width="450.000000pt" height="450.000000pt" viewBox="0 0 450.000000 450.000000"
 preserveAspectRatio="xMidYMid meet">
<metadata>
Created by potrace 1.10, written by Peter Selinger 2001-2011
</metadata>
<g transform="translate(0.000000,450.000000) scale(0.050000,-0.050000)"
fill="#000000" stroke="none">
<path d="M5067 7473 c-141 -47 -237 -133 -370 -333 -324 -486 -831 -879 -1485
-1149 -692 -286 -1032 -731 -1032 -1349 0 -106 10 -224 22 -262 11 -39 20
-108 20 -153 -2 -65 8 -92 44 -120 26 -21 77 -95 115 -166 39 -74 127 -188
204 -265 l135 -135 -29 -75 c-17 -42 -34 -98 -38 -126 -14 -85 -99 -239 -138
-252 -41 -13 -75 -85 -75 -159 0 -64 36 -63 52 1 10 39 25 50 70 50 41 0 54
-8 46 -28 -16 -43 248 -152 367 -152 81 0 669 -361 660 -405 -3 -13 5 -24 18
-24 13 -1 30 -8 39 -16 20 -20 48 -19 48 2 0 16 -124 143 -220 223 -27 23 33
-1 135 -54 l186 -96 34 45 c112 145 155 261 114 309 -21 25 4 6 56 -42 51 -49
89 -95 84 -104 -20 -32 17 -77 62 -73 47 4 46 16 -9 85 -32 40 -32 40 15 0 66
-56 114 -150 76 -150 -36 0 -193 -225 -193 -277 0 -56 -41 -76 -72 -34 -14 19
-41 30 -61 25 -33 -9 -32 -11 8 -24 25 -8 45 -28 45 -45 0 -54 -97 -8 -213
101 -60 57 -122 102 -136 99 -14 -3 -37 8 -51 25 -14 16 -44 30 -67 29 -42 0
-42 -1 5 -40 74 -62 41 -63 -58 -1 -263 164 -517 281 -589 271 -47 -6 -111 7
-187 38 -130 52 -250 85 -206 55 22 -14 18 -20 -20 -26 -41 -6 -32 -15 62 -61
102 -51 95 -55 -40 -24 -27 6 13 -17 90 -52 77 -36 163 -80 190 -99 116 -81
220 -123 220 -89 0 20 9 26 25 16 16 -9 15 -2 -4 20 -19 25 -44 32 -80 24 -37
-9 -43 -7 -22 7 33 22 42 17 -109 60 -87 25 -164 74 -145 94 7 7 41 -2 75 -19
34 -17 74 -26 89 -21 68 26 638 -333 694 -437 17 -32 11 -31 -47 5 -101 61
-164 53 -86 -11 84 -69 45 -61 -87 18 -62 37 -203 115 -313 173 -110 58 -237
131 -283 162 -88 61 -248 129 -365 157 -47 11 -56 18 -28 19 29 1 41 12 34 29
-6 16 3 41 20 58 17 17 25 36 18 43 -7 6 14 13 46 13 50 2 53 4 18 19 -83 36
22 19 130 -21 182 -67 259 -104 250 -119 -5 -8 15 -15 45 -15 l53 0 -59 48
c-32 26 -75 52 -94 58 -19 7 -35 20 -35 30 0 21 74 -9 205 -85 185 -107 229
-127 198 -89 -23 27 -23 33 -1 33 52 0 -57 59 -155 83 -53 14 -110 35 -127 48
-33 25 -153 69 -188 69 -12 0 -8 -10 8 -22 25 -18 24 -20 -7 -10 -20 7 -47 12
-60 12 -16 1 -15 6 3 17 14 9 -22 15 -85 12 -61 -2 -111 4 -111 14 0 83 -103
-20 -118 -119 -10 -59 -25 -80 -77 -103 -59 -25 -65 -37 -65 -113 0 -69 -10
-92 -55 -125 l-55 -40 33 -89 c21 -56 30 -120 23 -169 -9 -68 -2 -89 54 -152
54 -61 69 -100 87 -228 19 -131 31 -162 83 -210 88 -81 312 -229 420 -277 l93
-41 157 63 c132 53 164 59 201 39 68 -36 208 -12 280 48 34 29 84 53 112 53
90 0 127 34 127 118 0 74 45 142 95 142 36 0 53 42 48 120 -4 65 2 74 68 98
68 24 71 30 66 106 -5 69 1 84 47 108 29 15 83 82 119 148 37 66 82 125 101
131 19 6 53 37 76 69 41 57 42 57 121 30 211 -75 586 -84 839 -22 l110 28 -94
2 c-52 1 -146 16 -209 32 -140 36 -215 39 -195 7 16 -26 -22 -8 -72 34 -51 44
-149 61 -135 24 10 -26 -6 -30 -111 -26 -68 4 -155 -4 -192 -16 -60 -20 -70
-19 -90 17 -37 67 -288 304 -358 337 -36 17 -91 54 -121 82 -30 28 -61 51 -69
51 -21 0 -230 140 -254 170 -22 26 -218 130 -244 129 -9 0 1 -13 23 -30 52
-39 37 -37 -142 21 -146 48 -155 49 -195 16 -23 -19 -31 -22 -17 -6 43 49 29
72 -40 64 -79 -9 -199 -189 -146 -218 27 -15 31 -24 31 -65 0 -21 158 -70 174
-54 5 5 27 -8 48 -29 58 -58 94 -47 118 37 27 99 84 179 76 107 -4 -27 6 -52
22 -57 17 -6 22 -1 14 12 -8 14 -1 23 17 23 44 0 39 -35 -9 -60 -22 -12 -40
-35 -40 -51 0 -16 -10 -29 -21 -29 -12 0 -16 -9 -8 -21 7 -11 2 -34 -12 -50
-28 -34 -20 -36 51 -9 29 11 47 29 40 40 -7 11 6 39 29 64 45 48 54 108 17
121 -26 8 -4 55 26 55 11 0 15 -9 8 -20 -7 -11 1 -15 17 -9 36 15 309 -147
348 -206 16 -25 43 -45 60 -45 17 0 65 -32 108 -70 42 -38 70 -70 61 -70 -9 0
-26 10 -38 22 -45 45 -138 -36 -143 -124 -4 -70 23 -109 40 -59 4 12 19 13 35
3 38 -25 7 -66 -40 -51 -22 7 -38 2 -38 -11 0 -12 -47 4 -105 37 -58 33 -214
115 -348 182 -134 67 -254 135 -266 150 -35 42 -281 135 -371 139 -87 5 -101
34 -26 55 25 7 35 14 21 15 -56 4 13 185 92 241 23 15 36 37 29 47 -7 12 34
15 106 8 l118 -12 -100 31 c-124 39 -124 39 -82 84 32 36 31 39 -10 49 -30 8
-39 22 -31 44 7 19 4 27 -7 20 -22 -14 -118 86 -119 123 -1 13 -28 46 -61 74
-33 28 -60 60 -60 71 0 11 25 -3 55 -30 32 -30 57 -42 62 -28 12 37 -59 100
-113 100 -28 0 -45 6 -37 13 7 8 0 34 -16 59 -16 24 -26 63 -21 86 5 28 -3 42
-24 42 -27 0 -27 -5 -3 -35 24 -31 23 -32 -6 -9 -34 26 -37 56 -11 97 8 13 3
28 -11 34 -20 8 -20 10 0 11 35 3 31 62 -4 62 -46 0 -55 35 -21 87 28 43 28
52 2 78 -39 39 -20 57 46 45 50 -10 50 -9 -4 12 -35 14 -53 33 -46 50 6 15
-10 42 -34 60 -36 27 -37 31 -6 20 32 -11 34 -8 12 18 -14 17 -20 37 -13 44 7
7 13 1 13 -13 0 -17 8 -20 25 -7 14 10 45 17 70 15 45 -4 60 19 27 40 -10 6
-22 2 -25 -8 -9 -25 -97 -3 -97 23 0 11 12 16 27 10 20 -8 25 4 19 43 -5 29
-8 71 -7 93 9 172 11 180 49 173 29 -5 34 2 23 30 -26 69 -21 77 52 75 60 -2
72 5 67 34 -4 19 6 46 21 59 21 17 29 17 29 1 0 -12 11 -22 23 -22 13 0 18 5
12 12 -7 7 -5 31 4 55 18 46 -12 90 -55 81 -14 -3 -16 0 -4 5 11 6 15 20 8 31
-7 11 11 4 40 -15 55 -35 152 -13 152 36 0 9 -7 13 -16 8 -9 -6 -29 -1 -45 10
-24 17 -23 19 4 10 19 -6 38 0 43 13 13 35 7 65 -13 58 -9 -3 -13 6 -8 20 26
79 314 52 685 -62 108 -34 109 -35 78 -79 -172 -245 739 -681 1090 -522 112
50 118 48 432 -148 511 -320 1165 -1064 1200 -1365 9 -72 7 -75 -20 -39 -34
44 -40 27 -10 -29 13 -25 13 -42 0 -50 -11 -7 -20 -34 -20 -61 0 -27 -9 -49
-19 -49 -11 0 -34 -31 -52 -70 -18 -38 -41 -65 -50 -59 -9 5 -22 0 -29 -11 -7
-11 -21 -15 -31 -9 -11 6 -19 -6 -19 -27 0 -48 -59 -102 -133 -122 -42 -11
-57 -27 -57 -62 -1 -26 -14 -51 -30 -57 -17 -5 -39 -22 -50 -37 -12 -16 -68
-31 -127 -35 -59 -4 -117 -18 -130 -31 -18 -18 -12 -22 25 -17 61 9 77 -33 24
-62 -34 -18 -46 -14 -74 29 -19 30 -47 48 -66 43 -211 -55 -222 -60 -222 -94
0 -51 64 -65 212 -49 100 10 128 7 129 -13 0 -17 11 -13 30 12 18 23 29 28 29
12 0 -21 6 -21 33 2 18 15 34 24 35 21 12 -40 307 156 442 293 308 315 393
651 312 1236 -81 585 62 1438 320 1919 151 281 135 454 -71 766 -133 202 -251
312 -251 235 0 -15 -19 -52 -43 -82 -31 -40 -36 -60 -20 -76 17 -17 23 -16 23
6 1 69 34 85 78 41 24 -24 37 -54 30 -66 -9 -13 -5 -17 9 -8 14 9 23 2 23 -17
0 -17 14 -31 30 -31 17 0 30 -13 30 -29 0 -16 19 -40 43 -52 29 -16 35 -28 19
-38 -18 -11 -16 -21 7 -40 17 -14 25 -35 18 -46 -7 -12 -4 -15 9 -8 11 8 27 5
34 -7 7 -11 3 -20 -10 -20 -15 0 -15 -11 -1 -39 16 -29 13 -46 -10 -70 -28
-27 -28 -31 -2 -31 16 0 33 11 38 24 4 14 13 4 20 -21 10 -36 5 -44 -19 -34
-27 10 -28 7 -5 -20 23 -28 22 -36 -7 -52 -35 -19 -49 -81 -16 -72 19 5 23 -5
20 -60 -1 -21 -5 -25 -11 -10 -6 14 -18 20 -28 14 -9 -5 -12 -25 -5 -43 7 -19
-2 -42 -22 -57 -22 -16 -27 -30 -13 -38 15 -9 9 -32 -16 -67 -20 -30 -34 -67
-31 -84 4 -16 -4 -5 -16 25 -23 53 -76 77 -76 34 0 -12 8 -16 18 -10 10 6 23
-2 29 -18 6 -17 3 -35 -7 -41 -10 -6 -13 -25 -7 -41 7 -17 -4 -48 -24 -70 -27
-30 -29 -39 -7 -39 24 -1 24 -3 0 -18 -15 -10 -21 -28 -13 -40 7 -12 -1 -42
-18 -66 -17 -25 -31 -74 -31 -109 0 -36 -9 -70 -20 -77 -13 -8 -13 -26 1 -53
18 -33 15 -42 -18 -50 -24 -7 -36 -22 -29 -39 5 -15 2 -28 -8 -28 -10 0 -18
-22 -18 -50 0 -27 8 -50 18 -50 11 0 8 -13 -6 -30 -23 -27 -14 -39 25 -32 8 1
15 -8 15 -20 0 -12 -13 -17 -29 -11 -36 14 -61 -19 -26 -34 18 -7 19 -15 3
-26 -12 -10 -19 -35 -14 -57 12 -61 9 -209 -4 -231 -7 -10 -2 -19 10 -19 14 0
18 -16 10 -40 -8 -26 -3 -40 14 -41 14 -1 8 -10 -14 -19 -22 -9 -29 -18 -15
-19 32 -1 30 -403 -3 -428 -16 -11 -15 -19 3 -26 14 -6 25 -23 25 -39 0 -15
14 -28 30 -28 17 0 30 -14 30 -30 0 -17 -11 -28 -25 -25 -14 3 -23 -6 -20 -20
3 -14 -5 -25 -16 -25 -12 0 -16 -9 -9 -20 7 -12 21 -15 31 -9 29 18 22 -10
-10 -43 -25 -25 -31 -24 -49 7 -12 19 -21 25 -21 12 -1 -12 12 -33 28 -46 16
-13 24 -36 18 -51 -7 -19 2 -24 33 -16 l43 11 -41 -76 c-34 -63 -36 -79 -13
-97 15 -12 26 -44 23 -72 -2 -27 2 -70 11 -93 10 -29 5 -52 -12 -66 -22 -18
-32 -7 -52 53 -168 518 -1003 1386 -1524 1584 -44 17 -55 34 -55 85 0 337
-842 694 -1135 480 -52 -38 -54 -38 -127 0 -40 21 -144 53 -231 70 -86 18
-168 40 -181 51 -13 11 -74 13 -140 6 l-116 -13 60 38 c78 49 182 85 249 85
29 0 62 8 72 18 10 10 123 72 249 137 127 65 278 147 336 182 58 34 110 63
116 63 6 0 39 21 74 46 35 26 99 64 141 85 43 22 82 50 87 64 6 14 20 25 31
25 33 0 333 247 334 275 1 14 9 23 19 20 10 -3 55 34 100 81 45 47 82 80 82
72 0 -7 36 32 80 87 44 56 80 113 80 128 -1 22 -4 22 -17 1 -10 -15 -31 -20
-53 -11 -52 20 20 48 85 33 32 -7 45 -1 45 22 0 20 -17 32 -45 32 -35 1 -39 5
-16 19 16 10 36 14 45 9 9 -6 16 0 16 12 0 12 8 17 18 11 10 -6 14 9 8 34 -7
33 -4 38 10 18 28 -40 98 -11 168 69 55 62 112 79 148 43 6 -7 32 -5 57 5 24
9 56 9 71 0 14 -9 52 -13 83 -9 31 4 61 -2 68 -12 7 -12 25 -12 49 1 30 16 40
12 50 -19 12 -38 90 -51 90 -14 0 10 14 7 30 -7 17 -14 30 -17 30 -7 0 9 9 4
19 -12 14 -23 24 -24 48 -4 24 21 32 18 43 -17 10 -31 24 -38 54 -29 30 10 37
6 25 -12 -10 -16 -7 -20 8 -11 43 26 24 46 -97 100 -312 140 -670 191 -873
125z m-1052 -1982 c191 -25 482 -202 554 -337 30 -56 45 -67 66 -50 36 30 59
2 32 -40 -31 -50 -125 -90 -216 -91 -103 -2 -196 23 -181 47 7 12 -12 15 -46
8 -78 -16 -297 63 -310 112 -9 33 -5 33 58 -4 37 -21 76 -33 87 -26 12 7 21 3
21 -9 0 -11 10 -21 22 -21 32 0 9 50 -24 51 -83 4 -177 89 -97 89 12 0 16 -8
10 -18 -11 -18 86 -51 103 -35 5 5 27 -8 48 -29 23 -23 50 -33 64 -24 39 24
74 24 74 -1 0 -14 8 -12 18 5 10 16 13 43 7 60 -7 21 0 18 21 -8 17 -22 26
-46 21 -55 -20 -32 52 -36 99 -5 l50 32 -45 49 c-54 58 -75 63 -57 14 7 -21
-4 -15 -27 15 -22 28 -46 66 -54 87 -7 20 -24 33 -37 28 -14 -4 -47 3 -74 17
-27 14 -57 21 -66 16 -9 -6 -16 -2 -16 7 0 31 -124 57 -247 53 -138 -4 -190
-40 -155 -104 34 -65 25 -79 -19 -27 -31 37 -57 162 -34 163 3 0 41 13 85 29
44 15 103 24 130 20 28 -4 88 -12 135 -18z m-988 -2299 c5 -16 -7 -44 -28 -63
-37 -33 -39 -33 -39 -1 0 20 -9 29 -22 21 -15 -10 -15 -1 1 29 26 48 72 55 88
14z m-267 -194 c70 -23 173 -68 229 -99 106 -61 112 -74 17 -37 -31 12 -74 24
-96 27 -62 7 -259 75 -271 93 -5 9 -32 25 -60 36 l-49 19 52 2 c28 0 109 -18
178 -41z m590 -307 c28 -23 15 -21 -44 8 -46 22 -89 50 -97 62 -16 26 83 -24
141 -70z m-939 -138 c141 -48 429 -185 429 -204 0 -5 -26 4 -59 20 -32 17 -71
26 -87 20 -15 -6 -97 16 -182 50 -152 61 -232 79 -172 41 26 -17 25 -19 -5
-20 -57 0 -40 -36 24 -50 32 -7 70 -27 85 -45 23 -28 21 -30 -14 -16 -80 32
-123 37 -90 11 26 -20 25 -22 -7 -12 -20 7 -47 12 -60 12 -13 0 -10 9 7 20 21
13 5 16 -50 9 -44 -5 -66 -3 -50 6 17 8 31 26 32 40 1 14 3 43 5 65 2 29 17
40 57 40 51 0 52 1 15 29 -53 40 -38 38 122 -16z m782 -74 c59 -34 107 -65
107 -69 0 -15 -153 54 -200 91 -76 58 -28 47 93 -22z m521 -272 c35 35 220
-144 236 -228 10 -53 8 -52 -124 56 -197 162 -199 163 -146 90 26 -36 53 -65
59 -65 29 0 141 -121 141 -151 0 -27 -12 -32 -61 -22 -67 14 -276 177 -241
189 39 13 23 55 -47 123 -38 37 -65 75 -60 83 6 9 -17 30 -50 48 -34 17 -61
36 -61 42 0 6 77 -31 171 -82 95 -52 177 -89 183 -83z m-1327 75 c69 -32 261
-138 426 -237 435 -261 598 -347 631 -334 47 17 235 -164 196 -190 -21 -13
-44 -10 -78 12 -143 94 -194 55 -131 -100 10 -25 6 -35 -13 -32 -52 7 -80 -1
-69 -20 6 -10 -7 -24 -30 -31 -47 -15 -85 7 -422 247 -114 80 -301 193 -417
249 -181 89 -293 167 -303 212 -14 66 -5 122 19 122 16 0 58 -25 95 -55 186
-155 949 -549 949 -490 0 84 -878 605 -1020 605 -72 0 -94 31 -35 49 44 13 43
15 -15 43 l-60 30 75 -12 c42 -7 132 -37 202 -68z m289 22 c51 8 169 -53 421
-219 217 -142 256 -193 132 -170 -68 13 -61 -4 22 -56 39 -24 67 -48 61 -54
-6 -5 -67 26 -136 70 -69 43 -175 104 -235 135 -131 66 -265 153 -254 164 5 4
39 -10 76 -33 79 -48 112 -53 77 -11 -20 24 -20 30 2 30 15 0 9 13 -16 30 -23
16 -56 25 -73 19 -33 -13 -193 80 -193 112 0 13 14 13 41 -1 22 -12 56 -20 75
-16z m579 -184 c157 -88 300 -160 318 -160 55 0 163 -79 194 -141 43 -86 13
-86 -98 -2 -164 123 -291 207 -301 198 -5 -5 25 -32 67 -59 41 -28 119 -94
172 -148 54 -54 91 -85 82 -70 -9 17 -7 23 5 16 11 -7 17 -33 14 -58 -2 -25
-5 -57 -6 -70 -2 -25 -60 9 -207 122 -63 48 -71 62 -51 87 21 25 7 47 -84 131
-61 56 -108 108 -105 117 6 22 -72 61 -94 48 -10 -7 -28 4 -39 24 -12 19 -21
28 -21 20 -1 -15 -113 38 -181 84 -25 17 -24 20 10 21 22 0 168 -72 325 -160z
m-718 -661 c84 -45 189 -113 233 -151 l80 -70 -110 64 c-60 35 -171 100 -245
143 -125 72 -154 95 -123 95 6 0 81 -37 165 -81z"/>
<path d="M2840 5550 c-10 -27 -14 -63 -7 -80 7 -19 0 -30 -20 -30 -43 0 -64
-41 -31 -61 20 -12 13 -22 -28 -37 -30 -12 -54 -25 -54 -31 0 -5 14 -5 30 2
17 6 30 1 30 -11 0 -12 -10 -22 -21 -22 -12 0 -15 -10 -8 -21 7 -13 0 -19 -18
-15 -17 3 -30 -3 -31 -14 0 -11 13 -19 29 -17 16 1 29 -5 29 -15 0 -24 -78
-62 -100 -48 -11 7 -14 -1 -8 -18 6 -16 23 -25 37 -20 15 6 25 -4 23 -26 -3
-48 -75 -153 -90 -132 -14 18 -62 31 -62 17 0 -20 111 -65 140 -57 19 5 16 -3
-9 -23 -21 -17 -29 -31 -18 -31 11 0 19 -19 19 -43 -1 -24 8 -46 20 -51 29
-10 48 61 27 96 -9 14 -9 40 0 57 27 54 43 201 21 201 -11 0 -20 10 -20 21 0
12 8 16 19 10 15 -9 42 39 51 89 5 30 78 218 103 265 29 54 23 95 -15 95 -10
0 -28 -22 -38 -50z"/>
<path d="M5563 5239 c-28 -79 -28 -79 -3 -79 11 0 20 13 20 28 0 16 10 32 23
36 17 6 17 19 3 45 -18 32 -23 29 -43 -30z"/>
<path d="M2471 5022 c-7 -12 -7 -22 1 -22 8 0 -1 -17 -20 -38 -23 -25 -27 -43
-13 -51 11 -7 21 1 21 18 0 17 14 31 30 31 34 0 37 17 12 57 -12 19 -21 21
-31 5z"/>
<path d="M2560 4880 c12 -22 30 -40 40 -40 11 0 13 -29 7 -65 -16 -81 -18 -83
-59 -67 -27 10 -29 19 -11 37 29 29 30 75 1 75 -12 0 -17 -13 -11 -29 6 -15 1
-32 -12 -36 -33 -11 -2 -75 36 -75 18 0 56 -18 84 -40 28 -22 45 -40 38 -40
-7 0 -4 -22 6 -49 13 -32 12 -51 -3 -56 -29 -9 16 -80 72 -115 36 -22 35 -18
-7 28 -39 42 -45 61 -29 88 12 20 14 63 6 104 -8 38 -10 76 -5 85 6 9 3 15 -7
13 -36 -6 -66 3 -66 20 0 10 20 14 45 10 32 -6 29 -2 -11 14 -39 15 -52 32
-44 57 6 19 -6 54 -27 78 -47 54 -71 56 -43 3z"/>
<path d="M5238 4491 c-2 -6 -4 -20 -5 -32 -2 -11 -16 -29 -32 -39 -17 -10 -22
-25 -13 -34 10 -9 22 -5 26 9 5 14 20 19 33 12 13 -7 16 -6 8 3 -8 9 -5 28 6
41 15 18 15 29 0 38 -12 8 -22 8 -23 2z"/>
<path d="M2720 3993 c0 -32 63 -93 97 -93 36 0 27 29 -23 77 -54 50 -74 54
-74 16z"/>
<path d="M4301 4006 c-1 -41 91 -126 136 -126 34 0 42 11 40 55 -2 47 -4 49
-11 10 -5 -25 -20 -45 -34 -45 -41 0 -52 23 -30 65 19 34 17 36 -14 19 -27
-15 -43 -12 -62 13 -14 19 -25 23 -25 9z"/>
<path d="M2600 3983 c0 -26 99 -111 113 -97 19 19 -50 114 -83 114 -17 0 -30
-7 -30 -17z"/>
<path d="M2880 3961 c0 -21 97 -101 123 -101 30 0 19 38 -23 80 -41 41 -100
54 -100 21z"/>
<path d="M4551 3738 c-140 -113 -178 -158 -132 -158 10 0 25 10 32 21 7 12 26
17 41 11 15 -6 26 -4 23 4 -15 51 99 122 147 90 26 -18 41 -25 32 -15 -8 9 5
29 30 44 25 15 31 23 12 17 -27 -8 -32 1 -26 49 9 76 17 79 -159 -63z"/>
<path d="M3245 3806 c-43 -16 -27 -43 18 -31 32 8 39 5 27 -15 -10 -17 -8 -21
6 -13 11 8 27 4 34 -7 7 -11 21 -15 31 -9 23 14 26 51 4 45 -8 -3 -33 5 -55
17 -22 12 -51 18 -65 13z"/>
<path d="M3413 3786 c-24 -24 -13 -86 16 -86 16 0 33 7 38 15 13 21 -38 88
-54 71z"/>
<path d="M3493 3726 c-25 -25 -13 -70 15 -59 32 12 100 -53 78 -75 -8 -7 8 -6
35 4 55 21 67 74 17 74 -18 0 -45 10 -60 22 -49 38 -72 47 -85 34z"/>
<path d="M3114 3640 c-9 -36 5 -49 37 -35 7 3 21 -11 31 -30 11 -19 34 -35 50
-35 17 0 25 9 18 20 -7 11 2 20 19 20 17 0 29 -10 26 -22 -3 -13 9 -27 25 -32
27 -8 27 -7 0 12 -21 15 -23 21 -4 22 19 0 20 10 4 40 -24 44 -91 54 -107 15
-5 -14 -11 -5 -11 20 -2 58 -73 62 -88 5z"/>
<path d="M3736 3626 c-29 -5 -64 -22 -77 -38 -20 -23 -19 -27 6 -17 18 7 51
-8 78 -35 47 -46 157 -68 157 -31 0 11 -13 14 -30 8 -19 -7 -30 0 -30 19 0 17
-8 25 -18 19 -9 -6 -22 7 -28 28 -5 22 1 43 13 48 26 11 7 11 -71 -1z"/>
<path d="M4831 3577 c7 -20 -4 -44 -30 -62 -57 -40 3 -100 74 -73 56 21 56 34
-6 108 -28 33 -45 45 -38 27z"/>
<path d="M3417 3527 c-17 -60 11 -102 48 -71 16 13 36 17 44 9 8 -8 12 2 8 23
-4 21 -20 43 -35 48 -17 6 -22 0 -14 -13 8 -13 5 -23 -5 -23 -11 0 -23 16 -27
35 -6 29 -10 28 -19 -8z"/>
<path d="M3580 3452 c0 -16 -11 -33 -25 -39 -14 -5 -9 -11 12 -11 25 -1 33
-12 26 -32 -14 -36 19 -41 34 -5 8 19 17 17 37 -7 14 -17 37 -28 49 -24 13 5
27 -12 31 -38 4 -27 19 -43 35 -40 15 3 34 -5 43 -19 21 -34 42 -11 27 28 -7
19 -28 27 -55 21 l-44 -9 44 39 c50 44 40 73 -15 43 -49 -26 -71 12 -30 53 41
41 40 60 -1 26 -48 -40 -83 -38 -94 4 -12 44 -74 52 -74 10z"/>
<path d="M3932 3457 c10 -16 4 -20 -19 -11 -18 7 -33 5 -33 -4 0 -23 106 -43
126 -24 8 8 -8 26 -37 39 -39 18 -48 18 -37 0z"/>
<path d="M4051 3381 c-15 -23 66 -81 113 -81 20 0 36 13 36 29 0 52 -123 95
-149 52z"/>
<path d="M3940 3240 c0 -11 -13 -20 -30 -20 -16 0 -30 -15 -30 -32 0 -24 13
-30 50 -23 28 5 50 1 50 -10 0 -12 11 -11 27 2 15 13 30 20 35 18 4 -3 5 0 1
5 -6 10 -18 13 -72 18 -18 1 -25 14 -18 32 6 17 6 30 -1 30 -7 0 -12 -9 -12
-20z"/>
<path d="M4280 3211 c0 -32 59 -71 109 -71 49 0 36 51 -20 77 -67 31 -89 29
-89 -6z"/>
<path d="M4028 3123 c8 -13 3 -23 -11 -23 -16 0 -12 -13 11 -35 24 -23 40 -27
45 -12 5 12 29 18 53 13 35 -8 38 -5 14 12 -16 12 -47 16 -68 9 -23 -7 -32 -3
-24 9 7 12 2 28 -11 36 -14 9 -18 6 -9 -9z"/>
<path d="M4451 3061 c-15 -23 66 -81 113 -81 53 0 43 50 -15 77 -62 28 -83 29
-98 4z"/>
<path d="M4152 2976 c17 -34 45 -56 70 -56 25 0 35 -9 26 -23 -9 -15 -5 -18
10 -8 26 16 -1 64 -53 97 -14 9 -22 23 -17 31 5 8 -8 14 -28 14 -34 0 -34 -4
-8 -55z"/>
<path d="M3609 2959 c-6 -11 -18 -16 -25 -11 -20 11 -54 -33 -53 -68 1 -60 59
-161 86 -150 14 5 32 10 40 10 7 0 25 19 40 42 21 35 21 40 -1 27 -20 -11 -21
-9 -3 10 16 18 16 40 0 82 -23 62 -64 90 -84 58z"/>
<path d="M4594 2907 c-25 -25 31 -67 88 -67 67 0 76 29 19 59 -44 24 -88 27
-107 8z"/>
<path d="M4680 2760 c0 -26 97 -64 123 -48 31 19 -23 68 -75 68 -27 0 -48 -9
-48 -20z"/>
<path d="M4711 2662 c-13 -22 105 -73 125 -53 16 16 -52 71 -89 71 -13 0 -30
-8 -36 -18z"/>
</g>
</svg>
